<?xml version="1.0" standalone="no"?>
<!DOCTYPE svg PUBLIC "-//W3C//DTD SVG 1.1//EN" "http://www.w3.org/Graphics/SVG/1.1/DTD/svg11.dtd" >
<svg xmlns="http://www.w3.org/2000/svg" xmlns:xlink="http://www.w3.org/1999/xlink" version="1.1">
<metadata>
Created by FontForge 20170731 at Wed Oct 12 08:51:57 2022
 By Aleksey,,,
Copyright (c) 2017 by Matthieu Salvaggio C Adele Type. All rights reserved.
</metadata>
<defs>
<font id="ATSurt-Regular" horiz-adv-x="0" >
  <font-face 
    font-family="AT Surt"
    font-weight="400"
    font-stretch="normal"
    units-per-em="2048"
    panose-1="2 0 0 3 0 0 0 0 0 0"
    ascent="1556"
    descent="-492"
    x-height="1075"
    cap-height="1556"
    bbox="-1464 -1004 2818 2071"
    underline-thickness="102"
    underline-position="-307"
    unicode-range="U+0020-25CA"
  />
<missing-glyph horiz-adv-x="1402" 
d="M158 0v1538h1087v-1538h-1087zM254 150l833 1292h-833v-1292zM315 96h834v1293z" />
    <glyph glyph-name=".notdef" horiz-adv-x="1402" 
d="M158 0v1538h1087v-1538h-1087zM254 150l833 1292h-833v-1292zM315 96h834v1293z" />
    <glyph glyph-name=".null" 
 />
    <glyph glyph-name="nonmarkingreturn" horiz-adv-x="682" 
 />
    <glyph glyph-name="space" unicode=" " horiz-adv-x="542" 
 />
    <glyph glyph-name="exclam" unicode="!" horiz-adv-x="552" 
d="M178 403v1153h199v-1153h-199zM156 0v231h241v-231h-241z" />
    <glyph glyph-name="quotedbl" unicode="&#x22;" horiz-adv-x="907" 
d="M248 870l-41 396v272h180v-272l-41 -396h-98zM561 870l-41 396v272h180v-272l-41 -396h-98z" />
    <glyph glyph-name="numbersign" unicode="#" horiz-adv-x="1536" 
d="M229 0l111 465h-248v137h281l78 336h-236v137h268l115 481h168l-115 -481h342l115 481h168l-115 -481h279v-137h-312l-77 -336h286v-137h-319l-111 -465h-168l111 465h-342l-111 -465h-168zM541 602h342l78 336h-343z" />
    <glyph glyph-name="dollar" unicode="$" horiz-adv-x="1400" 
d="M1337 412q0 -199 -140.5 -305.5t-395.5 -114.5v-293h-199v303q-109 15 -198 51.5t-149 85.5t-102 112t-63 128.5t-27 136.5h187q18 -80 41 -133.5t62.5 -97.5t100 -69t148.5 -36v506q-82 17 -139.5 32t-121 38.5t-105 53t-77 70.5t-52.5 96.5t-17 125.5q0 107 41 188
t114 130.5t161.5 76t195.5 33.5v217h199v-221q112 -13 200.5 -51t144.5 -91t94 -124t54.5 -142.5t20.5 -154.5h-185q-20 190 -96 275.5t-233 104.5v-499q103 -21 173.5 -41t144.5 -54.5t118 -77t72 -108.5t28 -151zM274 1116q0 -103 74 -149.5t254 -83.5v467
q-328 -12 -328 -234zM801 172q80 2 140 13.5t110.5 35.5t77 68.5t26.5 107.5q0 47 -16.5 83t-43.5 60.5t-74.5 44.5t-96.5 33t-123 27v-473z" />
    <glyph glyph-name="percent" unicode="%" horiz-adv-x="1998" 
d="M395 696q-90 0 -161 35t-114.5 97t-66 142t-22.5 173t22.5 173t66 141.5t114.5 96.5t161 35q119 0 202.5 -61.5t122 -160t38.5 -224.5t-38.5 -224.5t-122 -160.5t-202.5 -62zM408 -33l944 1622h151l-944 -1622h-151zM393 821q108 0 164.5 90.5t56.5 231.5t-56.5 231
t-164.5 90q-106 0 -162.5 -90t-56.5 -231t56.5 -231.5t162.5 -90.5zM1534 -18q-92 0 -163.5 36t-114.5 98.5t-65 141t-22 170.5t22 170.5t65 141t114.5 98.5t163.5 36q93 0 164.5 -36t114 -98.5t64 -141t21.5 -170.5t-21.5 -170.5t-64 -141t-114 -98.5t-164.5 -36zM1534 115
q56 0 99.5 26t69 70.5t38 99t12.5 117.5t-12.5 117.5t-38 99t-69 70.5t-99.5 26t-99.5 -26t-69 -70.5t-38 -99t-12.5 -117.5t12.5 -117.5t38 -99t69 -70.5t99.5 -26z" />
    <glyph glyph-name="ampersand" unicode="&#x26;" horiz-adv-x="1372" 
d="M1309 0h-199l-92 133q-68 -61 -176.5 -97t-227.5 -36q-244 0 -397.5 148t-153.5 374q0 173 92 304.5t244 191.5l-209 299v239h914v-178h-735l211 -301q138 31 315 31h90v-172h-90q-95 0 -211 -14l317 -467q39 125 39 303h187q0 -137 -28.5 -271.5t-74.5 -216.5zM618 172
q87 0 165 31t126 84l-407 583q-111 -42 -180.5 -132.5t-69.5 -213.5q0 -151 102.5 -251.5t263.5 -100.5z" />
    <glyph glyph-name="quotesingle" unicode="'" horiz-adv-x="593" 
d="M248 870l-41 396v272h180v-272l-41 -396h-98z" />
    <glyph glyph-name="parenleft" unicode="(" horiz-adv-x="591" 
d="M373 -238q-522 844 0 1688h157q-460 -844 0 -1688h-157z" />
    <glyph glyph-name="parenright" unicode=")" horiz-adv-x="591" 
d="M219 -238h-158q460 844 0 1688h158q522 -844 0 -1688z" />
    <glyph glyph-name="asterisk" unicode="*" horiz-adv-x="1081" 
d="M289 688l-107 88l275 299l-351 144l60 124l321 -165l-16 378h137l-16 -378l321 165l60 -124l-348 -144l274 -299l-106 -88l-252 324z" />
    <glyph glyph-name="plus" unicode="+" horiz-adv-x="1146" 
d="M1044 598v-137h-403v-404h-137v404h-402v137h402v401h137v-401h403z" />
    <glyph glyph-name="comma" unicode="," horiz-adv-x="446" 
d="M106 -231l89 231h-93v231h242v-231l-111 -231h-127z" />
    <glyph glyph-name="hyphen" unicode="-" horiz-adv-x="1073" 
d="M946 444h-819v179h819v-179z" />
    <glyph glyph-name="period" unicode="." horiz-adv-x="446" 
d="M102 0v231h242v-231h-242z" />
    <glyph glyph-name="slash" unicode="/" horiz-adv-x="782" 
d="M18 -238l568 1794h178l-567 -1794h-179z" />
    <glyph glyph-name="zero" unicode="0" horiz-adv-x="1511" 
d="M758 -33q-133 0 -242 43.5t-183 118t-124 178.5t-73 221.5t-23 249.5t23 249.5t73 221.5t124 178.5t183 118t242 43.5t241.5 -43.5t182 -118t123 -178.5t72 -221.5t22.5 -249.5t-22.5 -249.5t-72 -221.5t-123 -178.5t-182 -118t-241.5 -43.5zM756 156q111 0 197 49
t138 135t78.5 197t26.5 241q0 104 -16 195.5t-51 170.5t-86 136t-124.5 89t-162.5 32q-111 0 -197 -49t-138.5 -135.5t-79 -197.5t-26.5 -241t26.5 -241t79 -197t138.5 -135t197 -49z" />
    <glyph glyph-name="one" unicode="1" horiz-adv-x="751" 
d="M365 0v1358h-310v198h508v-1556h-198z" />
    <glyph glyph-name="two" unicode="2" horiz-adv-x="1454" 
d="M195 -2v199q475 296 647 442q143 122 205.5 228.5t62.5 219.5q0 149 -97 233.5t-270 84.5q-200 0 -315 -108t-115 -287q0 -40 21 -123h-201q-20 76 -20 135q0 262 165 414.5t461 152.5q275 0 428.5 -132.5t153.5 -362.5q0 -160 -80 -299t-254 -287q-152 -129 -455 -311
h809v-199h-1146z" />
    <glyph glyph-name="three" unicode="3" horiz-adv-x="1462" 
d="M715 -33q-241 0 -399.5 96.5t-202.5 278.5h209q69 -192 407 -192q122 0 207.5 24.5t131 70t64.5 99.5t19 123q0 172 -119.5 253t-390.5 81h-141v192l487 365h-768v198h1008v-219l-496 -362h31q274 0 431 -130.5t157 -371.5q0 -79 -17.5 -148.5t-62 -136.5t-114.5 -114.5
t-183 -77t-258 -29.5z" />
    <glyph glyph-name="four" unicode="4" horiz-adv-x="1429" 
d="M1317 541v-199h-320v-342h-198v342h-686v219l577 995h219l-577 -1015h467v393h198v-393h320z" />
    <glyph glyph-name="five" unicode="5" horiz-adv-x="1445" 
d="M696 -33q-160 0 -289.5 45t-207 127t-86.5 187h215q5 -52 56 -92t131.5 -61t174.5 -21q205 0 324 100t119 266q0 167 -115 272t-291 105q-133 0 -227 -61t-131 -158h-230l228 880h833v-198h-692l-102 -397q54 54 152 86t212 32q251 0 407 -155.5t156 -401.5
q0 -253 -172 -404t-465 -151z" />
    <glyph glyph-name="six" unicode="6" horiz-adv-x="1376" 
d="M684 -31q-149 0 -260 51.5t-178.5 149t-100 229.5t-32.5 301q0 260 74 460t214 312.5t326 112.5q188 0 314 -101.5t145 -269.5h-213q-13 88 -86 141.5t-168 53.5q-167 0 -275.5 -161.5t-130.5 -430.5q67 110 179.5 171t257.5 61q229 0 371.5 -146t142.5 -383
q0 -251 -157.5 -401t-422.5 -150zM696 152q162 0 263.5 98t101.5 260q0 161 -101 258.5t-264 97.5q-164 0 -264 -97t-100 -259q0 -161 100 -259.5t264 -98.5z" />
    <glyph glyph-name="seven" unicode="7" horiz-adv-x="1204" 
d="M213 0l666 1358h-766v198h979v-198l-660 -1358h-219z" />
    <glyph glyph-name="eight" unicode="8" horiz-adv-x="1454" 
d="M729 -37q-131 0 -237.5 29t-175.5 76t-116 110t-67 129t-20 135q0 134 71 235.5t217 153.5q-215 121 -215 320q0 80 32.5 155t96 138t171 101t243.5 38q113 0 205.5 -25t153.5 -66t103 -96.5t60.5 -114t18.5 -120.5q0 -208 -215 -330q145 -53 215.5 -153t70.5 -236
q0 -69 -19 -134.5t-65 -129t-114.5 -110.5t-175 -76t-238.5 -29zM727 913q170 0 250 68.5t80 173.5q0 106 -80.5 178t-249.5 72q-87 0 -154 -21t-105.5 -57t-57.5 -79t-19 -93q0 -104 83 -173t253 -69zM727 145q90 0 161.5 18t116.5 47t75.5 67.5t42.5 77.5t12 79
q0 43 -12 82.5t-41.5 78t-74.5 66.5t-117 45t-163 17q-112 0 -194 -23t-127.5 -64t-67 -91t-21.5 -111q0 -40 12 -79t42.5 -77.5t75.5 -67.5t117.5 -47t162.5 -18z" />
    <glyph glyph-name="nine" unicode="9" horiz-adv-x="1433" 
d="M682 -33q-230 0 -384.5 100t-176.5 263h215q12 -83 105.5 -134t234.5 -51q195 0 320.5 152t125.5 397v37q-75 -96 -207 -155.5t-270 -59.5q-237 0 -384.5 147t-147.5 386q0 242 164.5 391t429.5 149q141 0 252 -43.5t193 -133t125.5 -236.5t43.5 -345
q0 -256 -79.5 -452.5t-224.5 -304t-335 -107.5zM702 700q183 0 294.5 94.5t111.5 249.5q0 163 -111.5 262t-294.5 99q-181 0 -291 -99t-110 -262q0 -155 110 -249.5t291 -94.5z" />
    <glyph glyph-name="colon" unicode=":" horiz-adv-x="446" 
d="M102 823v232h242v-232h-242zM102 0v231h242v-231h-242z" />
    <glyph glyph-name="semicolon" unicode=";" horiz-adv-x="446" 
d="M102 823v232h242v-232h-242zM106 -231l89 231h-93v231h242v-231l-111 -231h-127z" />
    <glyph glyph-name="less" unicode="&#x3c;" horiz-adv-x="1062" 
d="M928 0l-811 549v209l811 542v-163l-723 -484l723 -483v-170z" />
    <glyph glyph-name="equal" unicode="=" horiz-adv-x="1413" 
d="M236 711v137h942v-137h-942zM236 262v137h942v-137h-942z" />
    <glyph glyph-name="greater" unicode="&#x3e;" horiz-adv-x="1060" 
d="M131 0v170l723 483l-723 484v163l811 -542v-209z" />
    <glyph glyph-name="question" unicode="?" horiz-adv-x="1169" 
d="M434 365v34q0 130 39 223.5t139 184.5q19 17 64.5 55.5t70.5 63t56.5 62.5t46 80t14.5 89q0 109 -77 178.5t-201 69.5q-146 0 -226 -96.5t-67 -261.5h-193q-19 244 116.5 393t375.5 149q212 0 341.5 -118t129.5 -312q0 -62 -15.5 -117t-37.5 -93.5t-59 -79t-66 -65.5
t-73.5 -61.5t-68.5 -58.5q-58 -53 -81 -100t-31 -115q-6 -49 -6 -104h-191zM408 0v231h241v-231h-241z" />
    <glyph glyph-name="at" unicode="@" horiz-adv-x="2230" 
d="M1270 -324q-252 0 -463.5 72t-358.5 200.5t-229 312.5t-82 403q0 201 70 370t196 287.5t306.5 184t396.5 65.5q219 0 403 -69t312.5 -192.5t200 -302t71.5 -391.5q0 -283 -119.5 -457.5t-312.5 -174.5q-152 0 -250 106.5t-98 286.5q-73 -180 -279 -180q-174 0 -283.5 125
t-109.5 329q0 203 104 327t275 124q176 0 274 -129v100h197v-637q0 -131 49 -210t129 -79q98 0 159.5 124t61.5 317q0 240 -98 422.5t-276.5 281.5t-411.5 99q-225 0 -398.5 -89.5t-269.5 -254.5t-96 -381q0 -236 115 -416t325 -278.5t486 -98.5h176v-197h-172zM1067 346
q100 0 159.5 76.5t59.5 202.5v45q0 127 -59 202.5t-160 75.5q-102 0 -165.5 -81.5t-63.5 -215.5q0 -137 63.5 -221t165.5 -84z" />
    <glyph glyph-name="A" unicode="A" horiz-adv-x="1564" 
d="M55 0l617 1556h221l616 -1556h-223l-172 451h-663l-172 -451h-224zM524 649h516l-258 664z" />
    <glyph glyph-name="B" unicode="B" horiz-adv-x="1445" 
d="M197 0v1556h544q236 0 378.5 -105t142.5 -308q0 -110 -64 -195t-156 -112q121 -16 211 -125t90 -267q0 -207 -127 -325.5t-374 -118.5h-645zM399 918h303q170 0 263.5 54.5t93.5 162.5q0 110 -79.5 173.5t-240.5 63.5h-340v-454zM399 184h379q165 0 264 70.5t99 208.5
q0 125 -98.5 197.5t-282.5 72.5h-361v-549z" />
    <glyph glyph-name="C" unicode="C" horiz-adv-x="1646" 
d="M850 -33q-332 0 -534.5 222t-202.5 583q0 242 91.5 427t260.5 287.5t391 102.5q275 0 465 -163t227 -427h-213q-31 178 -166.5 287t-326.5 109q-233 0 -373.5 -169.5t-140.5 -447.5q0 -277 142 -446.5t376 -169.5q191 0 324.5 109.5t164.5 287.5h213
q-37 -265 -228 -428.5t-470 -163.5z" />
    <glyph glyph-name="D" unicode="D" horiz-adv-x="1572" 
d="M803 -2l-606 2l2 1556h567q162 0 290 -47.5t221 -142.5t143 -246t50 -350q0 -364 -167.5 -568.5t-499.5 -203.5zM401 195h361q231 0 362 146t131 439q0 275 -123.5 428.5t-369.5 153.5h-361v-1167z" />
    <glyph glyph-name="E" unicode="E" horiz-adv-x="1470" 
d="M399 197h875v-197h-1077v1556h1042v-196h-840v-442h758v-199h-758v-522z" />
    <glyph glyph-name="F" unicode="F" horiz-adv-x="1261" 
d="M1221 1360h-820v-442h719v-199h-719v-719h-204v1556h1024v-196z" />
    <glyph glyph-name="G" unicode="G" horiz-adv-x="1685" 
d="M911 -33q-178 0 -327 59t-252.5 164.5t-161 257t-57.5 332.5q0 180 53.5 331.5t150 256t234 163t301.5 58.5q274 0 465 -150.5t231 -396.5h-213q-35 159 -169.5 256t-321.5 97q-233 0 -374.5 -169.5t-141.5 -449.5q0 -277 160.5 -445.5t426.5 -168.5q130 0 249.5 49.5
t183.5 130.5v256h-543v199h743v-533q-91 -133 -266.5 -215t-370.5 -82z" />
    <glyph glyph-name="H" unicode="H" horiz-adv-x="1564" 
d="M1163 1556h205v-1556h-205v719h-762v-719h-204v1556h204v-638h762v638z" />
    <glyph glyph-name="I" unicode="I" horiz-adv-x="516" 
d="M156 0v1556h204v-1556h-204z" />
    <glyph glyph-name="J" unicode="J" horiz-adv-x="1208" 
d="M571 -33q-244 0 -381.5 127t-154.5 369h207q19 -152 96 -226.5t219 -74.5q68 0 117 15.5t80.5 56t49.5 82.5t27 123.5t11 150t2 188.5v778h209v-782q0 -115 -3 -192.5t-13.5 -169.5t-30.5 -152t-55.5 -120.5t-86 -95t-124.5 -56t-169 -21.5z" />
    <glyph glyph-name="K" unicode="K" horiz-adv-x="1366" 
d="M1311 0h-258l-652 719v-719h-204v1556h204v-704l621 704h258l-678 -761z" />
    <glyph glyph-name="L" unicode="L" horiz-adv-x="1253" 
d="M399 197h820v-197h-1022v1556h202v-1359z" />
    <glyph glyph-name="M" unicode="M" horiz-adv-x="1773" 
d="M197 0v1556h225l465 -1320l465 1320h225v-1556h-203v1108l-377 -1108h-221l-377 1108v-1108h-202z" />
    <glyph glyph-name="N" unicode="N" horiz-adv-x="1564" 
d="M197 0v1556h202l764 -1239v1239h205v-1556h-215l-752 1186v-1186h-204z" />
    <glyph glyph-name="O" unicode="O" horiz-adv-x="1724" 
d="M864 -33q-168 0 -308 59t-237.5 164.5t-151.5 256.5t-54 331t54 331t151.5 256.5t237.5 164.5t308 59q223 0 393 -101t262.5 -285.5t92.5 -424.5t-92.5 -424.5t-262.5 -285.5t-393 -101zM862 162q242 0 388.5 170t146.5 446t-146.5 446.5t-388.5 170.5t-388 -170
t-146 -447q0 -276 146 -446t388 -170z" />
    <glyph glyph-name="P" unicode="P" horiz-adv-x="1363" 
d="M197 0v1556h583q224 0 353 -110.5t129 -325.5q0 -199 -123.5 -313.5t-360.5 -114.5h-379v-692h-202zM399 877h338q152 0 237 61t85 184q0 117 -80 183.5t-242 66.5h-338v-495z" />
    <glyph glyph-name="Q" unicode="Q" horiz-adv-x="1724" 
d="M1612 778q0 -214 -75 -385t-212 -278l287 -250h-271l-180 158q-133 -56 -297 -56q-168 0 -308 59t-237.5 164.5t-151.5 256.5t-54 331t54 331t151.5 256.5t237.5 164.5t308 59q223 0 393 -101t262.5 -285.5t92.5 -424.5zM862 162q66 0 125 12l-264 232h270l172 -152
q110 79 171 215t61 309q0 276 -146.5 446.5t-388.5 170.5t-388 -170t-146 -447q0 -276 146 -446t388 -170z" />
    <glyph glyph-name="R" unicode="R" horiz-adv-x="1359" 
d="M197 0v1556h544q249 0 385 -103.5t136 -311.5q0 -93 -31 -163t-84.5 -114t-132.5 -72t-166.5 -38.5t-196.5 -10.5l674 -743h-254l-672 743v-743h-202zM399 918h367q77 0 141 23.5t107 75.5t43 126q0 107 -80 168t-242 61h-336v-454z" />
    <glyph glyph-name="S" unicode="S" horiz-adv-x="1370" 
d="M745 -33q-167 0 -296 42.5t-209 117.5t-123.5 169.5t-53.5 207.5h213q23 -99 69 -167.5t113 -107t144 -55t176 -16.5q157 0 245.5 58.5t88.5 174.5q0 49 -17.5 89t-42 65t-64 46t-68.5 31.5t-70 22.5q-5 1 -144.5 36.5t-226.5 66.5q-78 28 -132.5 58t-101 74t-70 106
t-23.5 142q0 99 33.5 179t88.5 131.5t128.5 86.5t149 49.5t155.5 14.5q261 0 407 -143t152 -377h-209q-8 96 -45 164t-93 102t-113 48t-122 14q-36 0 -72 -4t-83 -19.5t-82.5 -40t-60 -71t-24.5 -107.5q0 -83 45.5 -131.5t147.5 -85.5q25 -9 49.5 -17t41 -13t45 -12.5
t42 -10.5t51 -12t54.5 -13q135 -33 198 -60q270 -116 271 -386q0 -229 -139.5 -338t-422.5 -109z" />
    <glyph glyph-name="T" unicode="T" horiz-adv-x="1267" 
d="M1212 1360h-475v-1360h-205v1360h-477v196h1155z" />
    <glyph glyph-name="U" unicode="U" horiz-adv-x="1505" 
d="M782 -33q-88 0 -161.5 13.5t-129 37t-99.5 60.5t-75 77.5t-53 96t-35 107.5t-20 120.5t-9.5 126.5t-2.5 133v817h204v-806q0 -81 2.5 -138t11.5 -123t25 -110.5t44.5 -88.5t68 -70t97.5 -42t132 -16t132 16t97.5 42t68 70t44.5 88.5t25 110.5t11.5 123t2.5 138v806h205
v-817q0 -98 -4 -171.5t-18.5 -158.5t-39 -145.5t-68.5 -119.5t-105 -95.5t-150 -59t-201 -22.5z" />
    <glyph glyph-name="V" unicode="V" horiz-adv-x="1523" 
d="M651 0l-616 1556h229l498 -1312l498 1312h229l-617 -1556h-221z" />
    <glyph glyph-name="W" unicode="W" horiz-adv-x="2228" 
d="M467 0l-432 1556h229l316 -1312l403 1312h262l404 -1312l315 1312h229l-432 -1556h-223l-424 1343l-424 -1343h-223z" />
    <glyph glyph-name="X" unicode="X" horiz-adv-x="1388" 
d="M1333 0h-246l-393 621l-393 -621h-246l516 784l-485 772h246l362 -600l363 600h246l-486 -772z" />
    <glyph glyph-name="Y" unicode="Y" horiz-adv-x="1390" 
d="M592 0v539l-543 1017h234l413 -827l412 827h233l-544 -1017v-539h-205z" />
    <glyph glyph-name="Z" unicode="Z" horiz-adv-x="1335" 
d="M330 197h930v-197h-1170v197l846 1163h-825v196h1065l2 -196z" />
    <glyph glyph-name="bracketleft" unicode="[" horiz-adv-x="757" 
d="M686 1292h-311v-1372h311v-158h-489v1688h489v-158z" />
    <glyph glyph-name="backslash" unicode="\" horiz-adv-x="782" 
d="M764 -238h-178l-568 1794h179z" />
    <glyph glyph-name="bracketright" unicode="]" horiz-adv-x="757" 
d="M72 -238v158h311v1372h-311v158h489v-1688h-489z" />
    <glyph glyph-name="asciicircum" unicode="^" horiz-adv-x="985" 
d="M698 778l-204 582l-205 -582h-166l266 670h209l262 -670h-162z" />
    <glyph glyph-name="underscore" unicode="_" horiz-adv-x="1667" 
d="M219 -289v146h1229v-146h-1229z" />
    <glyph glyph-name="grave" unicode="`" horiz-adv-x="579" 
d="M35 1556h268l221 -358h-151z" />
    <glyph glyph-name="a" unicode="a" horiz-adv-x="1247" 
d="M451 -23q-101 0 -176 29t-116.5 77.5t-61 103.5t-19.5 116q0 154 121 244q72 56 199.5 83t359.5 27h57v62q0 217 -237 217q-128 0 -187 -50t-63 -120h-195q1 48 13.5 92.5t44.5 90.5t80.5 80t128.5 55.5t182 21.5t178 -22.5t135.5 -74t90 -143t30.5 -221.5v-383
q0 -73 21 -98t83 -25v-153h-41q-99 0 -165.5 45t-77.5 119h-2q-57 -76 -161.5 -124.5t-221.5 -48.5zM494 139q77 0 141.5 22.5t102.5 57t58.5 70.5t20.5 67v158h-67q-107 0 -185 -8.5t-148 -30t-106.5 -65t-36.5 -107.5q0 -77 56.5 -120.5t163.5 -43.5z" />
    <glyph glyph-name="b" unicode="b" horiz-adv-x="1232" 
d="M678 1108q220 0 354.5 -156t134.5 -411q0 -258 -132 -416t-349 -158q-107 0 -210.5 47t-158.5 121v-135h-190v1556h199v-626q63 82 158 130t194 48zM653 141q141 0 228.5 108.5t87.5 285.5q0 181 -87.5 291t-232.5 110q-146 0 -234.5 -96t-88.5 -254v-119
q0 -147 90 -236.5t237 -89.5z" />
    <glyph glyph-name="c" unicode="c" horiz-adv-x="1134" 
d="M578 -33q-122 0 -220.5 44t-161.5 121.5t-96.5 181t-33.5 225.5q0 256 134.5 412.5t374.5 156.5q205 0 336.5 -114t143.5 -300h-197q-42 242 -280 242q-152 0 -233 -107t-81 -290q0 -184 80.5 -292t233.5 -108q110 0 183.5 60t96.5 153h197q-8 -72 -42 -139t-91.5 -123
t-146.5 -89.5t-197 -33.5z" />
    <glyph glyph-name="d" unicode="d" horiz-adv-x="1247" 
d="M932 1556h198v-1556h-192v135q-55 -75 -158 -121.5t-209 -46.5q-217 0 -349 158t-132 416q0 255 135.5 411t356.5 156q99 0 193 -48t157 -130v626zM932 492v118q0 146 -89 235t-235 89q-145 0 -232 -107t-87 -284q0 -182 88.5 -292t234.5 -110q145 0 232.5 96.5
t87.5 254.5z" />
    <glyph glyph-name="e" unicode="e" horiz-adv-x="1134" 
d="M578 -33q-163 0 -280 76t-174.5 204.5t-57.5 293.5q0 254 134.5 410.5t368.5 156.5q214 0 350 -129.5t136 -341.5v-168l-787 -2q14 -153 93.5 -240.5t216.5 -87.5q106 0 180.5 53t99.5 119h197q-8 -57 -42 -115.5t-91 -110.5t-147 -85t-197 -33zM270 627h588
q0 152 -81.5 230.5t-209.5 78.5q-129 0 -213 -78.5t-84 -230.5z" />
    <glyph glyph-name="f" unicode="f" horiz-adv-x="638" 
d="M188 0v905h-143v170h143v166q0 174 70.5 261t228.5 87q69 0 129 -12v-164q-30 6 -65 6q-87 0 -125.5 -35t-38.5 -112v-197h219v-170h-219v-905h-199z" />
    <glyph glyph-name="g" unicode="g" horiz-adv-x="1232" 
d="M907 1075h199v-1005q0 -133 -24.5 -232.5t-66.5 -161.5t-105.5 -100.5t-134 -53t-159.5 -14.5q-213 0 -341.5 88t-168.5 277h199q25 -97 105 -143.5t198 -46.5q166 0 232.5 95.5t66.5 311.5v66q-118 -189 -360 -189q-151 0 -261 75.5t-165 206t-55 300.5q0 117 28 216.5
t83.5 177t147.5 121.5t212 44q252 0 370 -197v164zM907 492v118q0 147 -91.5 235.5t-235.5 88.5q-157 0 -242.5 -105.5t-85.5 -285.5q0 -184 87 -293t245 -109q147 0 235 93.5t88 257.5z" />
    <glyph glyph-name="h" unicode="h" horiz-adv-x="1191" 
d="M127 0v1556h199v-643q61 102 158.5 148.5t201.5 46.5q179 0 284 -120t105 -312v-676h-198v621q0 149 -63 232t-181 83q-130 0 -218.5 -95t-88.5 -255v-586h-199z" />
    <glyph glyph-name="i" unicode="i" horiz-adv-x="473" 
d="M127 1346v210h219v-210h-219zM137 0v1075h199v-1075h-199z" />
    <glyph glyph-name="j" unicode="j" horiz-adv-x="493" 
d="M147 1346v210h220v-210h-220zM57 -492q-31 0 -63.5 3t-49.5 7l-16 3v174q23 -6 66 -6q86 0 125 33.5t39 103.5v1249h198v-1239q0 -160 -71 -244t-228 -84z" />
    <glyph glyph-name="k" unicode="k" horiz-adv-x="993" 
d="M967 0h-230l-411 479v-479h-199v1556h199v-952l370 471h230l-422 -536z" />
    <glyph glyph-name="l" unicode="l" horiz-adv-x="452" 
d="M127 0v1556h199v-1556h-199z" />
    <glyph glyph-name="m" unicode="m" horiz-adv-x="1961" 
d="M1444 1108q183 0 282 -113.5t99 -339.5v-655h-199v641q0 87 -19 147.5t-53.5 91.5t-72.5 43.5t-86 12.5q-141 0 -230.5 -94t-89.5 -256v-586h-198v641q0 295 -232 295q-141 0 -230 -94t-89 -256v-586h-199v1075h199v-162q119 195 368 195q257 0 342 -215q149 215 408 215
z" />
    <glyph glyph-name="n" unicode="n" horiz-adv-x="1212" 
d="M127 0v1075h199v-162q61 102 158.5 148.5t201.5 46.5q179 0 284 -120t105 -312v-676h-198v621q0 149 -63 232t-181 83q-130 0 -218.5 -95t-88.5 -255v-586h-199z" />
    <glyph glyph-name="o" unicode="o" horiz-adv-x="1171" 
d="M588 -33q-231 0 -376.5 163.5t-145.5 408.5q0 251 144.5 410t377.5 159t375.5 -159t142.5 -410q0 -161 -63.5 -290.5t-182.5 -205.5t-272 -76zM586 139q153 0 237 108.5t84 291.5q0 182 -84 289.5t-237 107.5t-237.5 -107.5t-84.5 -289.5q0 -183 84.5 -291.5
t237.5 -108.5z" />
    <glyph glyph-name="p" unicode="p" horiz-adv-x="1232" 
d="M678 1108q220 0 354.5 -156t134.5 -411q0 -258 -132 -416t-349 -158q-106 0 -205 46.5t-155 121.5v-627h-199v1567h192v-145q63 81 161 129.5t198 48.5zM653 141q141 0 228.5 108.5t87.5 285.5q0 181 -87.5 291t-232.5 110q-146 0 -234.5 -96t-88.5 -254v-119
q0 -147 90 -236.5t237 -89.5z" />
    <glyph glyph-name="q" unicode="q" horiz-adv-x="1263" 
d="M913 1075h193v-1567h-199v627q-56 -75 -155 -121.5t-205 -46.5q-217 0 -349 158t-132 416q0 255 134.5 411t354.5 156q100 0 197.5 -48.5t160.5 -129.5v145zM907 492v118q0 146 -89.5 235t-237.5 89q-141 0 -228.5 -107.5t-87.5 -283.5q0 -182 87.5 -292t232.5 -110
q146 0 234.5 96.5t88.5 254.5z" />
    <glyph glyph-name="r" unicode="r" horiz-adv-x="718" 
d="M127 0v1075h188v-203q33 64 83.5 116t109.5 79q76 35 197 35v-207h-43q-143 0 -239.5 -100t-96.5 -263v-532h-199z" />
    <glyph glyph-name="s" unicode="s" horiz-adv-x="1079" 
d="M594 -33q-130 0 -229 30t-160.5 83.5t-94.5 121t-40 150.5h196q27 -121 109 -170t231 -49q93 0 146 37.5t53 112.5q0 30 -13 55t-32 41.5t-50.5 31t-58 22.5t-63.5 18q-50 13 -78 20t-71.5 19t-67.5 21t-59 23t-54.5 27.5t-44 31.5t-37.5 37.5t-26 43.5t-18.5 52.5
t-6.5 61.5q-1 84 34 147.5t98 100.5t140 54.5t168 17.5q190 0 296 -98t112 -262h-197q-10 107 -74 150.5t-151 43.5q-234 0 -234 -141q0 -30 12 -52.5t32 -39t60.5 -31.5t83 -26t113.5 -27l58.5 -13.5t57.5 -15.5t58.5 -19.5t52.5 -24.5t50.5 -32t40.5 -39t33.5 -49.5
t19.5 -61t8 -73.5q0 -330 -403 -330z" />
    <glyph glyph-name="t" unicode="t" horiz-adv-x="696" 
d="M514 -20q-179 0 -254.5 75t-75.5 232v618h-143v150q91 0 122.5 41t31.5 141v115h188v-277h240v-170h-240v-577q0 -103 39.5 -140.5t140.5 -37.5q39 0 70 2v-166q-71 -6 -119 -6z" />
    <glyph glyph-name="u" unicode="u" horiz-adv-x="1173" 
d="M479 -33q-183 0 -282 113.5t-99 339.5v655h199v-641q0 -87 19 -147.5t53.5 -91.5t72.5 -43.5t86 -12.5q141 0 230.5 94t89.5 256v586h199v-1075h-199v182q-114 -215 -369 -215z" />
    <glyph glyph-name="v" unicode="v" horiz-adv-x="1062" 
d="M436 0l-409 1075h219l241 -715l43 -116h5l40 116l242 715h219l-409 -1075h-191z" />
    <glyph glyph-name="w" unicode="w" horiz-adv-x="1792" 
d="M436 0l-409 1075h219l284 -831h5l251 831h220l254 -831h4l282 831h219l-409 -1075h-191l-266 852h-4l-268 -852h-191z" />
    <glyph glyph-name="x" unicode="x" horiz-adv-x="972" 
d="M946 1075l-340 -536l340 -539h-223l-236 391l-237 -391h-223l340 539l-340 536h223l229 -401l244 401h223z" />
    <glyph glyph-name="y" unicode="y" horiz-adv-x="1062" 
d="M266 -492l170 492l-409 1075h219l248 -737l36 -100h5l36 100l246 737h219l-377 -979l-200 -588h-193z" />
    <glyph glyph-name="z" unicode="z" horiz-adv-x="1110" 
d="M299 170h754v-170h-985v170l712 735h-702v170h932l2 -170z" />
    <glyph glyph-name="braceleft" unicode="{" horiz-adv-x="679" 
d="M522 -238q-60 0 -107.5 12t-80.5 32t-56.5 53t-37.5 67.5t-22.5 83.5t-11.5 93.5t-3 103.5q-2 212 -19.5 256.5t-107.5 44.5v192q90 0 107.5 44.5t19.5 256.5q0 59 3 103.5t11.5 93.5t22.5 83.5t37.5 67.5t56.5 53t80.5 32t107.5 12h88v-148h-63q-36 0 -65.5 -8.5
t-49.5 -27.5t-35.5 -40t-24.5 -54t-15 -61t-8.5 -70t-4 -72t-2.5 -76.5t-2 -73.5q-5 -98 -28 -140t-97 -61v-20q75 -19 97.5 -61t27.5 -140q1 -27 2.5 -84.5t3 -87.5t6.5 -79.5t12.5 -76.5t22.5 -61t36 -51.5t52.5 -30t71.5 -12.5h63v-148h-88z" />
    <glyph glyph-name="bar" unicode="|" horiz-adv-x="669" 
d="M236 -492v2048h198v-2048h-198z" />
    <glyph glyph-name="braceright" unicode="}" horiz-adv-x="679" 
d="M158 -238h-88v148h63q40 0 71.5 12.5t52.5 30.5t35.5 51t22.5 61.5t12.5 76t6 79.5t3 87t3.5 85q5 98 27.5 140t97.5 61v20q-74 19 -97 61t-28 140q-1 27 -2 73.5t-2.5 76.5t-4 72t-8.5 70t-15 61t-24.5 54t-35.5 40t-49.5 27.5t-65.5 8.5h-63v148h88q60 0 107.5 -12
t80.5 -32t56.5 -53t37.5 -67.5t22.5 -83.5t11.5 -93.5t3 -103.5q2 -212 19.5 -256.5t107.5 -44.5v-192q-90 0 -107.5 -44.5t-19.5 -256.5q0 -59 -3 -103.5t-11.5 -93.5t-22.5 -83.5t-37.5 -67.5t-56.5 -53t-80.5 -32t-107.5 -12z" />
    <glyph glyph-name="asciitilde" unicode="~" horiz-adv-x="1386" 
d="M907 612q-56 0 -105.5 20t-85.5 49t-68.5 57.5t-68.5 48.5t-73 20q-50 0 -91.5 -35t-41.5 -117v-32h-137v30q0 118 72.5 199.5t193.5 81.5q57 0 107 -20t86 -49t69 -57.5t71 -48.5t76 -20q103 0 103 140v24h137v-20q0 -111 -62 -191t-182 -80z" />
    <glyph glyph-name="exclamdown" unicode="&#xa1;" horiz-adv-x="552" 
d="M156 1325v231h241v-231h-241zM178 0v1153h199v-1153h-199z" />
    <glyph glyph-name="cent" unicode="&#xa2;" horiz-adv-x="1042" 
d="M403 0v217q-162 40 -249.5 177t-87.5 329q0 195 87.5 329t249.5 173v219h220v-213q148 -25 239.5 -124t100.5 -245h-179q-39 219 -254 219q-138 0 -211 -96.5t-73 -261.5q0 -168 72.5 -265.5t211.5 -97.5q100 0 166.5 54.5t87.5 138.5h179q-13 -122 -101.5 -219.5
t-238.5 -122.5v-211h-220z" />
    <glyph glyph-name="sterling" unicode="&#xa3;" horiz-adv-x="1155" 
d="M63 -2v176q53 5 117 36.5t121.5 80.5t96 118.5t38.5 141.5q0 54 -22 106h-348v156h241q-44 53 -60.5 74.5t-47 68.5t-42.5 90t-12 91q0 33 6 65t23 70t44 71t72 64.5t103 54t142 36t184 13.5q171 0 297 -49v-164q-141 58 -287 58q-52 0 -103.5 -6.5t-104.5 -23.5
t-93.5 -42.5t-66 -67.5t-25.5 -94q0 -37 17.5 -78.5t37 -70t59.5 -81t58 -79.5h432v-156h-352q22 -64 22 -133q0 -133 -73 -232.5t-164 -117.5v-4h747v-172h-1057z" />
    <glyph glyph-name="currency" unicode="&#xa4;" horiz-adv-x="1308" 
d="M221 133l-155 156l163 164q-65 118 -65 274q0 155 61 268l-159 160l155 156l148 -148q116 80 268 80q169 0 289 -96l161 164l156 -156l-182 -184q47 -109 47 -244t-51 -252l184 -186l-154 -156l-167 168q-121 -94 -283 -94q-149 0 -262 80zM635 365q139 0 216 97.5
t77 264.5q0 164 -77 261t-216 97q-137 0 -214 -97t-77 -261q0 -167 76.5 -264.5t214.5 -97.5z" />
    <glyph glyph-name="yen" unicode="&#xa5;" horiz-adv-x="1476" 
d="M1427 1483l-526 -858h225v-131h-295v-115h295v-131h-295v-248h-186v248h-293v131h293v115h-293v131h223l-526 858h211l479 -797l478 797h210z" />
    <glyph glyph-name="brokenbar" unicode="&#xa6;" horiz-adv-x="669" 
d="M236 727v836h198v-836h-198zM236 -492v912h198v-912h-198z" />
    <glyph glyph-name="section" unicode="&#xa7;" horiz-adv-x="1120" 
d="M868 403q79 -33 124.5 -96t45.5 -145q0 -138 -124 -227t-324 -89q-218 0 -362.5 105.5t-157.5 279.5h196q22 -98 108.5 -158.5t219.5 -60.5q107 0 179.5 37.5t72.5 97.5q0 25 -13 47.5t-38.5 40.5t-52.5 32.5t-65.5 27.5t-65.5 21t-64 18q-51 13 -80.5 21t-83 25.5
t-86.5 33.5t-75 43t-66 56t-41 69t-17 86q0 79 45 144.5t119 98.5q-74 29 -119 91.5t-45 146.5q0 138 120 227.5t312 89.5q215 0 346 -114t142 -299h-197q-14 115 -93 181t-204 66q-102 0 -167.5 -40t-65.5 -97q0 -113 307 -180q440 -91 440 -330q0 -82 -46.5 -149
t-123.5 -101zM291 700q0 -72 85.5 -127.5t221.5 -68.5q120 -12 184 18t64 92q0 73 -86.5 129t-212.5 70q-116 14 -186 -17.5t-70 -95.5z" />
    <glyph glyph-name="dieresis" unicode="&#xa8;" horiz-adv-x="882" 
d="M195 1372v184h170v-184h-170zM518 1372v184h170v-184h-170z" />
    <glyph glyph-name="copyright" unicode="&#xa9;" horiz-adv-x="1564" 
d="M782 254q-301 0 -485 184.5t-184 485.5t184 485t485 184t485.5 -184t184.5 -485t-184.5 -485.5t-485.5 -184.5zM782 332q267 0 429.5 163t162.5 429q0 267 -162.5 429.5t-429.5 162.5q-266 0 -429 -162.5t-163 -429.5q0 -266 163 -429t429 -163zM807 559
q-151 0 -240.5 100t-89.5 265q0 164 88 265t234 101q122 0 203.5 -70.5t87.5 -185.5h-89q-13 76 -69.5 123t-134.5 47q-103 0 -166.5 -77t-63.5 -203t63.5 -202.5t170.5 -76.5q78 0 133.5 38.5t66.5 100.5h89q1 -98 -79.5 -161.5t-203.5 -63.5z" />
    <glyph glyph-name="guillemotleft" unicode="&#xab;" horiz-adv-x="1157" 
d="M645 997l-369 -454l369 -455h-213l-369 455l369 454h213zM1096 997l-369 -454l369 -455h-213l-369 455l369 454h213z" />
    <glyph glyph-name="logicalnot" unicode="&#xac;" horiz-adv-x="1146" 
d="M907 61v404h-805v137h942v-541h-137z" />
    <glyph glyph-name="registered" unicode="&#xae;" horiz-adv-x="1095" 
d="M549 733q-197 0 -316.5 119.5t-119.5 316.5q0 198 119.5 318.5t316.5 120.5q195 0 314.5 -120.5t119.5 -318.5q0 -196 -119.5 -316t-314.5 -120zM549 803q166 0 268.5 101t102.5 265q0 167 -102.5 268t-268.5 101q-168 0 -270.5 -101t-102.5 -268q0 -164 103 -265
t270 -101zM410 961v423h149q62 0 102.5 -29t40.5 -95q0 -58 -35.5 -86t-109.5 -31l168 -182h-86l-164 180v-180h-65zM475 1200h82q78 0 78 60q0 63 -78 63h-82v-123z" />
    <glyph glyph-name="macron" unicode="&#xaf;" horiz-adv-x="970" 
d="M725 1317h-655v158h655v-158z" />
    <glyph glyph-name="degree" unicode="&#xb0;" horiz-adv-x="866" 
d="M434 1100q-110 0 -178 67t-68 176q0 110 68 178t178 68q109 0 175.5 -68t66.5 -178q0 -109 -66.5 -176t-175.5 -67zM434 1198q60 0 96.5 39.5t36.5 105.5t-36.5 106t-96.5 40q-61 0 -98 -40t-37 -106t37 -105.5t98 -39.5z" />
    <glyph glyph-name="plusminus" unicode="&#xb1;" horiz-adv-x="1148" 
d="M104 0v137h400v324h-402v137h402v401h137v-401h403v-137h-403v-324h406v-137h-943z" />
    <glyph glyph-name="uni00B2" unicode="&#xb2;" horiz-adv-x="800" 
d="M96 694v140q272 173 353 239q74 62 106.5 115t32.5 108q0 70 -48.5 110t-133.5 40q-94 0 -150.5 -52t-56.5 -149q0 -50 10 -92h-141q-11 49 -11 94q0 152 91 238t260 86q157 0 241 -72.5t84 -198.5q0 -82 -39.5 -151.5t-124.5 -144.5q-76 -68 -247 -170h421v-140h-647z
" />
    <glyph glyph-name="uni00B3" unicode="&#xb3;" horiz-adv-x="817" 
d="M401 678q-142 0 -231.5 57.5t-112.5 165.5h146q35 -100 203 -100q215 0 215 160q0 82 -59 121.5t-193 39.5h-99v119l265 180h-420v131h581v-149l-256 -172h13q141 0 223.5 -71t83.5 -199q0 -57 -19 -106t-59.5 -89.5t-112 -64t-168.5 -23.5z" />
    <glyph glyph-name="acute" unicode="&#xb4;" horiz-adv-x="579" 
d="M293 1556l-338 -358h-152l222 358h268z" />
    <glyph glyph-name="paragraph" unicode="&#xb6;" horiz-adv-x="1550" 
d="M1024 0h-199v700h-260q-436 0 -436 424q0 432 457 432h438v-1556zM1190 0v1556h205v-1556h-205z" />
    <glyph glyph-name="periodcentered" unicode="&#xb7;" horiz-adv-x="446" 
d="M102 420v231h242v-231h-242z" />
    <glyph glyph-name="cedilla" unicode="&#xb8;" horiz-adv-x="530" 
d="M231 -104h29q73 0 118.5 -37t45.5 -97q0 -70 -53.5 -112.5t-141.5 -42.5h-116v96h104q42 0 67 15.5t25 41.5q0 23 -25.5 37.5t-66.5 14.5h-84v84l139 153h117z" />
    <glyph glyph-name="uni00B9" unicode="&#xb9;" horiz-adv-x="438" 
d="M201 696v719h-170v137h307v-856h-137z" />
    <glyph glyph-name="guillemotright" unicode="&#xbb;" horiz-adv-x="1157" 
d="M61 88l369 455l-369 454h213l369 -454l-369 -455h-213zM512 88l369 455l-369 454h213l369 -454l-369 -455h-213z" />
    <glyph glyph-name="onequarter" unicode="&#xbc;" horiz-adv-x="1626" 
d="M176 -33l944 1622h152l-944 -1622h-152zM201 700v715h-170v141h311v-856h-141zM1526 311v-137h-162v-174h-137v174h-383v150l307 532h154l-308 -545h230v203h137v-203h162z" />
    <glyph glyph-name="onehalf" unicode="&#xbd;" horiz-adv-x="1654" 
d="M176 -33l944 1622h152l-944 -1622h-152zM201 700v715h-170v141h311v-856h-141zM907 -2v139q267 169 353 240q139 116 139 221q0 72 -48 112t-132 40q-94 0 -151.5 -51.5t-57.5 -143.5q0 -13 10 -68h-141q-11 45 -11 72q0 145 91 230t262 85q155 0 239 -73t84 -197
q0 -82 -39.5 -152t-124.5 -145q-75 -67 -247 -170h421v-139h-647z" />
    <glyph glyph-name="threequarters" unicode="&#xbe;" horiz-adv-x="1845" 
d="M438 -33l944 1622h152l-944 -1622h-152zM401 680q-142 0 -231.5 57.5t-112.5 165.5h146q35 -100 203 -100q215 0 215 160q0 82 -59 121.5t-193 39.5h-99v119l265 180h-420v131h581v-147l-256 -174h13q141 0 223.5 -71t83.5 -199q0 -57 -19 -106t-59.5 -89.5t-112 -64
t-168.5 -23.5zM1788 311v-137h-162v-174h-137v174h-383v150l307 532h154l-307 -545h229v203h137v-203h162z" />
    <glyph glyph-name="questiondown" unicode="&#xbf;" horiz-adv-x="1169" 
d="M762 1556v-231h-242v231h242zM735 1192v-35q0 -130 -39 -223t-139 -184q-18 -17 -64.5 -56t-71 -63t-56 -62.5t-46 -80.5t-14.5 -89q0 -109 77.5 -178t201.5 -69q146 0 226 96.5t67 261.5h192q19 -244 -116.5 -393.5t-374.5 -149.5q-212 0 -342 118.5t-130 311.5
q0 62 15.5 117t37.5 93.5t59 79t66 65.5t73.5 61.5t68.5 58.5q58 53 81.5 100t31.5 115q6 49 6 105h190z" />
    <glyph glyph-name="Agrave" unicode="&#xc0;" horiz-adv-x="1564" 
d="M537 2038h268l221 -359h-152zM55 0l617 1556h221l616 -1556h-223l-172 451h-663l-172 -451h-224zM524 649h516l-258 664z" />
    <glyph glyph-name="Aacute" unicode="&#xc1;" horiz-adv-x="1564" 
d="M1026 2038l-338 -359h-151l221 359h268zM55 0l617 1556h221l616 -1556h-223l-172 451h-663l-172 -451h-224zM524 649h516l-258 664z" />
    <glyph glyph-name="Acircumflex" unicode="&#xc2;" horiz-adv-x="1564" 
d="M1137 1679h-152l-203 238l-204 -238h-152l242 359h227zM55 0l617 1556h221l616 -1556h-223l-172 451h-663l-172 -451h-224zM524 649h516l-258 664z" />
    <glyph glyph-name="Atilde" unicode="&#xc3;" horiz-adv-x="1564" 
d="M647 1997q41 0 79 -20t61.5 -43.5t52.5 -43.5t55 -20q34 0 56 32t22 85h141q0 -130 -55 -198.5t-144 -68.5q-38 0 -71 13.5t-56 32t-42.5 37.5t-40.5 32.5t-41 13.5q-34 0 -54 -32t-20 -86h-141q0 116 56 191t142 75zM55 0l617 1556h221l616 -1556h-223l-172 451h-663
l-172 -451h-224zM524 649h516l-258 664z" />
    <glyph glyph-name="Adieresis" unicode="&#xc4;" horiz-adv-x="1564" 
d="M535 1853v185h170v-185h-170zM858 1853v185h170v-185h-170zM55 0l617 1556h221l616 -1556h-223l-172 451h-663l-172 -451h-224zM524 649h516l-258 664z" />
    <glyph glyph-name="Aring" unicode="&#xc5;" horiz-adv-x="1564" 
d="M782 1718q-80 0 -128 48t-48 128q0 77 48.5 123.5t127.5 46.5t127.5 -46.5t48.5 -123.5q0 -80 -48 -128t-128 -48zM782 1817q34 0 55 20.5t21 54.5t-21 54t-55 20t-54.5 -20t-20.5 -54t20.5 -54.5t54.5 -20.5zM55 0l617 1556h221l616 -1556h-223l-172 451h-663l-172 -451
h-224zM524 649h516l-258 664z" />
    <glyph glyph-name="AE" unicode="&#xc6;" horiz-adv-x="2385" 
d="M1321 209h868v-209h-1077v444h-606l-221 -444h-230l772 1556h1327v-208h-833v-424h752v-209h-752v-506zM950 1348l-342 -693h504v693h-162z" />
    <glyph glyph-name="Ccedilla" unicode="&#xc7;" horiz-adv-x="1646" 
d="M846 162q191 0 324.5 109.5t164.5 287.5h213q-37 -262 -224 -425t-460 -167l-73 -71h28q73 0 118.5 -37t45.5 -97q0 -70 -53.5 -112.5t-141.5 -42.5h-116v96h104q42 0 67 15.5t25 41.5q0 23 -25.5 37.5t-66.5 14.5h-84v84l70 75q-297 31 -473 248t-176 553
q0 242 91.5 427t260.5 287.5t391 102.5q275 0 465 -163t227 -427h-213q-31 178 -166.5 287t-326.5 109q-233 0 -373.5 -169.5t-140.5 -447.5q0 -277 142 -446.5t376 -169.5z" />
    <glyph glyph-name="Egrave" unicode="&#xc8;" horiz-adv-x="1470" 
d="M489 2038h269l221 -359h-152zM399 197h875v-197h-1077v1556h1042v-196h-840v-442h758v-199h-758v-522z" />
    <glyph glyph-name="Eacute" unicode="&#xc9;" horiz-adv-x="1470" 
d="M979 2038l-338 -359h-152l222 359h268zM399 197h875v-197h-1077v1556h1042v-196h-840v-442h758v-199h-758v-522z" />
    <glyph glyph-name="Ecircumflex" unicode="&#xca;" horiz-adv-x="1470" 
d="M1090 1679h-152l-203 238l-205 -238h-151l242 359h227zM399 197h875v-197h-1077v1556h1042v-196h-840v-442h758v-199h-758v-522z" />
    <glyph glyph-name="Edieresis" unicode="&#xcb;" horiz-adv-x="1470" 
d="M487 1853v185h170v-185h-170zM811 1853v185h170v-185h-170zM399 197h875v-197h-1077v1556h1042v-196h-840v-442h758v-199h-758v-522z" />
    <glyph glyph-name="Igrave" unicode="&#xcc;" horiz-adv-x="516" 
d="M10 2038h269l221 -359h-152zM156 0v1556h204v-1556h-204z" />
    <glyph glyph-name="Iacute" unicode="&#xcd;" horiz-adv-x="516" 
d="M500 2038l-338 -359h-152l221 359h269zM156 0v1556h204v-1556h-204z" />
    <glyph glyph-name="Icircumflex" unicode="&#xce;" horiz-adv-x="516" 
d="M610 1679h-151l-203 238l-205 -238h-151l241 359h228zM156 0v1556h204v-1556h-204z" />
    <glyph glyph-name="Idieresis" unicode="&#xcf;" horiz-adv-x="516" 
d="M8 1853v185h170v-185h-170zM332 1853v185h170v-185h-170zM156 0v1556h204v-1556h-204z" />
    <glyph glyph-name="Eth" unicode="&#xd0;" horiz-adv-x="1572" 
d="M766 1556q162 0 290 -47.5t221 -142.5t143 -246t50 -350q0 -364 -167.5 -568.5t-499.5 -203.5l-606 2v698h-138v158h140v700h567zM762 195q231 0 362 146t131 439q0 275 -123.5 428.5t-369.5 153.5h-361v-506h314v-158h-314v-503h361z" />
    <glyph glyph-name="Ntilde" unicode="&#xd1;" horiz-adv-x="1564" 
d="M643 1997q41 0 79 -20t61.5 -43.5t52.5 -43.5t55 -20q34 0 56 32t22 85h141q0 -130 -55 -198.5t-144 -68.5q-38 0 -71 13.5t-56 32t-43 37.5t-41 32.5t-41 13.5q-34 0 -53.5 -32t-19.5 -86h-142q0 115 56.5 190.5t142.5 75.5zM197 0v1556h202l764 -1239v1239h205v-1556
h-215l-752 1186v-1186h-204z" />
    <glyph glyph-name="Ograve" unicode="&#xd2;" horiz-adv-x="1724" 
d="M616 2038h269l221 -359h-152zM864 -33q-168 0 -308 59t-237.5 164.5t-151.5 256.5t-54 331t54 331t151.5 256.5t237.5 164.5t308 59q223 0 393 -101t262.5 -285.5t92.5 -424.5t-92.5 -424.5t-262.5 -285.5t-393 -101zM862 162q242 0 388.5 170t146.5 446t-146.5 446.5
t-388.5 170.5t-388 -170t-146 -447q0 -276 146 -446t388 -170z" />
    <glyph glyph-name="Oacute" unicode="&#xd3;" horiz-adv-x="1724" 
d="M1106 2038l-338 -359h-152l222 359h268zM864 -33q-168 0 -308 59t-237.5 164.5t-151.5 256.5t-54 331t54 331t151.5 256.5t237.5 164.5t308 59q223 0 393 -101t262.5 -285.5t92.5 -424.5t-92.5 -424.5t-262.5 -285.5t-393 -101zM862 162q242 0 388.5 170t146.5 446
t-146.5 446.5t-388.5 170.5t-388 -170t-146 -447q0 -276 146 -446t388 -170z" />
    <glyph glyph-name="Ocircumflex" unicode="&#xd4;" horiz-adv-x="1724" 
d="M1217 1679h-152l-203 238l-205 -238h-151l242 359h227zM864 -33q-168 0 -308 59t-237.5 164.5t-151.5 256.5t-54 331t54 331t151.5 256.5t237.5 164.5t308 59q223 0 393 -101t262.5 -285.5t92.5 -424.5t-92.5 -424.5t-262.5 -285.5t-393 -101zM862 162q242 0 388.5 170
t146.5 446t-146.5 446.5t-388.5 170.5t-388 -170t-146 -447q0 -276 146 -446t388 -170z" />
    <glyph glyph-name="Otilde" unicode="&#xd5;" horiz-adv-x="1724" 
d="M727 1997q41 0 79 -20t61.5 -43.5t52.5 -43.5t55 -20q34 0 56 32t22 85h141q0 -130 -55 -198.5t-144 -68.5q-38 0 -71 13.5t-56 32t-43 37.5t-41 32.5t-41 13.5q-34 0 -53.5 -32t-19.5 -86h-142q0 115 56.5 190.5t142.5 75.5zM864 -33q-168 0 -308 59t-237.5 164.5
t-151.5 256.5t-54 331t54 331t151.5 256.5t237.5 164.5t308 59q223 0 393 -101t262.5 -285.5t92.5 -424.5t-92.5 -424.5t-262.5 -285.5t-393 -101zM862 162q242 0 388.5 170t146.5 446t-146.5 446.5t-388.5 170.5t-388 -170t-146 -447q0 -276 146 -446t388 -170z" />
    <glyph glyph-name="Odieresis" unicode="&#xd6;" horiz-adv-x="1724" 
d="M614 1853v185h170v-185h-170zM938 1853v185h170v-185h-170zM864 -33q-168 0 -308 59t-237.5 164.5t-151.5 256.5t-54 331t54 331t151.5 256.5t237.5 164.5t308 59q223 0 393 -101t262.5 -285.5t92.5 -424.5t-92.5 -424.5t-262.5 -285.5t-393 -101zM862 162
q242 0 388.5 170t146.5 446t-146.5 446.5t-388.5 170.5t-388 -170t-146 -447q0 -276 146 -446t388 -170z" />
    <glyph glyph-name="multiply" unicode="&#xd7;" horiz-adv-x="968" 
d="M866 244l-96 -99l-287 287l-284 -287l-97 99l285 284l-285 285l99 96l282 -282l285 282l96 -96l-282 -285z" />
    <glyph glyph-name="Oslash" unicode="&#xd8;" horiz-adv-x="1724" 
d="M1356 1415q123 -107 189.5 -271t66.5 -366q0 -240 -92.5 -424.5t-262.5 -285.5t-393 -101q-208 0 -372 88l-111 -174h-178l166 260q-123 108 -189.5 271.5t-66.5 365.5q0 180 54 331t151.5 256.5t237.5 164.5t308 59q205 0 369 -88l110 174h179zM328 778q0 -287 155 -456
l641 1007q-117 66 -262 66q-242 0 -388 -170t-146 -447zM862 162q242 0 388.5 170t146.5 446q0 287 -156 457l-641 -1008q115 -65 262 -65z" />
    <glyph glyph-name="Ugrave" unicode="&#xd9;" horiz-adv-x="1505" 
d="M532 2038h269l221 -359h-152zM782 -33q-88 0 -161.5 13.5t-129 37t-99.5 60.5t-75 77.5t-53 96t-35 107.5t-20 120.5t-9.5 126.5t-2.5 133v817h204v-806q0 -81 2.5 -138t11.5 -123t25 -110.5t44.5 -88.5t68 -70t97.5 -42t132 -16t132 16t97.5 42t68 70t44.5 88.5
t25 110.5t11.5 123t2.5 138v806h205v-817q0 -98 -4 -171.5t-18.5 -158.5t-39 -145.5t-68.5 -119.5t-105 -95.5t-150 -59t-201 -22.5z" />
    <glyph glyph-name="Uacute" unicode="&#xda;" horiz-adv-x="1505" 
d="M1022 2038l-338 -359h-152l222 359h268zM782 -33q-88 0 -161.5 13.5t-129 37t-99.5 60.5t-75 77.5t-53 96t-35 107.5t-20 120.5t-9.5 126.5t-2.5 133v817h204v-806q0 -81 2.5 -138t11.5 -123t25 -110.5t44.5 -88.5t68 -70t97.5 -42t132 -16t132 16t97.5 42t68 70
t44.5 88.5t25 110.5t11.5 123t2.5 138v806h205v-817q0 -98 -4 -171.5t-18.5 -158.5t-39 -145.5t-68.5 -119.5t-105 -95.5t-150 -59t-201 -22.5z" />
    <glyph glyph-name="Ucircumflex" unicode="&#xdb;" horiz-adv-x="1505" 
d="M1133 1679h-152l-203 238l-205 -238h-151l242 359h227zM782 -33q-88 0 -161.5 13.5t-129 37t-99.5 60.5t-75 77.5t-53 96t-35 107.5t-20 120.5t-9.5 126.5t-2.5 133v817h204v-806q0 -81 2.5 -138t11.5 -123t25 -110.5t44.5 -88.5t68 -70t97.5 -42t132 -16t132 16t97.5 42
t68 70t44.5 88.5t25 110.5t11.5 123t2.5 138v806h205v-817q0 -98 -4 -171.5t-18.5 -158.5t-39 -145.5t-68.5 -119.5t-105 -95.5t-150 -59t-201 -22.5z" />
    <glyph glyph-name="Udieresis" unicode="&#xdc;" horiz-adv-x="1505" 
d="M530 1853v185h170v-185h-170zM854 1853v185h170v-185h-170zM782 -33q-88 0 -161.5 13.5t-129 37t-99.5 60.5t-75 77.5t-53 96t-35 107.5t-20 120.5t-9.5 126.5t-2.5 133v817h204v-806q0 -81 2.5 -138t11.5 -123t25 -110.5t44.5 -88.5t68 -70t97.5 -42t132 -16t132 16
t97.5 42t68 70t44.5 88.5t25 110.5t11.5 123t2.5 138v806h205v-817q0 -98 -4 -171.5t-18.5 -158.5t-39 -145.5t-68.5 -119.5t-105 -95.5t-150 -59t-201 -22.5z" />
    <glyph glyph-name="Yacute" unicode="&#xdd;" horiz-adv-x="1390" 
d="M940 2038l-338 -359h-151l221 359h268zM592 0v539l-543 1017h234l413 -827l412 827h233l-544 -1017v-539h-205z" />
    <glyph glyph-name="Thorn" unicode="&#xde;" horiz-adv-x="1363" 
d="M723 1233q62 0 112.5 -3.5t108 -15t101.5 -30.5t86.5 -52t70 -78t44 -110.5t16.5 -146.5q0 -80 -16 -144t-43 -108t-68 -76.5t-84 -51t-98.5 -30t-104.5 -15t-109 -3.5h-333v-369h-209v1556h209v-323h317zM719 573q33 0 52 0.5t50 2.5t50.5 6t45 12t41.5 19t34 28.5
t27.5 39t16 52t6.5 66.5q0 37 -6.5 67t-16.5 52.5t-28 39.5t-34 28.5t-42 19t-45 11.5t-50 6t-50 2.5t-51 0.5h-313v-453h313z" />
    <glyph glyph-name="germandbls" unicode="&#xdf;" horiz-adv-x="1325" 
d="M979 668q51 -27 84 -48t70.5 -52.5t59 -63.5t36 -78t14.5 -100q0 -154 -98 -256.5t-275 -102.5q-95 0 -172.5 31.5t-127.5 85.5t-78 122t-33 146h196q20 -101 80 -160t144 -59q80 0 126 52t46 126q0 44 -16.5 78.5t-53 62t-67.5 44.5t-88 43q-6 3 -9 4q-65 30 -106.5 54
t-81.5 57t-59 72.5t-19 88.5q0 53 24 102.5t58.5 87.5t68.5 74.5t58 78.5t24 85q0 71 -61 118.5t-170 47.5q-60 0 -104 -17t-67 -40.5t-36.5 -59t-16.5 -62.5t-3 -61v-1169h-199v1180q0 87 24.5 159.5t74.5 129t133.5 88.5t193.5 32q197 0 313.5 -94.5t116.5 -245.5
q0 -64 -23 -123t-55.5 -100.5t-64.5 -76.5t-55 -66t-23 -54q0 -9 3 -17.5t10 -17t14 -16t20.5 -16.5t24.5 -16t30.5 -17.5t34 -18t39 -20.5t41.5 -22z" />
    <glyph glyph-name="agrave" unicode="&#xe0;" horiz-adv-x="1247" 
d="M344 1556h268l222 -358h-152zM451 -23q-101 0 -176 29t-116.5 77.5t-61 103.5t-19.5 116q0 154 121 244q72 56 199.5 83t359.5 27h57v62q0 217 -237 217q-128 0 -187 -50t-63 -120h-195q1 48 13.5 92.5t44.5 90.5t80.5 80t128.5 55.5t182 21.5t178 -22.5t135.5 -74
t90 -143t30.5 -221.5v-383q0 -73 21 -98t83 -25v-153h-41q-99 0 -165.5 45t-77.5 119h-2q-57 -76 -161.5 -124.5t-221.5 -48.5zM494 139q77 0 141.5 22.5t102.5 57t58.5 70.5t20.5 67v158h-67q-107 0 -185 -8.5t-148 -30t-106.5 -65t-36.5 -107.5q0 -77 56.5 -120.5
t163.5 -43.5z" />
    <glyph glyph-name="aacute" unicode="&#xe1;" horiz-adv-x="1247" 
d="M834 1556l-338 -358h-152l221 358h269zM451 -23q-101 0 -176 29t-116.5 77.5t-61 103.5t-19.5 116q0 154 121 244q72 56 199.5 83t359.5 27h57v62q0 217 -237 217q-128 0 -187 -50t-63 -120h-195q1 48 13.5 92.5t44.5 90.5t80.5 80t128.5 55.5t182 21.5t178 -22.5
t135.5 -74t90 -143t30.5 -221.5v-383q0 -73 21 -98t83 -25v-153h-41q-99 0 -165.5 45t-77.5 119h-2q-57 -76 -161.5 -124.5t-221.5 -48.5zM494 139q77 0 141.5 22.5t102.5 57t58.5 70.5t20.5 67v158h-67q-107 0 -185 -8.5t-148 -30t-106.5 -65t-36.5 -107.5
q0 -77 56.5 -120.5t163.5 -43.5z" />
    <glyph glyph-name="acircumflex" unicode="&#xe2;" horiz-adv-x="1247" 
d="M944 1198h-151l-203 238l-205 -238h-152l242 358h227zM451 -23q-101 0 -176 29t-116.5 77.5t-61 103.5t-19.5 116q0 154 121 244q72 56 199.5 83t359.5 27h57v62q0 217 -237 217q-128 0 -187 -50t-63 -120h-195q1 48 13.5 92.5t44.5 90.5t80.5 80t128.5 55.5t182 21.5
t178 -22.5t135.5 -74t90 -143t30.5 -221.5v-383q0 -73 21 -98t83 -25v-153h-41q-99 0 -165.5 45t-77.5 119h-2q-57 -76 -161.5 -124.5t-221.5 -48.5zM494 139q77 0 141.5 22.5t102.5 57t58.5 70.5t20.5 67v158h-67q-107 0 -185 -8.5t-148 -30t-106.5 -65t-36.5 -107.5
q0 -77 56.5 -120.5t163.5 -43.5z" />
    <glyph glyph-name="atilde" unicode="&#xe3;" horiz-adv-x="1247" 
d="M455 1516q41 0 78.5 -20t61 -43.5t52.5 -43.5t55 -20q34 0 56 31.5t22 84.5h142q0 -130 -55 -198t-144 -68q-38 0 -71 13.5t-56 32.5t-43 37.5t-41 32t-41 13.5q-34 0 -54 -32.5t-20 -86.5h-141q0 116 56.5 191.5t142.5 75.5zM451 -23q-101 0 -176 29t-116.5 77.5
t-61 103.5t-19.5 116q0 154 121 244q72 56 199.5 83t359.5 27h57v62q0 217 -237 217q-128 0 -187 -50t-63 -120h-195q1 48 13.5 92.5t44.5 90.5t80.5 80t128.5 55.5t182 21.5t178 -22.5t135.5 -74t90 -143t30.5 -221.5v-383q0 -73 21 -98t83 -25v-153h-41q-99 0 -165.5 45
t-77.5 119h-2q-57 -76 -161.5 -124.5t-221.5 -48.5zM494 139q77 0 141.5 22.5t102.5 57t58.5 70.5t20.5 67v158h-67q-107 0 -185 -8.5t-148 -30t-106.5 -65t-36.5 -107.5q0 -77 56.5 -120.5t163.5 -43.5z" />
    <glyph glyph-name="adieresis" unicode="&#xe4;" horiz-adv-x="1247" 
d="M342 1372v184h170v-184h-170zM666 1372v184h170v-184h-170zM451 -23q-101 0 -176 29t-116.5 77.5t-61 103.5t-19.5 116q0 154 121 244q72 56 199.5 83t359.5 27h57v62q0 217 -237 217q-128 0 -187 -50t-63 -120h-195q1 48 13.5 92.5t44.5 90.5t80.5 80t128.5 55.5
t182 21.5t178 -22.5t135.5 -74t90 -143t30.5 -221.5v-383q0 -73 21 -98t83 -25v-153h-41q-99 0 -165.5 45t-77.5 119h-2q-57 -76 -161.5 -124.5t-221.5 -48.5zM494 139q77 0 141.5 22.5t102.5 57t58.5 70.5t20.5 67v158h-67q-107 0 -185 -8.5t-148 -30t-106.5 -65
t-36.5 -107.5q0 -77 56.5 -120.5t163.5 -43.5z" />
    <glyph glyph-name="aring" unicode="&#xe5;" horiz-adv-x="1247" 
d="M590 1237q-80 0 -128 48.5t-48 127.5q0 77 48.5 123.5t127.5 46.5t127.5 -46.5t48.5 -123.5q0 -79 -48 -127.5t-128 -48.5zM590 1335q34 0 55 21t21 55t-21 54t-55 20t-55 -20t-21 -54t21 -55t55 -21zM451 -23q-101 0 -176 29t-116.5 77.5t-61 103.5t-19.5 116
q0 154 121 244q72 56 199.5 83t359.5 27h57v62q0 217 -237 217q-128 0 -187 -50t-63 -120h-195q1 48 13.5 92.5t44.5 90.5t80.5 80t128.5 55.5t182 21.5t178 -22.5t135.5 -74t90 -143t30.5 -221.5v-383q0 -73 21 -98t83 -25v-153h-41q-99 0 -165.5 45t-77.5 119h-2
q-57 -76 -161.5 -124.5t-221.5 -48.5zM494 139q77 0 141.5 22.5t102.5 57t58.5 70.5t20.5 67v158h-67q-107 0 -185 -8.5t-148 -30t-106.5 -65t-36.5 -107.5q0 -77 56.5 -120.5t163.5 -43.5z" />
    <glyph glyph-name="ae" unicode="&#xe6;" horiz-adv-x="1906" 
d="M489 -33q-96 0 -170 21t-118.5 54t-73 78t-39 88.5t-10.5 90.5q0 52 12.5 98.5t49.5 97t96.5 86.5t162 59.5t236.5 23.5h201q0 48 -5 84.5t-21.5 73t-44 60t-74.5 38t-111 14.5q-129 0 -190 -52t-64 -134h-203q2 55 16.5 104t48.5 97t85 82.5t132.5 55.5t184.5 21
q276 0 379 -162q137 162 379 162q212 0 339.5 -129.5t139.5 -382.5v-123l-2 -4l-785 -2q14 -153 94 -240.5t218 -87.5q117 0 191 60.5t87 152.5h197q-1 -69 -34.5 -137t-92 -123.5t-148.5 -90t-194 -34.5q-144 0 -254 61t-160 154q-132 -215 -455 -215zM1042 637h588
q-39 299 -280 299q-129 0 -208 -79.5t-100 -219.5zM510 141q157 0 242.5 64.5t85.5 173.5v131h-211q-353 0 -353 -203q0 -84 57.5 -125t178.5 -41z" />
    <glyph glyph-name="ccedilla" unicode="&#xe7;" horiz-adv-x="1134" 
d="M578 139q110 0 183.5 60t96.5 153h197q-8 -70 -40.5 -136t-88 -121.5t-141.5 -90t-189 -37.5l-74 -71h29q73 0 118.5 -37t45.5 -97q0 -70 -53.5 -112.5t-141.5 -42.5h-117v96h105q42 0 67 15.5t25 41.5q0 23 -25.5 37.5t-66.5 14.5h-84v84l70 77q-136 18 -234 97.5
t-146 200t-48 268.5q0 256 134.5 412.5t374.5 156.5q205 0 336.5 -114t143.5 -300h-197q-42 242 -280 242q-152 0 -233 -107t-81 -290q0 -184 80.5 -292t233.5 -108z" />
    <glyph glyph-name="egrave" unicode="&#xe8;" horiz-adv-x="1134" 
d="M313 1556h269l221 -358h-152zM578 -33q-163 0 -280 76t-174.5 204.5t-57.5 293.5q0 254 134.5 410.5t368.5 156.5q214 0 350 -129.5t136 -341.5v-168l-787 -2q14 -153 93.5 -240.5t216.5 -87.5q106 0 180.5 53t99.5 119h197q-8 -57 -42 -115.5t-91 -110.5t-147 -85
t-197 -33zM270 627h588q0 152 -81.5 230.5t-209.5 78.5q-129 0 -213 -78.5t-84 -230.5z" />
    <glyph glyph-name="eacute" unicode="&#xe9;" horiz-adv-x="1134" 
d="M803 1556l-338 -358h-152l222 358h268zM578 -33q-163 0 -280 76t-174.5 204.5t-57.5 293.5q0 254 134.5 410.5t368.5 156.5q214 0 350 -129.5t136 -341.5v-168l-787 -2q14 -153 93.5 -240.5t216.5 -87.5q106 0 180.5 53t99.5 119h197q-8 -57 -42 -115.5t-91 -110.5
t-147 -85t-197 -33zM270 627h588q0 152 -81.5 230.5t-209.5 78.5q-129 0 -213 -78.5t-84 -230.5z" />
    <glyph glyph-name="ecircumflex" unicode="&#xea;" horiz-adv-x="1134" 
d="M913 1198h-151l-203 238l-205 -238h-151l241 358h228zM578 -33q-163 0 -280 76t-174.5 204.5t-57.5 293.5q0 254 134.5 410.5t368.5 156.5q214 0 350 -129.5t136 -341.5v-168l-787 -2q14 -153 93.5 -240.5t216.5 -87.5q106 0 180.5 53t99.5 119h197q-8 -57 -42 -115.5
t-91 -110.5t-147 -85t-197 -33zM270 627h588q0 152 -81.5 230.5t-209.5 78.5q-129 0 -213 -78.5t-84 -230.5z" />
    <glyph glyph-name="edieresis" unicode="&#xeb;" horiz-adv-x="1134" 
d="M311 1372v184h170v-184h-170zM635 1372v184h170v-184h-170zM578 -33q-163 0 -280 76t-174.5 204.5t-57.5 293.5q0 254 134.5 410.5t368.5 156.5q214 0 350 -129.5t136 -341.5v-168l-787 -2q14 -153 93.5 -240.5t216.5 -87.5q106 0 180.5 53t99.5 119h197
q-8 -57 -42 -115.5t-91 -110.5t-147 -85t-197 -33zM270 627h588q0 152 -81.5 230.5t-209.5 78.5q-129 0 -213 -78.5t-84 -230.5z" />
    <glyph glyph-name="igrave" unicode="&#xec;" horiz-adv-x="514" 
d="M12 1556h269l221 -358h-152zM158 0v1075h198v-1075h-198z" />
    <glyph glyph-name="iacute" unicode="&#xed;" horiz-adv-x="514" 
d="M502 1556l-338 -358h-152l221 358h269zM158 0v1075h198v-1075h-198z" />
    <glyph glyph-name="icircumflex" unicode="&#xee;" horiz-adv-x="514" 
d="M612 1198h-151l-203 238l-205 -238h-151l241 358h228zM158 0v1075h198v-1075h-198z" />
    <glyph glyph-name="idieresis" unicode="&#xef;" horiz-adv-x="514" 
d="M10 1372v184h170v-184h-170zM334 1372v184h170v-184h-170zM158 0v1075h198v-1075h-198z" />
    <glyph glyph-name="eth" unicode="&#xf0;" horiz-adv-x="1183" 
d="M815 1346q144 -154 223.5 -348.5t79.5 -411.5q0 -286 -137.5 -452.5t-374.5 -166.5q-158 0 -276.5 74.5t-179 200t-60.5 282.5q0 243 138 405.5t335 162.5q194 0 287 -99q-54 121 -201 275l-260 -125l-84 129l227 106q-101 92 -223 178h244q79 -48 145 -100l215 100
l80 -124zM592 135q151 0 237 107.5t86 283.5t-86 282.5t-237 106.5q-148 0 -227.5 -104.5t-79.5 -284.5q0 -181 79.5 -286t227.5 -105z" />
    <glyph glyph-name="ntilde" unicode="&#xf1;" horiz-adv-x="1212" 
d="M463 1516q41 0 79 -20t61.5 -43.5t52.5 -43.5t55 -20q34 0 55.5 31.5t21.5 84.5h142q0 -130 -55 -198t-144 -68q-38 0 -71 13.5t-56 32.5t-43 37.5t-41 32t-41 13.5q-34 0 -53.5 -32.5t-19.5 -86.5h-142q0 116 56.5 191.5t142.5 75.5zM127 0v1075h199v-162
q61 102 158.5 148.5t201.5 46.5q179 0 284 -120t105 -312v-676h-198v621q0 149 -63 232t-181 83q-130 0 -218.5 -95t-88.5 -255v-586h-199z" />
    <glyph glyph-name="ograve" unicode="&#xf2;" horiz-adv-x="1171" 
d="M340 1556h268l221 -358h-151zM588 -33q-231 0 -376.5 163.5t-145.5 408.5q0 251 144.5 410t377.5 159t375.5 -159t142.5 -410q0 -161 -63.5 -290.5t-182.5 -205.5t-272 -76zM586 139q153 0 237 108.5t84 291.5q0 182 -84 289.5t-237 107.5t-237.5 -107.5t-84.5 -289.5
q0 -183 84.5 -291.5t237.5 -108.5z" />
    <glyph glyph-name="oacute" unicode="&#xf3;" horiz-adv-x="1171" 
d="M829 1556l-337 -358h-152l221 358h268zM588 -33q-231 0 -376.5 163.5t-145.5 408.5q0 251 144.5 410t377.5 159t375.5 -159t142.5 -410q0 -161 -63.5 -290.5t-182.5 -205.5t-272 -76zM586 139q153 0 237 108.5t84 291.5q0 182 -84 289.5t-237 107.5t-237.5 -107.5
t-84.5 -289.5q0 -183 84.5 -291.5t237.5 -108.5z" />
    <glyph glyph-name="ocircumflex" unicode="&#xf4;" horiz-adv-x="1171" 
d="M940 1198h-152l-202 238l-205 -238h-152l242 358h227zM588 -33q-231 0 -376.5 163.5t-145.5 408.5q0 251 144.5 410t377.5 159t375.5 -159t142.5 -410q0 -161 -63.5 -290.5t-182.5 -205.5t-272 -76zM586 139q153 0 237 108.5t84 291.5q0 182 -84 289.5t-237 107.5
t-237.5 -107.5t-84.5 -289.5q0 -183 84.5 -291.5t237.5 -108.5z" />
    <glyph glyph-name="otilde" unicode="&#xf5;" horiz-adv-x="1171" 
d="M451 1516q41 0 78.5 -20t61 -43.5t52.5 -43.5t55 -20q34 0 56 31.5t22 84.5h142q0 -130 -55 -198t-144 -68q-38 0 -71 13.5t-56 32.5t-43 37.5t-41 32t-41 13.5q-34 0 -54 -32.5t-20 -86.5h-141q0 116 56.5 191.5t142.5 75.5zM588 -33q-231 0 -376.5 163.5t-145.5 408.5
q0 251 144.5 410t377.5 159t375.5 -159t142.5 -410q0 -161 -63.5 -290.5t-182.5 -205.5t-272 -76zM586 139q153 0 237 108.5t84 291.5q0 182 -84 289.5t-237 107.5t-237.5 -107.5t-84.5 -289.5q0 -183 84.5 -291.5t237.5 -108.5z" />
    <glyph glyph-name="odieresis" unicode="&#xf6;" horiz-adv-x="1171" 
d="M338 1372v184h170v-184h-170zM662 1372v184h169v-184h-169zM588 -33q-231 0 -376.5 163.5t-145.5 408.5q0 251 144.5 410t377.5 159t375.5 -159t142.5 -410q0 -161 -63.5 -290.5t-182.5 -205.5t-272 -76zM586 139q153 0 237 108.5t84 291.5q0 182 -84 289.5t-237 107.5
t-237.5 -107.5t-84.5 -289.5q0 -183 84.5 -291.5t237.5 -108.5z" />
    <glyph glyph-name="divide" unicode="&#xf7;" horiz-adv-x="1193" 
d="M471 823v232h242v-232h-242zM1063 459h-942v137h942v-137zM471 0v231h242v-231h-242z" />
    <glyph glyph-name="oslash" unicode="&#xf8;" horiz-adv-x="1259" 
d="M1194 1264l-201 -316q144 -157 144 -409q0 -161 -63.5 -290.5t-183 -205.5t-272.5 -76q-123 0 -219 47l-155 -243h-178l208 327q-85 77 -131.5 191.5t-46.5 249.5q0 251 144.5 410t377.5 159q143 0 259 -64l139 220h178zM295 539q0 -178 78 -285l407 639q-67 43 -164 43
q-153 0 -237 -107.5t-84 -289.5zM938 539q0 144 -53 239l-391 -616q58 -23 122 -23q153 0 237.5 108.5t84.5 291.5z" />
    <glyph glyph-name="ugrave" unicode="&#xf9;" horiz-adv-x="1173" 
d="M328 1556h268l221 -358h-151zM479 -33q-183 0 -282 113.5t-99 339.5v655h199v-641q0 -87 19 -147.5t53.5 -91.5t72.5 -43.5t86 -12.5q141 0 230.5 94t89.5 256v586h199v-1075h-199v182q-114 -215 -369 -215z" />
    <glyph glyph-name="uacute" unicode="&#xfa;" horiz-adv-x="1173" 
d="M817 1556l-338 -358h-151l221 358h268zM479 -33q-183 0 -282 113.5t-99 339.5v655h199v-641q0 -87 19 -147.5t53.5 -91.5t72.5 -43.5t86 -12.5q141 0 230.5 94t89.5 256v586h199v-1075h-199v182q-114 -215 -369 -215z" />
    <glyph glyph-name="ucircumflex" unicode="&#xfb;" horiz-adv-x="1173" 
d="M928 1198h-152l-203 238l-204 -238h-152l242 358h227zM479 -33q-183 0 -282 113.5t-99 339.5v655h199v-641q0 -87 19 -147.5t53.5 -91.5t72.5 -43.5t86 -12.5q141 0 230.5 94t89.5 256v586h199v-1075h-199v182q-114 -215 -369 -215z" />
    <glyph glyph-name="udieresis" unicode="&#xfc;" horiz-adv-x="1173" 
d="M326 1372v184h170v-184h-170zM649 1372v184h170v-184h-170zM479 -33q-183 0 -282 113.5t-99 339.5v655h199v-641q0 -87 19 -147.5t53.5 -91.5t72.5 -43.5t86 -12.5q141 0 230.5 94t89.5 256v586h199v-1075h-199v182q-114 -215 -369 -215z" />
    <glyph glyph-name="yacute" unicode="&#xfd;" horiz-adv-x="1062" 
d="M776 1556l-338 -358h-151l221 358h268zM266 -492l170 492l-409 1075h219l248 -737l36 -100h5l36 100l246 737h219l-377 -979l-200 -588h-193z" />
    <glyph glyph-name="thorn" unicode="&#xfe;" horiz-adv-x="1232" 
d="M678 1108q220 0 354.5 -156t134.5 -411q0 -258 -132 -416t-349 -158q-106 0 -205 46.5t-155 121.5v-627h-199v2048h192v-626q63 81 161 129.5t198 48.5zM653 141q141 0 228.5 108.5t87.5 285.5q0 181 -87.5 291t-232.5 110q-146 0 -234.5 -96t-88.5 -254v-119
q0 -147 90 -236.5t237 -89.5z" />
    <glyph glyph-name="ydieresis" unicode="&#xff;" horiz-adv-x="1062" 
d="M285 1372v184h170v-184h-170zM608 1372v184h170v-184h-170zM266 -492l170 492l-409 1075h219l248 -737l36 -100h5l36 100l246 737h219l-377 -979l-200 -588h-193z" />
    <glyph glyph-name="Amacron" unicode="&#x100;" horiz-adv-x="1564" 
d="M1110 1798h-655v158h655v-158zM55 0l617 1556h221l616 -1556h-223l-172 451h-663l-172 -451h-224zM524 649h516l-258 664z" />
    <glyph glyph-name="amacron" unicode="&#x101;" horiz-adv-x="1247" 
d="M918 1317h-656v158h656v-158zM451 -23q-101 0 -176 29t-116.5 77.5t-61 103.5t-19.5 116q0 154 121 244q72 56 199.5 83t359.5 27h57v62q0 217 -237 217q-128 0 -187 -50t-63 -120h-195q1 48 13.5 92.5t44.5 90.5t80.5 80t128.5 55.5t182 21.5t178 -22.5t135.5 -74
t90 -143t30.5 -221.5v-383q0 -73 21 -98t83 -25v-153h-41q-99 0 -165.5 45t-77.5 119h-2q-57 -76 -161.5 -124.5t-221.5 -48.5zM494 139q77 0 141.5 22.5t102.5 57t58.5 70.5t20.5 67v158h-67q-107 0 -185 -8.5t-148 -30t-106.5 -65t-36.5 -107.5q0 -77 56.5 -120.5
t163.5 -43.5z" />
    <glyph glyph-name="Abreve" unicode="&#x102;" horiz-adv-x="1564" 
d="M989 2038h168q0 -161 -103 -260t-272 -99t-272.5 99t-103.5 260h167q0 -94 57.5 -150.5t151.5 -56.5t150.5 56.5t56.5 150.5zM55 0l617 1556h221l616 -1556h-223l-172 451h-663l-172 -451h-224zM524 649h516l-258 664z" />
    <glyph glyph-name="abreve" unicode="&#x103;" horiz-adv-x="1247" 
d="M797 1556h168q0 -161 -103 -259.5t-272 -98.5t-273 98.5t-104 259.5h168q0 -93 57.5 -149.5t151.5 -56.5t150.5 56t56.5 150zM451 -23q-101 0 -176 29t-116.5 77.5t-61 103.5t-19.5 116q0 154 121 244q72 56 199.5 83t359.5 27h57v62q0 217 -237 217q-128 0 -187 -50
t-63 -120h-195q1 48 13.5 92.5t44.5 90.5t80.5 80t128.5 55.5t182 21.5t178 -22.5t135.5 -74t90 -143t30.5 -221.5v-383q0 -73 21 -98t83 -25v-153h-41q-99 0 -165.5 45t-77.5 119h-2q-57 -76 -161.5 -124.5t-221.5 -48.5zM494 139q77 0 141.5 22.5t102.5 57t58.5 70.5
t20.5 67v158h-67q-107 0 -185 -8.5t-148 -30t-106.5 -65t-36.5 -107.5q0 -77 56.5 -120.5t163.5 -43.5z" />
    <glyph glyph-name="Aogonek" unicode="&#x104;" horiz-adv-x="1564" 
d="M1237 -199q0 -42 34.5 -65t100.5 -23q35 0 62 4v-125q-40 -6 -97 -6q-118 0 -176.5 54.5t-58.5 128.5q0 42 18 80.5t49 68.5t54.5 48.5t50.5 36.5q6 3 8 5l-168 443h-663l-172 -451h-224l617 1556h221l616 -1556h-139q-133 -112 -133 -199zM524 649h516l-258 664z" />
    <glyph glyph-name="aogonek" unicode="&#x105;" horiz-adv-x="1247" 
d="M1014 -8q-127 -106 -127 -193q0 -42 34.5 -65t100.5 -23q34 0 61 4v-125q-40 -6 -96 -6q-118 0 -176.5 54.5t-58.5 128.5q0 27 7.5 53t23 48.5t29.5 40t37.5 36.5t35 28t33 23.5t22.5 15.5h6q-98 47 -110 138h-2q-57 -76 -161.5 -124.5t-221.5 -48.5q-101 0 -176 29
t-116.5 77.5t-61 103.5t-19.5 116q0 154 121 244q72 56 199.5 83t359.5 27h57v62q0 217 -237 217q-128 0 -187 -50t-63 -120h-195q1 48 13.5 92.5t44.5 90.5t80.5 80t128.5 55.5t182 21.5t178 -22.5t135.5 -74t90 -143t30.5 -221.5v-383q0 -73 21 -98t83 -25v-153h-41
q-35 0 -65 6zM817 356v158h-67q-107 0 -185 -8.5t-148 -30t-106.5 -65t-36.5 -107.5q0 -77 56.5 -120.5t163.5 -43.5q77 0 141.5 22.5t102.5 57t58.5 70.5t20.5 67z" />
    <glyph glyph-name="Cacute" unicode="&#x106;" horiz-adv-x="1646" 
d="M1071 2038l-338 -359h-151l221 359h268zM850 -33q-332 0 -534.5 222t-202.5 583q0 242 91.5 427t260.5 287.5t391 102.5q275 0 465 -163t227 -427h-213q-31 178 -166.5 287t-326.5 109q-233 0 -373.5 -169.5t-140.5 -447.5q0 -277 142 -446.5t376 -169.5
q191 0 324.5 109.5t164.5 287.5h213q-37 -265 -228 -428.5t-470 -163.5z" />
    <glyph glyph-name="cacute" unicode="&#x107;" horiz-adv-x="1134" 
d="M803 1556l-338 -358h-152l222 358h268zM578 -33q-122 0 -220.5 44t-161.5 121.5t-96.5 181t-33.5 225.5q0 256 134.5 412.5t374.5 156.5q205 0 336.5 -114t143.5 -300h-197q-42 242 -280 242q-152 0 -233 -107t-81 -290q0 -184 80.5 -292t233.5 -108q110 0 183.5 60
t96.5 153h197q-8 -72 -42 -139t-91.5 -123t-146.5 -89.5t-197 -33.5z" />
    <glyph glyph-name="Cdotaccent" unicode="&#x10a;" horiz-adv-x="1646" 
d="M827 1792q-59 0 -100 40.5t-41 100.5q0 57 41.5 97.5t99.5 40.5q57 0 99.5 -40.5t42.5 -97.5q0 -59 -42 -100t-100 -41zM850 -33q-332 0 -534.5 222t-202.5 583q0 242 91.5 427t260.5 287.5t391 102.5q275 0 465 -163t227 -427h-213q-31 178 -166.5 287t-326.5 109
q-233 0 -373.5 -169.5t-140.5 -447.5q0 -277 142 -446.5t376 -169.5q191 0 324.5 109.5t164.5 287.5h213q-37 -265 -228 -428.5t-470 -163.5z" />
    <glyph glyph-name="cdotaccent" unicode="&#x10b;" horiz-adv-x="1134" 
d="M559 1311q-59 0 -100 40.5t-41 100.5q0 57 41 97t100 40q57 0 99 -40t42 -97q0 -59 -41.5 -100t-99.5 -41zM578 -33q-122 0 -220.5 44t-161.5 121.5t-96.5 181t-33.5 225.5q0 256 134.5 412.5t374.5 156.5q205 0 336.5 -114t143.5 -300h-197q-42 242 -280 242
q-152 0 -233 -107t-81 -290q0 -184 80.5 -292t233.5 -108q110 0 183.5 60t96.5 153h197q-8 -72 -42 -139t-91.5 -123t-146.5 -89.5t-197 -33.5z" />
    <glyph glyph-name="Ccaron" unicode="&#x10c;" horiz-adv-x="1646" 
d="M1182 2038l-242 -359h-227l-242 359h152l204 -238l203 238h152zM850 -33q-332 0 -534.5 222t-202.5 583q0 242 91.5 427t260.5 287.5t391 102.5q275 0 465 -163t227 -427h-213q-31 178 -166.5 287t-326.5 109q-233 0 -373.5 -169.5t-140.5 -447.5q0 -277 142 -446.5
t376 -169.5q191 0 324.5 109.5t164.5 287.5h213q-37 -265 -228 -428.5t-470 -163.5z" />
    <glyph glyph-name="ccaron" unicode="&#x10d;" horiz-adv-x="1134" 
d="M913 1556l-241 -358h-228l-241 358h151l205 -237l203 237h151zM578 -33q-122 0 -220.5 44t-161.5 121.5t-96.5 181t-33.5 225.5q0 256 134.5 412.5t374.5 156.5q205 0 336.5 -114t143.5 -300h-197q-42 242 -280 242q-152 0 -233 -107t-81 -290q0 -184 80.5 -292
t233.5 -108q110 0 183.5 60t96.5 153h197q-8 -72 -42 -139t-91.5 -123t-146.5 -89.5t-197 -33.5z" />
    <glyph glyph-name="Dcaron" unicode="&#x10e;" horiz-adv-x="1572" 
d="M1137 2038l-242 -359h-227l-242 359h152l204 -238l203 238h152zM803 -2l-606 2l2 1556h567q162 0 290 -47.5t221 -142.5t143 -246t50 -350q0 -364 -167.5 -568.5t-499.5 -203.5zM401 195h361q231 0 362 146t131 439q0 275 -123.5 428.5t-369.5 153.5h-361v-1167z" />
    <glyph glyph-name="dcaron" unicode="&#x10f;" horiz-adv-x="1226" 
d="M930 1556h198v-1556h-192v135q-55 -75 -158 -121.5t-209 -46.5q-217 0 -349 158t-132 416q0 255 135.5 411t356.5 156q99 0 193 -48t157 -130v626zM1534 1556l-215 -358h-111l99 358h227zM930 492v118q0 146 -89 235t-235 89q-145 0 -232 -107t-87 -284q0 -182 88.5 -292
t234.5 -110q145 0 232.5 96.5t87.5 254.5z" />
    <glyph glyph-name="Dcroat" unicode="&#x110;" horiz-adv-x="1572" 
d="M766 1556q162 0 290 -47.5t221 -142.5t143 -246t50 -350q0 -364 -167.5 -568.5t-499.5 -203.5l-606 2v698h-138v158h140v700h567zM762 195q231 0 362 146t131 439q0 275 -123.5 428.5t-369.5 153.5h-361v-506h314v-158h-314v-503h361z" />
    <glyph glyph-name="dcroat" unicode="&#x111;" horiz-adv-x="1247" 
d="M1356 1341v-157h-226v-1184h-192v135q-55 -75 -158 -121.5t-209 -46.5q-217 0 -349 158t-132 416q0 255 135.5 411t356.5 156q99 0 193 -48t157 -130v254h-232v157h232v215h198v-215h226zM932 492v118q0 146 -89 235t-235 89q-145 0 -232 -107t-87 -284q0 -182 88.5 -292
t234.5 -110q145 0 232.5 96.5t87.5 254.5z" />
    <glyph glyph-name="Emacron" unicode="&#x112;" horiz-adv-x="1470" 
d="M1063 1798h-655v158h655v-158zM399 197h875v-197h-1077v1556h1042v-196h-840v-442h758v-199h-758v-522z" />
    <glyph glyph-name="emacron" unicode="&#x113;" horiz-adv-x="1134" 
d="M887 1317h-656v158h656v-158zM578 -33q-163 0 -280 76t-174.5 204.5t-57.5 293.5q0 254 134.5 410.5t368.5 156.5q214 0 350 -129.5t136 -341.5v-168l-787 -2q14 -153 93.5 -240.5t216.5 -87.5q106 0 180.5 53t99.5 119h197q-8 -57 -42 -115.5t-91 -110.5t-147 -85
t-197 -33zM270 627h588q0 152 -81.5 230.5t-209.5 78.5q-129 0 -213 -78.5t-84 -230.5z" />
    <glyph glyph-name="Edotaccent" unicode="&#x116;" horiz-adv-x="1470" 
d="M735 1792q-59 0 -100 40.5t-41 100.5q0 57 41.5 97.5t99.5 40.5q57 0 99.5 -40.5t42.5 -97.5q0 -59 -42 -100t-100 -41zM399 197h875v-197h-1077v1556h1042v-196h-840v-442h758v-199h-758v-522z" />
    <glyph glyph-name="edotaccent" unicode="&#x117;" horiz-adv-x="1134" 
d="M559 1311q-59 0 -100 40.5t-41 100.5q0 57 41 97t100 40q57 0 99 -40t42 -97q0 -59 -41.5 -100t-99.5 -41zM578 -33q-163 0 -280 76t-174.5 204.5t-57.5 293.5q0 254 134.5 410.5t368.5 156.5q214 0 350 -129.5t136 -341.5v-168l-787 -2q14 -153 93.5 -240.5t216.5 -87.5
q106 0 180.5 53t99.5 119h197q-8 -57 -42 -115.5t-91 -110.5t-147 -85t-197 -33zM270 627h588q0 152 -81.5 230.5t-209.5 78.5q-129 0 -213 -78.5t-84 -230.5z" />
    <glyph glyph-name="Eogonek" unicode="&#x118;" horiz-adv-x="1470" 
d="M1245 -287q35 0 62 4v-125q-41 -6 -97 -6q-118 0 -176.5 54.5t-58.5 128.5q0 122 168 231h-946v1556h1042v-196h-840v-442h758v-199h-758v-522h875v-197h-31q-133 -112 -133 -199q0 -42 34.5 -65t100.5 -23z" />
    <glyph glyph-name="eogonek" unicode="&#x119;" horiz-adv-x="1175" 
d="M1055 637v-168l-787 -2q14 -153 93.5 -240.5t216.5 -87.5q106 0 180.5 53t99.5 119h197q-7 -53 -37 -107.5t-80.5 -104.5t-129.5 -85.5t-173 -44.5q-98 -90 -98 -168q0 -42 34.5 -65t100.5 -23q34 0 61 4v-125q-40 -6 -96 -6q-118 0 -177 55t-59 128q0 106 125 200
q-147 12 -252 90.5t-156.5 202t-51.5 279.5q0 254 134.5 410.5t368.5 156.5q214 0 350 -129.5t136 -341.5zM270 627h588q0 152 -81.5 230.5t-209.5 78.5q-129 0 -213 -78.5t-84 -230.5z" />
    <glyph glyph-name="Ecaron" unicode="&#x11a;" horiz-adv-x="1470" 
d="M1090 2038l-242 -359h-227l-242 359h151l205 -238l203 238h152zM399 197h875v-197h-1077v1556h1042v-196h-840v-442h758v-199h-758v-522z" />
    <glyph glyph-name="ecaron" unicode="&#x11b;" horiz-adv-x="1134" 
d="M913 1556l-241 -358h-228l-241 358h151l205 -237l203 237h151zM578 -33q-163 0 -280 76t-174.5 204.5t-57.5 293.5q0 254 134.5 410.5t368.5 156.5q214 0 350 -129.5t136 -341.5v-168l-787 -2q14 -153 93.5 -240.5t216.5 -87.5q106 0 180.5 53t99.5 119h197
q-8 -57 -42 -115.5t-91 -110.5t-147 -85t-197 -33zM270 627h588q0 152 -81.5 230.5t-209.5 78.5q-129 0 -213 -78.5t-84 -230.5z" />
    <glyph glyph-name="Gbreve" unicode="&#x11e;" horiz-adv-x="1685" 
d="M1073 2038h168q0 -161 -103 -260t-272 -99t-273 99t-104 260h168q0 -94 57.5 -150.5t151.5 -56.5t150.5 56.5t56.5 150.5zM911 -33q-178 0 -327 59t-252.5 164.5t-161 257t-57.5 332.5q0 180 53.5 331.5t150 256t234 163t301.5 58.5q274 0 465 -150.5t231 -396.5h-213
q-35 159 -169.5 256t-321.5 97q-233 0 -374.5 -169.5t-141.5 -449.5q0 -277 160.5 -445.5t426.5 -168.5q130 0 249.5 49.5t183.5 130.5v256h-543v199h743v-533q-91 -133 -266.5 -215t-370.5 -82z" />
    <glyph glyph-name="gbreve" unicode="&#x11f;" horiz-adv-x="1232" 
d="M815 1556h168q0 -161 -103 -259.5t-272 -98.5t-273 98.5t-104 259.5h168q0 -93 57.5 -149.5t151.5 -56.5t150.5 56t56.5 150zM907 1075h199v-1005q0 -133 -24.5 -232.5t-66.5 -161.5t-105.5 -100.5t-134 -53t-159.5 -14.5q-213 0 -341.5 88t-168.5 277h199
q25 -97 105 -143.5t198 -46.5q166 0 232.5 95.5t66.5 311.5v66q-118 -189 -360 -189q-151 0 -261 75.5t-165 206t-55 300.5q0 117 28 216.5t83.5 177t147.5 121.5t212 44q252 0 370 -197v164zM907 492v118q0 147 -91.5 235.5t-235.5 88.5q-157 0 -242.5 -105.5t-85.5 -285.5
q0 -184 87 -293t245 -109q147 0 235 93.5t88 257.5z" />
    <glyph glyph-name="Gdotaccent" unicode="&#x120;" horiz-adv-x="1685" 
d="M866 1792q-59 0 -100 40.5t-41 100.5q0 57 41.5 97.5t99.5 40.5q57 0 99.5 -40.5t42.5 -97.5q0 -59 -42 -100t-100 -41zM911 -33q-178 0 -327 59t-252.5 164.5t-161 257t-57.5 332.5q0 180 53.5 331.5t150 256t234 163t301.5 58.5q274 0 465 -150.5t231 -396.5h-213
q-35 159 -169.5 256t-321.5 97q-233 0 -374.5 -169.5t-141.5 -449.5q0 -277 160.5 -445.5t426.5 -168.5q130 0 249.5 49.5t183.5 130.5v256h-543v199h743v-533q-91 -133 -266.5 -215t-370.5 -82z" />
    <glyph glyph-name="gdotaccent" unicode="&#x121;" horiz-adv-x="1232" 
d="M608 1311q-59 0 -100 40.5t-41 100.5q0 57 41 97t100 40q57 0 99.5 -40t42.5 -97q0 -59 -42 -100t-100 -41zM907 1075h199v-1005q0 -133 -24.5 -232.5t-66.5 -161.5t-105.5 -100.5t-134 -53t-159.5 -14.5q-213 0 -341.5 88t-168.5 277h199q25 -97 105 -143.5t198 -46.5
q166 0 232.5 95.5t66.5 311.5v66q-118 -189 -360 -189q-151 0 -261 75.5t-165 206t-55 300.5q0 117 28 216.5t83.5 177t147.5 121.5t212 44q252 0 370 -197v164zM907 492v118q0 147 -91.5 235.5t-235.5 88.5q-157 0 -242.5 -105.5t-85.5 -285.5q0 -184 87 -293t245 -109
q147 0 235 93.5t88 257.5z" />
    <glyph glyph-name="Gcommaaccent" unicode="&#x122;" horiz-adv-x="1685" 
d="M911 -33q-178 0 -327 59t-252.5 164.5t-161 257t-57.5 332.5q0 180 53.5 331.5t150 256t234 163t301.5 58.5q274 0 465 -150.5t231 -396.5h-213q-35 159 -169.5 256t-321.5 97q-233 0 -374.5 -169.5t-141.5 -449.5q0 -277 160.5 -445.5t426.5 -168.5q130 0 249.5 49.5
t183.5 130.5v256h-543v199h743v-533q-91 -133 -266.5 -215t-370.5 -82zM741 -492l70 349h180l-129 -349h-121z" />
    <glyph glyph-name="gcommaaccent" unicode="&#x123;" horiz-adv-x="1232" 
d="M725 1661l-88 -231h92v-232h-242v232l111 231h127zM907 1075h199v-1005q0 -133 -24.5 -232.5t-66.5 -161.5t-105.5 -100.5t-134 -53t-159.5 -14.5q-213 0 -341.5 88t-168.5 277h199q25 -97 105 -143.5t198 -46.5q166 0 232.5 95.5t66.5 311.5v66q-118 -189 -360 -189
q-151 0 -261 75.5t-165 206t-55 300.5q0 117 28 216.5t83.5 177t147.5 121.5t212 44q252 0 370 -197v164zM907 492v118q0 147 -91.5 235.5t-235.5 88.5q-157 0 -242.5 -105.5t-85.5 -285.5q0 -184 87 -293t245 -109q147 0 235 93.5t88 257.5z" />
    <glyph glyph-name="Hbar" unicode="&#x126;" horiz-adv-x="1564" 
d="M1436 1262v-158h-68v-1104h-205v719h-762v-719h-204v1104h-68v158h68v294h204v-294h762v294h205v-294h68zM1163 918v186h-762v-186h762z" />
    <glyph glyph-name="hbar" unicode="&#x127;" horiz-adv-x="1191" 
d="M686 1108q179 0 284 -120t105 -312v-676h-198v621q0 149 -63 232t-181 83q-130 0 -218.5 -95t-88.5 -255v-586h-199v1202h-133v158h133v196h199v-196h323v-158h-323v-289q61 102 158.5 148.5t201.5 46.5z" />
    <glyph glyph-name="Imacron" unicode="&#x12a;" horiz-adv-x="516" 
d="M584 1798h-656v158h656v-158zM156 0v1556h204v-1556h-204z" />
    <glyph glyph-name="imacron" unicode="&#x12b;" horiz-adv-x="514" 
d="M586 1317h-656v158h656v-158zM158 0v1075h198v-1075h-198z" />
    <glyph glyph-name="Iogonek" unicode="&#x12e;" horiz-adv-x="516" 
d="M344 -287q35 0 62 4v-125q-40 -6 -97 -6q-118 0 -176.5 54.5t-58.5 128.5q0 122 168 231h-86v1556h204v-1556h-18q-133 -112 -133 -199q0 -42 34.5 -65t100.5 -23z" />
    <glyph glyph-name="iogonek" unicode="&#x12f;" horiz-adv-x="587" 
d="M242 1556h219v-210h-219v210zM262 -199q0 -42 34.5 -65t100.5 -23q35 0 62 4v-125q-41 -6 -97 -6q-118 0 -176.5 54.5t-58.5 128.5q0 122 168 231h-43v1075h199v-1075h-56q-133 -112 -133 -199z" />
    <glyph glyph-name="Idotaccent" unicode="&#x130;" horiz-adv-x="516" 
d="M256 1792q-59 0 -100 40.5t-41 100.5q0 57 41.5 97.5t99.5 40.5q57 0 99 -40.5t42 -97.5q0 -59 -41.5 -100t-99.5 -41zM156 0v1556h204v-1556h-204z" />
    <glyph glyph-name="dotlessi" unicode="&#x131;" horiz-adv-x="514" 
d="M158 0v1075h198v-1075h-198z" />
    <glyph glyph-name="Kcommaaccent" unicode="&#x136;" horiz-adv-x="1366" 
d="M602 795l709 -795h-258l-652 719v-719h-204v1556h204v-704l621 704h258zM537 -492l69 349h180l-129 -349h-120z" />
    <glyph glyph-name="kcommaaccent" unicode="&#x137;" horiz-adv-x="993" 
d="M504 539l463 -539h-230l-411 479v-479h-199v1556h199v-952l370 471h230zM354 -492l70 349h180l-129 -349h-121z" />
    <glyph glyph-name="Lacute" unicode="&#x139;" horiz-adv-x="1253" 
d="M868 2038l-338 -359h-151l221 359h268zM399 197h820v-197h-1022v1556h202v-1359z" />
    <glyph glyph-name="lacute" unicode="&#x13a;" horiz-adv-x="452" 
d="M471 1995l-338 -359h-151l221 359h268zM127 0v1556h199v-1556h-199z" />
    <glyph glyph-name="Lcommaaccent" unicode="&#x13b;" horiz-adv-x="1253" 
d="M399 197h820v-197h-1022v1556h202v-1359zM500 -492l69 349h181l-129 -349h-121z" />
    <glyph glyph-name="lcommaaccent" unicode="&#x13c;" horiz-adv-x="452" 
d="M127 0v1556h199v-1556h-199zM94 -492l70 349h180l-129 -349h-121z" />
    <glyph glyph-name="Lcaron" unicode="&#x13d;" horiz-adv-x="1288" 
d="M399 197h820v-197h-1022v1556h202v-1359zM1253 1556l-215 -358h-110l98 358h227z" />
    <glyph glyph-name="lcaron" unicode="&#x13e;" horiz-adv-x="575" 
d="M141 0v1556h199v-1556h-199zM799 1556l-215 -358h-111l98 358h228z" />
    <glyph glyph-name="Lslash" unicode="&#x141;" horiz-adv-x="1253" 
d="M399 197h820v-197h-1022v737l-193 -129v219l193 129v600h202v-464l213 141v-219l-213 -142v-675z" />
    <glyph glyph-name="lslash" unicode="&#x142;" horiz-adv-x="452" 
d="M535 1075v-219l-209 -139v-717h-199v584l-201 -133v219l201 133v753h199v-620z" />
    <glyph glyph-name="Nacute" unicode="&#x143;" horiz-adv-x="1564" 
d="M1022 2038l-338 -359h-152l222 359h268zM197 0v1556h202l764 -1239v1239h205v-1556h-215l-752 1186v-1186h-204z" />
    <glyph glyph-name="nacute" unicode="&#x144;" horiz-adv-x="1212" 
d="M842 1556l-338 -358h-152l221 358h269zM127 0v1075h199v-162q61 102 158.5 148.5t201.5 46.5q179 0 284 -120t105 -312v-676h-198v621q0 149 -63 232t-181 83q-130 0 -218.5 -95t-88.5 -255v-586h-199z" />
    <glyph glyph-name="Ncommaaccent" unicode="&#x145;" horiz-adv-x="1564" 
d="M197 0v1556h202l764 -1239v1239h205v-1556h-215l-752 1186v-1186h-204zM653 -492l70 349h180l-129 -349h-121z" />
    <glyph glyph-name="ncommaaccent" unicode="&#x146;" horiz-adv-x="1212" 
d="M127 0v1075h199v-162q61 102 158.5 148.5t201.5 46.5q179 0 284 -120t105 -312v-676h-198v621q0 149 -63 232t-181 83q-130 0 -218.5 -95t-88.5 -255v-586h-199zM473 -492l70 349h180l-129 -349h-121z" />
    <glyph glyph-name="Ncaron" unicode="&#x147;" horiz-adv-x="1564" 
d="M1133 2038l-242 -359h-227l-242 359h151l205 -238l203 238h152zM197 0v1556h202l764 -1239v1239h205v-1556h-215l-752 1186v-1186h-204z" />
    <glyph glyph-name="ncaron" unicode="&#x148;" horiz-adv-x="1212" 
d="M952 1556l-241 -358h-228l-241 358h151l205 -237l203 237h151zM127 0v1075h199v-162q61 102 158.5 148.5t201.5 46.5q179 0 284 -120t105 -312v-676h-198v621q0 149 -63 232t-181 83q-130 0 -218.5 -95t-88.5 -255v-586h-199z" />
    <glyph glyph-name="Eng" unicode="&#x14a;" horiz-adv-x="1564" 
d="M973 -492q-100 0 -177 27.5t-121 68t-72 94.5t-37.5 99t-10.5 90h213q0 -17 2.5 -35t14 -48t30.5 -52.5t58 -39.5t92 -17q51 0 87.5 17t56 41t31 65.5t15 76t4.5 87.5l-753 1204v-1186h-209v1556h209l753 -1239v1239h209v-1556q0 -54 -2.5 -95.5t-11.5 -95.5t-24.5 -93.5
t-45.5 -81t-70.5 -67.5t-102 -42.5t-138.5 -16.5z" />
    <glyph glyph-name="eng" unicode="&#x14b;" horiz-adv-x="1212" 
d="M776 -492q-31 0 -63.5 3t-48.5 7l-17 3v174q23 -6 66 -6q86 0 125 33.5t39 103.5v815q0 295 -232 295q-141 0 -230 -94t-89 -256v-586h-199v1075h199v-162q119 195 368 195q183 0 282 -113.5t99 -339.5v-819q0 -160 -71 -244t-228 -84z" />
    <glyph glyph-name="Omacron" unicode="&#x14c;" horiz-adv-x="1724" 
d="M1190 1798h-655v158h655v-158zM864 -33q-168 0 -308 59t-237.5 164.5t-151.5 256.5t-54 331t54 331t151.5 256.5t237.5 164.5t308 59q223 0 393 -101t262.5 -285.5t92.5 -424.5t-92.5 -424.5t-262.5 -285.5t-393 -101zM862 162q242 0 388.5 170t146.5 446t-146.5 446.5
t-388.5 170.5t-388 -170t-146 -447q0 -276 146 -446t388 -170z" />
    <glyph glyph-name="omacron" unicode="&#x14d;" horiz-adv-x="1171" 
d="M913 1317h-655v158h655v-158zM588 -33q-231 0 -376.5 163.5t-145.5 408.5q0 251 144.5 410t377.5 159t375.5 -159t142.5 -410q0 -161 -63.5 -290.5t-182.5 -205.5t-272 -76zM586 139q153 0 237 108.5t84 291.5q0 182 -84 289.5t-237 107.5t-237.5 -107.5t-84.5 -289.5
q0 -183 84.5 -291.5t237.5 -108.5z" />
    <glyph glyph-name="Ohungarumlaut" unicode="&#x150;" horiz-adv-x="1724" 
d="M885 2038l-338 -359h-152l221 359h269zM1327 2038l-338 -359h-151l221 359h268zM864 -33q-168 0 -308 59t-237.5 164.5t-151.5 256.5t-54 331t54 331t151.5 256.5t237.5 164.5t308 59q223 0 393 -101t262.5 -285.5t92.5 -424.5t-92.5 -424.5t-262.5 -285.5t-393 -101z
M862 162q242 0 388.5 170t146.5 446t-146.5 446.5t-388.5 170.5t-388 -170t-146 -447q0 -276 146 -446t388 -170z" />
    <glyph glyph-name="ohungarumlaut" unicode="&#x151;" horiz-adv-x="1171" 
d="M608 1556l-338 -358h-151l221 358h268zM1051 1556l-338 -358h-152l221 358h269zM588 -33q-231 0 -376.5 163.5t-145.5 408.5q0 251 144.5 410t377.5 159t375.5 -159t142.5 -410q0 -161 -63.5 -290.5t-182.5 -205.5t-272 -76zM586 139q153 0 237 108.5t84 291.5
q0 182 -84 289.5t-237 107.5t-237.5 -107.5t-84.5 -289.5q0 -183 84.5 -291.5t237.5 -108.5z" />
    <glyph glyph-name="OE" unicode="&#x152;" horiz-adv-x="2672" 
d="M862 -33q-168 0 -308 59t-237 164.5t-150.5 256.5t-53.5 331t53.5 331t150.5 256.5t237 164.5t308 59q332 0 537 -221v193h1042v-197h-833v-442h751v-199h-751v-522h868v-197h-1077v186q-204 -223 -537 -223zM860 162q242 0 388.5 170t146.5 446t-146.5 446.5
t-388.5 170.5q-241 0 -387.5 -170.5t-146.5 -446.5t146.5 -446t387.5 -170z" />
    <glyph glyph-name="oe" unicode="&#x153;" horiz-adv-x="2017" 
d="M606 -33q-162 0 -286 76t-189 205.5t-65 290.5q0 252 147.5 410.5t394.5 158.5q142 0 252.5 -55.5t181.5 -155.5q66 101 172 156t244 55q212 0 339.5 -129.5t139.5 -382.5v-123l-2 -4l-784 -2q14 -153 93.5 -240.5t217.5 -87.5q117 0 191.5 60.5t87.5 152.5h196
q-2 -71 -35 -139t-92 -123t-150.5 -89t-199.5 -34q-141 0 -247 56.5t-171 158.5q-71 -101 -182.5 -158t-253.5 -57zM606 139q166 0 254 107.5t88 292.5q0 183 -88 290t-254 107t-254 -107t-88 -290q0 -185 88 -292.5t254 -107.5zM1153 637h588q-39 299 -281 299
q-129 0 -207.5 -79.5t-99.5 -219.5z" />
    <glyph glyph-name="Racute" unicode="&#x154;" horiz-adv-x="1359" 
d="M922 2038l-338 -359h-152l221 359h269zM197 0v1556h544q249 0 385 -103.5t136 -311.5q0 -179 -133.5 -288.5t-362.5 -109.5h-115l674 -743h-254l-672 743v-743h-202zM399 918h367q77 0 141 23.5t107 75.5t43 126q0 107 -80 168t-242 61h-336v-454z" />
    <glyph glyph-name="racute" unicode="&#x155;" horiz-adv-x="718" 
d="M596 1556l-338 -358h-152l222 358h268zM127 0v1075h188v-192q64 124 193 184q76 35 197 35v-207h-43q-143 0 -239.5 -100t-96.5 -263v-532h-199z" />
    <glyph glyph-name="Rcommaaccent" unicode="&#x156;" horiz-adv-x="1359" 
d="M197 0v1556h544q249 0 385 -103.5t136 -311.5q0 -179 -133.5 -288.5t-362.5 -109.5h-115l674 -743h-254l-672 743v-743h-202zM399 918h367q77 0 141 23.5t107 75.5t43 126q0 107 -80 168t-242 61h-336v-454zM553 -492l70 349h180l-129 -349h-121z" />
    <glyph glyph-name="rcommaaccent" unicode="&#x157;" horiz-adv-x="718" 
d="M127 0v1075h188v-192q64 124 193 184q76 35 197 35v-207h-43q-143 0 -239.5 -100t-96.5 -263v-532h-199zM240 -492l69 349h180l-129 -349h-120z" />
    <glyph glyph-name="Rcaron" unicode="&#x158;" horiz-adv-x="1359" 
d="M1032 2038l-241 -359h-228l-241 359h151l205 -238l203 238h151zM197 0v1556h544q249 0 385 -103.5t136 -311.5q0 -179 -133.5 -288.5t-362.5 -109.5h-115l674 -743h-254l-672 743v-743h-202zM399 918h367q77 0 141 23.5t107 75.5t43 126q0 107 -80 168t-242 61h-336v-454
z" />
    <glyph glyph-name="rcaron" unicode="&#x159;" horiz-adv-x="718" 
d="M707 1556l-242 -358h-227l-242 358h151l205 -237l203 237h152zM127 0v1075h188v-192q64 124 193 184q76 35 197 35v-207h-43q-143 0 -239.5 -100t-96.5 -263v-532h-199z" />
    <glyph glyph-name="Sacute" unicode="&#x15a;" horiz-adv-x="1370" 
d="M922 2019l-338 -358h-152l221 358h269zM745 -33q-167 0 -296 42.5t-209 117.5t-123.5 169.5t-53.5 207.5h213q23 -99 69 -167.5t113 -107t144 -55t176 -16.5q157 0 245.5 58.5t88.5 174.5q0 49 -17.5 89t-42 65t-64 46t-68.5 31.5t-70 22.5q-5 1 -144.5 36.5t-226.5 66.5
q-78 28 -132.5 58t-101 74t-70 106t-23.5 142q0 99 33.5 179t88.5 131.5t128.5 86.5t149 49.5t155.5 14.5q261 0 407 -143t152 -377h-209q-8 96 -45 164t-93 102t-113 48t-122 14q-36 0 -72 -4t-83 -19.5t-82.5 -40t-60 -71t-24.5 -107.5q0 -83 45.5 -131.5t147.5 -85.5
q25 -9 49.5 -17t41 -13t45 -12.5t42 -10.5t51 -12t54.5 -13q135 -33 198 -60q270 -116 271 -386q0 -229 -139.5 -338t-422.5 -109z" />
    <glyph glyph-name="sacute" unicode="&#x15b;" horiz-adv-x="1079" 
d="M799 1556l-338 -358h-152l221 358h269zM594 -33q-130 0 -229 30t-160.5 83.5t-94.5 121t-40 150.5h196q27 -121 109 -170t231 -49q93 0 146 37.5t53 112.5q0 30 -13 55t-32 41.5t-50.5 31t-58 22.5t-63.5 18q-50 13 -78 20t-71.5 19t-67.5 21t-59 23t-54.5 27.5t-44 31.5
t-37.5 37.5t-26 43.5t-18.5 52.5t-6.5 61.5q-1 84 34 147.5t98 100.5t140 54.5t168 17.5q190 0 296 -98t112 -262h-197q-10 107 -74 150.5t-151 43.5q-234 0 -234 -141q0 -30 12 -52.5t32 -39t60.5 -31.5t83 -26t113.5 -27l58.5 -13.5t57.5 -15.5t58.5 -19.5t52.5 -24.5
t50.5 -32t40.5 -39t33.5 -49.5t19.5 -61t8 -73.5q0 -330 -403 -330z" />
    <glyph glyph-name="Scedilla" unicode="&#x15e;" horiz-adv-x="1370" 
d="M745 -33h-30l-74 -71h29q73 0 118.5 -37t45.5 -97q0 -70 -53.5 -112.5t-141.5 -42.5h-117v96h105q42 0 67 15.5t25 41.5q0 23 -25.5 37.5t-66.5 14.5h-84v84l71 79q-134 15 -237 62.5t-168 119.5t-101 159t-45 188h213q23 -99 69 -167.5t113 -107t144 -55t176 -16.5
q157 0 245.5 58.5t88.5 174.5q0 49 -17.5 89t-42 65t-64 46t-68.5 31.5t-70 22.5q-5 1 -144.5 36.5t-226.5 66.5q-78 28 -132.5 58t-101 74t-70 106t-23.5 142q0 99 33.5 179t88.5 131.5t128.5 86.5t149 49.5t155.5 14.5q261 0 407 -143t152 -377h-209q-8 96 -45 164
t-93 102t-113 48t-122 14q-36 0 -72 -4t-83 -19.5t-82.5 -40t-60 -71t-24.5 -107.5q0 -83 45.5 -131.5t147.5 -85.5q25 -9 49.5 -17t41 -13t45 -12.5t42 -10.5t51 -12t54.5 -13q135 -33 198 -60q270 -116 271 -386q0 -229 -139.5 -338t-422.5 -109z" />
    <glyph glyph-name="scedilla" unicode="&#x15f;" horiz-adv-x="1079" 
d="M594 -33h-2l-74 -71h29q73 0 118.5 -37t45.5 -97q0 -70 -53.5 -112.5t-141.5 -42.5h-117v96h105q42 0 67 15.5t25 41.5q0 23 -25.5 37.5t-66.5 14.5h-84v84l69 77q-200 22 -303 124t-116 255h196q27 -121 109 -170t231 -49q93 0 146 37.5t53 112.5q0 30 -13 55t-32 41.5
t-50.5 31t-58 22.5t-63.5 18q-50 13 -78 20t-71.5 19t-67.5 21t-59 23t-54.5 27.5t-44 31.5t-37.5 37.5t-26 43.5t-18.5 52.5t-6.5 61.5q-1 84 34 147.5t98 100.5t140 54.5t168 17.5q190 0 296 -98t112 -262h-197q-10 107 -74 150.5t-151 43.5q-234 0 -234 -141
q0 -30 12 -52.5t32 -39t60.5 -31.5t83 -26t113.5 -27l58.5 -13.5t57.5 -15.5t58.5 -19.5t52.5 -24.5t50.5 -32t40.5 -39t33.5 -49.5t19.5 -61t8 -73.5q0 -330 -403 -330z" />
    <glyph glyph-name="Scaron" unicode="&#x160;" horiz-adv-x="1370" 
d="M1032 2019l-241 -358h-228l-241 358h151l205 -237l203 237h151zM745 -33q-167 0 -296 42.5t-209 117.5t-123.5 169.5t-53.5 207.5h213q23 -99 69 -167.5t113 -107t144 -55t176 -16.5q157 0 245.5 58.5t88.5 174.5q0 49 -17.5 89t-42 65t-64 46t-68.5 31.5t-70 22.5
q-5 1 -144.5 36.5t-226.5 66.5q-78 28 -132.5 58t-101 74t-70 106t-23.5 142q0 99 33.5 179t88.5 131.5t128.5 86.5t149 49.5t155.5 14.5q261 0 407 -143t152 -377h-209q-8 96 -45 164t-93 102t-113 48t-122 14q-36 0 -72 -4t-83 -19.5t-82.5 -40t-60 -71t-24.5 -107.5
q0 -83 45.5 -131.5t147.5 -85.5q25 -9 49.5 -17t41 -13t45 -12.5t42 -10.5t51 -12t54.5 -13q135 -33 198 -60q270 -116 271 -386q0 -229 -139.5 -338t-422.5 -109z" />
    <glyph glyph-name="scaron" unicode="&#x161;" horiz-adv-x="1079" 
d="M909 1556l-241 -358h-228l-241 358h151l205 -237l203 237h151zM594 -33q-130 0 -229 30t-160.5 83.5t-94.5 121t-40 150.5h196q27 -121 109 -170t231 -49q93 0 146 37.5t53 112.5q0 30 -13 55t-32 41.5t-50.5 31t-58 22.5t-63.5 18q-50 13 -78 20t-71.5 19t-67.5 21
t-59 23t-54.5 27.5t-44 31.5t-37.5 37.5t-26 43.5t-18.5 52.5t-6.5 61.5q-1 84 34 147.5t98 100.5t140 54.5t168 17.5q190 0 296 -98t112 -262h-197q-10 107 -74 150.5t-151 43.5q-234 0 -234 -141q0 -30 12 -52.5t32 -39t60.5 -31.5t83 -26t113.5 -27l58.5 -13.5
t57.5 -15.5t58.5 -19.5t52.5 -24.5t50.5 -32t40.5 -39t33.5 -49.5t19.5 -61t8 -73.5q0 -330 -403 -330z" />
    <glyph glyph-name="uni0162" unicode="&#x162;" horiz-adv-x="1267" 
d="M627 -104q73 0 118.5 -37t45.5 -97q0 -70 -53.5 -112.5t-141.5 -42.5h-117v96h105q42 0 67 15.5t25 41.5q0 23 -25.5 37.5t-66.5 14.5h-84v84l94 104h-62v1360h-477v196h1155l2 -196h-475v-1311h19l-19 -18v-31h-32l-107 -104h29z" />
    <glyph glyph-name="uni0163" unicode="&#x163;" horiz-adv-x="696" 
d="M563 150q39 0 70 2v-166q-71 -6 -119 -6q-61 0 -102 8l-95 -92h29q73 0 118.5 -37t45.5 -97q0 -70 -53.5 -112.5t-141.5 -42.5h-116v96h104q42 0 67 15.5t25 41.5q0 23 -25.5 37.5t-66.5 14.5h-84v84l105 116q-140 63 -140 275v618h-143v150q91 0 122.5 41t31.5 141v115
h188v-277h240v-170h-240v-577q0 -103 39.5 -140.5t140.5 -37.5z" />
    <glyph glyph-name="Tcaron" unicode="&#x164;" horiz-adv-x="1267" 
d="M989 2038l-241 -359h-228l-241 359h151l205 -238l203 238h151zM1212 1360h-475v-1360h-205v1360h-477v196h1155z" />
    <glyph glyph-name="tcaron" unicode="&#x165;" horiz-adv-x="696" 
d="M877 1556l-215 -358h-111l98 358h228zM504 -20q-179 0 -254.5 75t-75.5 232v618h-143v150q91 0 122 41t31 141v115h189v-277h239v-170h-239v-577q0 -103 39.5 -140.5t140.5 -37.5q39 0 70 2v-166q-71 -6 -119 -6z" />
    <glyph glyph-name="Tbar" unicode="&#x166;" horiz-adv-x="1267" 
d="M737 1360v-504h226v-158h-226v-698h-205v698h-225v158h225v504h-477v196h1155l2 -196h-475z" />
    <glyph glyph-name="tbar" unicode="&#x167;" horiz-adv-x="825" 
d="M602 160l113 6v-174q-94 -12 -170 -12q-165 0 -238.5 77.5t-73.5 229.5v172h-143v157h143v289h-143v160q154 0 154 192v95h188v-277h240v-170h-240v-289h240v-157h-240v-121q0 -100 38.5 -139t131.5 -39z" />
    <glyph glyph-name="Umacron" unicode="&#x16a;" horiz-adv-x="1505" 
d="M1106 1798h-655v158h655v-158zM782 -33q-88 0 -161.5 13.5t-129 37t-99.5 60.5t-75 77.5t-53 96t-35 107.5t-20 120.5t-9.5 126.5t-2.5 133v817h204v-806q0 -81 2.5 -138t11.5 -123t25 -110.5t44.5 -88.5t68 -70t97.5 -42t132 -16t132 16t97.5 42t68 70t44.5 88.5
t25 110.5t11.5 123t2.5 138v806h205v-817q0 -98 -4 -171.5t-18.5 -158.5t-39 -145.5t-68.5 -119.5t-105 -95.5t-150 -59t-201 -22.5z" />
    <glyph glyph-name="umacron" unicode="&#x16b;" horiz-adv-x="1173" 
d="M901 1317h-655v158h655v-158zM479 -33q-183 0 -282 113.5t-99 339.5v655h199v-641q0 -87 19 -147.5t53.5 -91.5t72.5 -43.5t86 -12.5q141 0 230.5 94t89.5 256v586h199v-1075h-199v182q-114 -215 -369 -215z" />
    <glyph glyph-name="Uring" unicode="&#x16e;" horiz-adv-x="1505" 
d="M778 1718q-80 0 -128 48t-48 128q0 77 48.5 123.5t127.5 46.5t127.5 -46.5t48.5 -123.5q0 -80 -48 -128t-128 -48zM778 1817q34 0 55 20.5t21 54.5t-21 54t-55 20t-55 -20t-21 -54t21 -54.5t55 -20.5zM782 -33q-88 0 -161.5 13.5t-129 37t-99.5 60.5t-75 77.5t-53 96
t-35 107.5t-20 120.5t-9.5 126.5t-2.5 133v817h204v-806q0 -81 2.5 -138t11.5 -123t25 -110.5t44.5 -88.5t68 -70t97.5 -42t132 -16t132 16t97.5 42t68 70t44.5 88.5t25 110.5t11.5 123t2.5 138v806h205v-817q0 -98 -4 -171.5t-18.5 -158.5t-39 -145.5t-68.5 -119.5
t-105 -95.5t-150 -59t-201 -22.5z" />
    <glyph glyph-name="uring" unicode="&#x16f;" horiz-adv-x="1173" 
d="M573 1237q-79 0 -127.5 48.5t-48.5 127.5q0 77 48.5 123.5t127.5 46.5q80 0 128.5 -47t48.5 -123q0 -79 -48.5 -127.5t-128.5 -48.5zM573 1335q34 0 55 21t21 55t-21 54t-55 20t-54.5 -20t-20.5 -54t20.5 -55t54.5 -21zM479 -33q-183 0 -282 113.5t-99 339.5v655h199
v-641q0 -87 19 -147.5t53.5 -91.5t72.5 -43.5t86 -12.5q141 0 230.5 94t89.5 256v586h199v-1075h-199v182q-114 -215 -369 -215z" />
    <glyph glyph-name="Uhungarumlaut" unicode="&#x170;" horiz-adv-x="1505" 
d="M801 2038l-338 -359h-152l221 359h269zM1243 2038l-338 -359h-151l221 359h268zM782 -33q-88 0 -161.5 13.5t-129 37t-99.5 60.5t-75 77.5t-53 96t-35 107.5t-20 120.5t-9.5 126.5t-2.5 133v817h204v-806q0 -81 2.5 -138t11.5 -123t25 -110.5t44.5 -88.5t68 -70t97.5 -42
t132 -16t132 16t97.5 42t68 70t44.5 88.5t25 110.5t11.5 123t2.5 138v806h205v-817q0 -98 -4 -171.5t-18.5 -158.5t-39 -145.5t-68.5 -119.5t-105 -95.5t-150 -59t-201 -22.5z" />
    <glyph glyph-name="uhungarumlaut" unicode="&#x171;" horiz-adv-x="1173" 
d="M596 1556l-338 -358h-152l222 358h268zM1038 1556l-338 -358h-151l221 358h268zM479 -33q-183 0 -282 113.5t-99 339.5v655h199v-641q0 -87 19 -147.5t53.5 -91.5t72.5 -43.5t86 -12.5q141 0 230.5 94t89.5 256v586h199v-1075h-199v182q-114 -215 -369 -215z" />
    <glyph glyph-name="Uogonek" unicode="&#x172;" horiz-adv-x="1505" 
d="M1163 1556h205v-817q0 -95 -4 -167t-17 -155t-36.5 -143t-64.5 -119t-98 -97t-139.5 -62.5t-187.5 -28.5q-96 -91 -96 -166q0 -42 34.5 -65t100.5 -23q35 0 62 4v-125q-40 -6 -97 -6q-118 0 -176.5 54.5t-58.5 128.5q0 106 125 200q-77 5 -142 22.5t-114 42.5t-88.5 63
t-66.5 78.5t-46.5 94.5t-31 104.5t-18.5 116t-9 121.5t-2 127v817h204v-806q0 -81 2.5 -138t11.5 -123t25 -110.5t44.5 -88.5t68 -70t97.5 -42t132 -16t132 16t97.5 42t68 70t44.5 88.5t25 110.5t11.5 123t2.5 138v806z" />
    <glyph glyph-name="uogonek" unicode="&#x173;" horiz-adv-x="1173" 
d="M999 -287q35 0 62 4v-125q-40 -6 -96 -6q-118 0 -177 55t-59 128q0 122 168 231h-49v182q-114 -215 -369 -215q-183 0 -282 113.5t-99 339.5v655h199v-641q0 -87 19 -147.5t53.5 -91.5t72.5 -43.5t86 -12.5q141 0 230.5 94t89.5 256v586h199v-1075h-50
q-133 -112 -133 -199q0 -42 34.5 -65t100.5 -23z" />
    <glyph glyph-name="Wcircumflex" unicode="&#x174;" horiz-adv-x="2228" 
d="M1468 1679h-151l-203 238l-205 -238h-151l241 359h228zM467 0l-432 1556h229l316 -1312l403 1312h262l404 -1312l315 1312h229l-432 -1556h-223l-424 1343l-424 -1343h-223z" />
    <glyph glyph-name="wcircumflex" unicode="&#x175;" horiz-adv-x="1792" 
d="M1251 1198h-151l-203 238l-205 -238h-151l241 358h228zM436 0l-409 1075h219l284 -831h5l251 831h220l254 -831h4l282 831h219l-409 -1075h-191l-266 852h-4l-268 -852h-191z" />
    <glyph glyph-name="Ycircumflex" unicode="&#x176;" horiz-adv-x="1390" 
d="M1051 1679h-152l-203 238l-204 -238h-152l242 359h227zM592 0v539l-543 1017h234l413 -827l412 827h233l-544 -1017v-539h-205z" />
    <glyph glyph-name="ycircumflex" unicode="&#x177;" horiz-adv-x="1062" 
d="M887 1198h-152l-203 238l-204 -238h-152l242 358h227zM266 -492l170 492l-409 1075h219l248 -737l36 -100h5l36 100l246 737h219l-377 -979l-200 -588h-193z" />
    <glyph glyph-name="Ydieresis" unicode="&#x178;" horiz-adv-x="1390" 
d="M449 1853v185h169v-185h-169zM772 1853v185h170v-185h-170zM592 0v539l-543 1017h234l413 -827l412 827h233l-544 -1017v-539h-205z" />
    <glyph glyph-name="Zacute" unicode="&#x179;" horiz-adv-x="1335" 
d="M918 2038l-338 -359h-152l221 359h269zM330 197h930v-197h-1170v197l846 1163h-825v196h1065l2 -196z" />
    <glyph glyph-name="zacute" unicode="&#x17a;" horiz-adv-x="1110" 
d="M805 1556l-338 -358h-152l222 358h268zM299 170h754v-170h-985v170l712 735h-702v170h932l2 -170z" />
    <glyph glyph-name="Zdotaccent" unicode="&#x17b;" horiz-adv-x="1335" 
d="M674 1792q-59 0 -100.5 40.5t-41.5 100.5q0 57 41.5 97.5t100.5 40.5q57 0 99 -40.5t42 -97.5q0 -59 -41.5 -100t-99.5 -41zM330 197h930v-197h-1170v197l846 1163h-825v196h1065l2 -196z" />
    <glyph glyph-name="zdotaccent" unicode="&#x17c;" horiz-adv-x="1110" 
d="M561 1311q-59 0 -100 40.5t-41 100.5q0 57 41 97t100 40q57 0 99 -40t42 -97q0 -59 -41.5 -100t-99.5 -41zM299 170h754v-170h-985v170l712 735h-702v170h932l2 -170z" />
    <glyph glyph-name="Zcaron" unicode="&#x17d;" horiz-adv-x="1335" 
d="M1028 2038l-242 -359h-227l-242 359h152l205 -238l203 238h151zM330 197h930v-197h-1170v197l846 1163h-825v196h1065l2 -196z" />
    <glyph glyph-name="zcaron" unicode="&#x17e;" horiz-adv-x="1110" 
d="M915 1556l-241 -358h-228l-241 358h151l205 -237l203 237h151zM299 170h754v-170h-985v170l712 735h-702v170h932l2 -170z" />
    <glyph glyph-name="AEacute" unicode="&#x1fc;" horiz-adv-x="2385" 
d="M1450 2038l-338 -359h-151l221 359h268zM1321 209h868v-209h-1077v444h-606l-221 -444h-230l772 1556h1327v-208h-833v-424h752v-209h-752v-506zM950 1348l-342 -693h504v693h-162z" />
    <glyph glyph-name="aeacute" unicode="&#x1fd;" horiz-adv-x="1906" 
d="M1198 1556l-338 -358h-151l221 358h268zM489 -33q-96 0 -170 21t-118.5 54t-73 78t-39 88.5t-10.5 90.5q0 52 12.5 98.5t49.5 97t96.5 86.5t162 59.5t236.5 23.5h201q0 48 -5 84.5t-21.5 73t-44 60t-74.5 38t-111 14.5q-129 0 -190 -52t-64 -134h-203q2 55 16.5 104
t48.5 97t85 82.5t132.5 55.5t184.5 21q276 0 379 -162q137 162 379 162q212 0 339.5 -129.5t139.5 -382.5v-123l-2 -4l-785 -2q14 -153 94 -240.5t218 -87.5q117 0 191 60.5t87 152.5h197q-1 -69 -34.5 -137t-92 -123.5t-148.5 -90t-194 -34.5q-144 0 -254 61t-160 154
q-132 -215 -455 -215zM1042 637h588q-39 299 -280 299q-129 0 -208 -79.5t-100 -219.5zM510 141q157 0 242.5 64.5t85.5 173.5v131h-211q-353 0 -353 -203q0 -84 57.5 -125t178.5 -41z" />
    <glyph glyph-name="Scommaaccent" unicode="&#x218;" horiz-adv-x="1370" 
d="M745 -33q-167 0 -296 42.5t-209 117.5t-123.5 169.5t-53.5 207.5h213q23 -99 69 -167.5t113 -107t144 -55t176 -16.5q157 0 245.5 58.5t88.5 174.5q0 49 -17.5 89t-42 65t-64 46t-68.5 31.5t-70 22.5q-5 1 -144.5 36.5t-226.5 66.5q-78 28 -132.5 58t-101 74t-70 106
t-23.5 142q0 99 33.5 179t88.5 131.5t128.5 86.5t149 49.5t155.5 14.5q261 0 407 -143t152 -377h-209q-8 96 -45 164t-93 102t-113 48t-122 14q-36 0 -72 -4t-83 -19.5t-82.5 -40t-60 -71t-24.5 -107.5q0 -83 45.5 -131.5t147.5 -85.5q25 -9 49.5 -17t41 -13t45 -12.5
t42 -10.5t51 -12t54.5 -13q135 -33 198 -60q270 -116 271 -386q0 -229 -139.5 -338t-422.5 -109zM553 -492l70 349h180l-129 -349h-121z" />
    <glyph glyph-name="scommaaccent" unicode="&#x219;" horiz-adv-x="1079" 
d="M594 -33q-130 0 -229 30t-160.5 83.5t-94.5 121t-40 150.5h196q27 -121 109 -170t231 -49q93 0 146 37.5t53 112.5q0 30 -13 55t-32 41.5t-50.5 31t-58 22.5t-63.5 18q-50 13 -78 20t-71.5 19t-67.5 21t-59 23t-54.5 27.5t-44 31.5t-37.5 37.5t-26 43.5t-18.5 52.5
t-6.5 61.5q-1 84 34 147.5t98 100.5t140 54.5t168 17.5q190 0 296 -98t112 -262h-197q-10 107 -74 150.5t-151 43.5q-234 0 -234 -141q0 -30 12 -52.5t32 -39t60.5 -31.5t83 -26t113.5 -27l58.5 -13.5t57.5 -15.5t58.5 -19.5t52.5 -24.5t50.5 -32t40.5 -39t33.5 -49.5
t19.5 -61t8 -73.5q0 -330 -403 -330zM430 -492l70 349h180l-129 -349h-121z" />
    <glyph glyph-name="uni021A" unicode="&#x21a;" horiz-adv-x="1267" 
d="M1212 1360h-475v-1360h-205v1360h-477v196h1155zM510 -492l70 349h180l-129 -349h-121z" />
    <glyph glyph-name="uni021B" unicode="&#x21b;" horiz-adv-x="696" 
d="M514 -20q-179 0 -254.5 75t-75.5 232v618h-143v150q91 0 122.5 41t31.5 141v115h188v-277h240v-170h-240v-577q0 -103 39.5 -140.5t140.5 -37.5q39 0 70 2v-166q-71 -6 -119 -6zM229 -492l70 349h180l-129 -349h-121z" />
    <glyph glyph-name="circumflex" unicode="&#x2c6;" horiz-adv-x="915" 
d="M618 1198h-151l-203 238l-205 -238h-151l242 358h227z" />
    <glyph glyph-name="caron" unicode="&#x2c7;" horiz-adv-x="915" 
d="M598 1556l-242 -358h-227l-242 358h152l205 -237l202 237h152z" />
    <glyph glyph-name="breve" unicode="&#x2d8;" horiz-adv-x="942" 
d="M526 1556h168q0 -161 -103 -259.5t-272 -98.5t-272.5 98.5t-103.5 259.5h168q0 -94 57 -150t151 -56t150.5 56t56.5 150z" />
    <glyph glyph-name="dotaccent" unicode="&#x2d9;" horiz-adv-x="540" 
d="M10 1311q-59 0 -100 40.5t-41 100.5q0 57 41 97t100 40q57 0 99.5 -40t42.5 -97q0 -59 -42 -100t-100 -41z" />
    <glyph glyph-name="ring" unicode="&#x2da;" horiz-adv-x="602" 
d="M119 1237q-79 0 -127.5 48.5t-48.5 127.5q0 77 48.5 123.5t127.5 46.5t127.5 -46.5t48.5 -123.5q0 -79 -48.5 -127.5t-127.5 -48.5zM119 1335q34 0 55 21t21 55t-21 54t-55 20t-55 -20t-21 -54t21 -55t55 -21z" />
    <glyph glyph-name="ogonek" unicode="&#x2db;" horiz-adv-x="528" 
d="M344 -414q-118 0 -176.5 54.5t-58.5 128.5q0 27 7.5 53t23 48.5t29.5 40t37.5 36.5t35 28t33 23.5t22.5 15.5h98q-151 -118 -151 -213q0 -42 34.5 -65t100.5 -23q34 0 61 4v-125q-41 -6 -96 -6z" />
    <glyph glyph-name="tilde" unicode="&#x2dc;" horiz-adv-x="907" 
d="M190 1516q41 0 79 -20t61.5 -43.5t52.5 -43.5t55 -20q34 0 56 31.5t22 84.5h141q0 -130 -54.5 -198t-143.5 -68q-38 0 -71 13.5t-56 32.5t-43 37.5t-41 32t-41 13.5q-34 0 -54 -32.5t-20 -86.5h-141q0 116 56 191.5t142 75.5z" />
    <glyph glyph-name="hungarumlaut" unicode="&#x2dd;" horiz-adv-x="1021" 
d="M545 1556l-338 -358h-152l221 358h269zM987 1556l-338 -358h-151l221 358h268z" />
    <glyph glyph-name="gravecomb" unicode="&#x300;" 
d="M-545 1556h269l221 -358h-152z" />
    <glyph glyph-name="acutecomb" unicode="&#x301;" 
d="M-35 1556l-338 -358h-151l221 358h268z" />
    <glyph glyph-name="uni0302" unicode="&#x302;" 
d="M-102 1198h-152l-203 238l-205 -238h-151l242 358h227z" />
    <glyph glyph-name="tildecomb" unicode="&#x303;" 
d="M-590 1516q41 0 79 -20t61.5 -43.5t52.5 -43.5t55 -20q34 0 56 31.5t22 84.5h141q0 -130 -55 -198t-144 -68q-38 0 -71 13.5t-56 32.5t-42.5 37.5t-40.5 32t-41 13.5q-34 0 -54 -32.5t-20 -86.5h-141q0 116 56 191.5t142 75.5z" />
    <glyph glyph-name="uni0304" unicode="&#x304;" 
d="M-158 1317h-655v158h655v-158z" />
    <glyph glyph-name="uni0306" unicode="&#x306;" 
d="M-264 1556h168q0 -161 -103 -259.5t-272 -98.5t-273 98.5t-104 259.5h168q0 -93 57.5 -149.5t151.5 -56.5t150.5 56t56.5 150z" />
    <glyph glyph-name="uni0307" unicode="&#x307;" 
d="M-270 1311q-59 0 -100.5 40.5t-41.5 100.5q0 57 41.5 97t100.5 40q57 0 99 -40t42 -97q0 -59 -41.5 -100t-99.5 -41z" />
    <glyph glyph-name="uni0308" unicode="&#x308;" 
d="M-596 1372v184h170v-184h-170zM-272 1372v184h170v-184h-170z" />
    <glyph glyph-name="uni030A" unicode="&#x30a;" 
d="M-301 1237q-79 0 -127.5 48.5t-48.5 127.5q0 77 48.5 123.5t127.5 46.5t127.5 -46.5t48.5 -123.5q0 -79 -48.5 -127.5t-127.5 -48.5zM-301 1335q34 0 55 21t21 55t-21 54t-55 20t-55 -20t-21 -54t21 -55t55 -21z" />
    <glyph glyph-name="uni030B" unicode="&#x30b;" 
d="M-477 1556l-338 -358h-152l222 358h268zM-35 1556l-338 -358h-151l221 358h268z" />
    <glyph glyph-name="uni030C" unicode="&#x30c;" 
d="M-102 1556l-242 -358h-227l-242 358h151l205 -237l203 237h152z" />
    <glyph glyph-name="uni0312" unicode="&#x312;" 
d="M-143 1661l-88 -231h92v-232h-242v232l111 231h127z" />
    <glyph glyph-name="uni0326" unicode="&#x326;" 
d="M-342 -492l70 349h180l-129 -349h-121z" />
    <glyph glyph-name="uni0327" unicode="&#x327;" 
d="M-299 -104h29q73 0 118.5 -37t45.5 -97q0 -70 -53.5 -112.5t-141.5 -42.5h-117v96h105q42 0 67 15.5t25 41.5q0 23 -25.5 37.5t-66.5 14.5h-84v84l139 153h117z" />
    <glyph glyph-name="uni0328" unicode="&#x328;" 
d="M-184 -414q-118 0 -177 55t-59 128q0 27 7.5 53t23.5 48.5t30 40.5t37 36.5t35 27.5t33.5 23.5t22.5 15.5h98q-152 -119 -152 -213q0 -42 34.5 -65t100.5 -23q35 0 62 4v-125q-40 -6 -96 -6z" />
    <glyph glyph-name="uni0335" unicode="&#x335;" 
d="M-158 465h-655v158h655v-158z" />
    <glyph glyph-name="uni0336" unicode="&#x336;" 
d="M-158 623v-158h-1306v158h1306z" />
    <glyph glyph-name="uni0337" unicode="&#x337;" 
d="M-680 743l608 406v-219l-608 -406v219z" />
    <glyph glyph-name="uni0338" unicode="&#x338;" 
d="M-1327 -238l1141 1794h178l-1141 -1794h-178z" />
    <glyph glyph-name="Wgrave" unicode="&#x1e80;" horiz-adv-x="2228" 
d="M868 2038h269l221 -359h-152zM467 0l-432 1556h229l316 -1312l403 1312h262l404 -1312l315 1312h229l-432 -1556h-223l-424 1343l-424 -1343h-223z" />
    <glyph glyph-name="wgrave" unicode="&#x1e81;" horiz-adv-x="1792" 
d="M651 1556h269l221 -358h-152zM436 0l-409 1075h219l284 -831h5l251 831h220l254 -831h4l282 831h219l-409 -1075h-191l-266 852h-4l-268 -852h-191z" />
    <glyph glyph-name="Wacute" unicode="&#x1e82;" horiz-adv-x="2228" 
d="M1358 2038l-338 -359h-152l222 359h268zM467 0l-432 1556h229l316 -1312l403 1312h262l404 -1312l315 1312h229l-432 -1556h-223l-424 1343l-424 -1343h-223z" />
    <glyph glyph-name="wacute" unicode="&#x1e83;" horiz-adv-x="1792" 
d="M1141 1556l-338 -358h-152l221 358h269zM436 0l-409 1075h219l284 -831h5l251 831h220l254 -831h4l282 831h219l-409 -1075h-191l-266 852h-4l-268 -852h-191z" />
    <glyph glyph-name="Wdieresis" unicode="&#x1e84;" horiz-adv-x="2228" 
d="M866 1853v185h170v-185h-170zM1190 1853v185h170v-185h-170zM467 0l-432 1556h229l316 -1312l403 1312h262l404 -1312l315 1312h229l-432 -1556h-223l-424 1343l-424 -1343h-223z" />
    <glyph glyph-name="wdieresis" unicode="&#x1e85;" horiz-adv-x="1792" 
d="M649 1372v184h170v-184h-170zM973 1372v184h170v-184h-170zM436 0l-409 1075h219l284 -831h5l251 831h220l254 -831h4l282 831h219l-409 -1075h-191l-266 852h-4l-268 -852h-191z" />
    <glyph glyph-name="Ygrave" unicode="&#x1ef2;" horiz-adv-x="1390" 
d="M451 2038h268l221 -359h-152zM592 0v539l-543 1017h234l413 -827l412 827h233l-544 -1017v-539h-205z" />
    <glyph glyph-name="ygrave" unicode="&#x1ef3;" horiz-adv-x="1062" 
d="M287 1556h268l221 -358h-151zM266 -492l170 492l-409 1075h219l248 -737l36 -100h5l36 100l246 737h219l-377 -979l-200 -588h-193z" />
    <glyph glyph-name="uni2009" unicode="&#x2009;" horiz-adv-x="409" 
 />
    <glyph glyph-name="endash" unicode="&#x2013;" horiz-adv-x="1370" 
d="M158 444v179h1054v-179h-1054z" />
    <glyph glyph-name="emdash" unicode="&#x2014;" horiz-adv-x="2363" 
d="M158 623h2048v-179h-2048v179z" />
    <glyph glyph-name="quoteleft" unicode="&#x2018;" horiz-adv-x="446" 
d="M340 1540l-88 -231h92v-232h-242v232l111 231h127z" />
    <glyph glyph-name="quoteright" unicode="&#x2019;" horiz-adv-x="446" 
d="M106 1075l89 232h-93v231h242v-231l-111 -232h-127z" />
    <glyph glyph-name="quotesinglbase" unicode="&#x201a;" horiz-adv-x="446" 
d="M106 -231l89 231h-93v231h242v-231l-111 -231h-127z" />
    <glyph glyph-name="quotedblleft" unicode="&#x201c;" horiz-adv-x="811" 
d="M102 1077v232l111 231h127l-88 -231h92v-232h-242zM467 1077v232l111 231h127l-89 -231h93v-232h-242z" />
    <glyph glyph-name="quotedblright" unicode="&#x201d;" horiz-adv-x="811" 
d="M106 1075l89 232h-93v231h242v-231l-111 -232h-127zM471 1075l88 232h-92v231h242v-231l-111 -232h-127z" />
    <glyph glyph-name="quotedblbase" unicode="&#x201e;" horiz-adv-x="811" 
d="M106 -231l89 231h-93v231h242v-231l-111 -231h-127zM471 -231l88 231h-92v231h242v-231l-111 -231h-127z" />
    <glyph glyph-name="dagger" unicode="&#x2020;" horiz-adv-x="1134" 
d="M469 -492v687h-373v137h373v1224h199v-1224h370v-137h-370v-687h-199z" />
    <glyph glyph-name="daggerdbl" unicode="&#x2021;" horiz-adv-x="1179" 
d="M1061 616h-371v-284h371v-137h-371v-687h-198v687h-373v137h373v284h-373v138h373v802h198v-802h371v-138z" />
    <glyph glyph-name="bullet" unicode="&#x2022;" horiz-adv-x="618" 
d="M309 338q-87 0 -147 60t-60 147q0 85 60.5 144t146.5 59q84 0 145.5 -59.5t61.5 -143.5q0 -87 -61.5 -147t-145.5 -60z" />
    <glyph glyph-name="ellipsis" unicode="&#x2026;" horiz-adv-x="1216" 
d="M102 0v231h242v-231h-242zM487 0v231h242v-231h-242zM872 0v231h242v-231h-242z" />
    <glyph glyph-name="perthousand" unicode="&#x2030;" horiz-adv-x="2918" 
d="M395 696q-92 0 -163.5 36t-114.5 98.5t-64.5 141.5t-21.5 171t21.5 170.5t64.5 141t114.5 98.5t163.5 36q93 0 164.5 -36t114.5 -98.5t64.5 -141t21.5 -170.5t-21.5 -171t-64.5 -141.5t-114.5 -98.5t-164.5 -36zM432 -33l944 1622h152l-944 -1622h-152zM395 829
q56 0 99.5 26t69 70.5t38 99.5t12.5 118t-12.5 117.5t-38 99t-69 70.5t-99.5 26t-99.5 -26t-69 -70.5t-38 -99t-12.5 -117.5t12.5 -118t38 -99.5t69 -70.5t99.5 -26zM1534 -18q-92 0 -163.5 36t-114.5 98.5t-65 141t-22 170.5t22 170.5t65 141t114.5 98.5t163.5 36
q93 0 164.5 -36t114 -98.5t64 -141t21.5 -170.5t-21.5 -170.5t-64 -141t-114 -98.5t-164.5 -36zM2454 -18q-92 0 -163.5 36t-114.5 98.5t-65 141t-22 170.5t22 170.5t65 141t114.5 98.5t163.5 36q93 0 164.5 -36t114 -98.5t64 -141t21.5 -170.5t-21.5 -170.5t-64 -141
t-114 -98.5t-164.5 -36zM1534 115q56 0 99.5 26t69 70.5t38 99t12.5 117.5t-12.5 117.5t-38 99t-69 70.5t-99.5 26t-99.5 -26t-69 -70.5t-38 -99t-12.5 -117.5t12.5 -117.5t38 -99t69 -70.5t99.5 -26zM2454 115q56 0 99.5 26t69 70.5t38 99t12.5 117.5t-12.5 117.5t-38 99
t-69 70.5t-99.5 26q-75 0 -126 -45.5t-72.5 -114t-21.5 -153.5t21.5 -153.5t72.5 -114t126 -45.5z" />
    <glyph glyph-name="guilsinglleft" unicode="&#x2039;" horiz-adv-x="706" 
d="M645 997l-369 -454l369 -455h-213l-369 455l369 454h213z" />
    <glyph glyph-name="guilsinglright" unicode="&#x203a;" horiz-adv-x="706" 
d="M61 997h213l369 -454l-369 -455h-213l369 455z" />
    <glyph glyph-name="fraction" unicode="&#x2044;" horiz-adv-x="481" 
d="M-307 -33l944 1622h151l-944 -1622h-151z" />
    <glyph glyph-name="uni2070" unicode="&#x2070;" horiz-adv-x="841" 
d="M422 678q-120 0 -204 61.5t-122.5 160t-38.5 224.5t38.5 224.5t122.5 160.5t204 62q119 0 202.5 -62t121.5 -160.5t38 -224.5q0 -93 -22.5 -173t-66 -141.5t-113.5 -96.5t-160 -35zM420 803q108 0 164.5 90t56.5 231t-56.5 231.5t-164.5 90.5q-106 0 -162.5 -90.5
t-56.5 -231.5t56.5 -231t162.5 -90z" />
    <glyph glyph-name="uni2074" unicode="&#x2074;" horiz-adv-x="796" 
d="M739 1008v-138h-161v-174h-138v174h-383v150l308 532h153l-307 -544h229v202h138v-202h161z" />
    <glyph glyph-name="uni2075" unicode="&#x2075;" horiz-adv-x="804" 
d="M393 678q-139 0 -234 60.5t-102 156.5h148q4 -41 57.5 -67.5t126.5 -26.5q102 0 161.5 50t59.5 134q0 83 -57 134.5t-145 51.5q-65 0 -114.5 -31.5t-68.5 -80.5h-153l127 493h477v-131h-379l-51 -196q68 65 196 65q136 0 221 -85.5t85 -219.5q0 -140 -95.5 -223.5
t-259.5 -83.5z" />
    <glyph glyph-name="uni2076" unicode="&#x2076;" horiz-adv-x="776" 
d="M389 680q-165 0 -248.5 107t-83.5 298q0 216 96.5 350t256.5 134q110 0 182 -58.5t84 -156.5h-144q-9 46 -46 72t-85 26q-86 0 -140 -82.5t-62 -220.5q35 58 96 91.5t141 33.5q126 0 204.5 -80t78.5 -209q0 -138 -90.5 -221.5t-239.5 -83.5zM391 801q80 0 130 48.5
t50 129.5q0 79 -50 127.5t-130 48.5t-130 -48.5t-50 -127.5q0 -80 49.5 -129t130.5 -49z" />
    <glyph glyph-name="uni2077" unicode="&#x2077;" horiz-adv-x="677" 
d="M113 696l358 719h-414v137h564v-137l-355 -719h-153z" />
    <glyph glyph-name="uni2078" unicode="&#x2078;" horiz-adv-x="860" 
d="M432 676q-93 0 -163.5 23.5t-109.5 63t-58 84t-19 93.5q0 77 43 133.5t119 79.5q-121 63 -121 178q0 97 77.5 167.5t231.5 70.5q80 0 141.5 -20.5t96.5 -54.5t52 -74.5t17 -84.5q0 -56 -30.5 -103.5t-90.5 -78.5q75 -23 117.5 -79t42.5 -134q0 -49 -18 -93.5t-56 -84
t-108 -63t-164 -23.5zM430 1210q81 0 122.5 34t41.5 85q0 54 -41.5 89.5t-122.5 35.5q-82 0 -124 -36t-42 -89q0 -51 42 -85t124 -34zM430 799q103 0 152 42t49 99q0 61 -47.5 102t-153.5 41q-105 0 -153 -40t-48 -103q0 -57 49 -99t152 -42z" />
    <glyph glyph-name="uni2079" unicode="&#x2079;" horiz-adv-x="790" 
d="M377 678q-133 0 -220 58.5t-98 150.5h148q7 -41 53.5 -66.5t114.5 -25.5q99 0 159 77.5t60 192.5v20q-36 -49 -103 -77.5t-141 -28.5q-134 0 -213.5 81.5t-79.5 209.5q0 131 88.5 216t243.5 85q165 0 254.5 -104t89.5 -316q0 -213 -95 -343t-261 -130zM387 1098
q89 0 143 46.5t54 123.5q0 82 -54 131t-143 49q-88 0 -141 -49t-53 -131q0 -77 53 -123.5t141 -46.5z" />
    <glyph glyph-name="Euro" unicode="&#x20ac;" horiz-adv-x="1478" 
d="M1130 -33q-278 0 -448.5 127t-237.5 344h-331l39 152h260q-11 90 -11 149q0 36 2 54h-231l39 149h209q24 123 76.5 224t137.5 179.5t211.5 122t284.5 43.5q137 0 250 -22v-180q-118 24 -245 24q-214 0 -344 -106.5t-177 -284.5h492l-37 -149h-477q-2 -18 -2 -58
q0 -75 12 -145h449l-39 -152h-365q60 -137 181.5 -215t304.5 -78q124 0 247 25v-180q-118 -23 -250 -23z" />
    <glyph glyph-name="trademark" unicode="&#x2122;" horiz-adv-x="849" 
d="M342 1556v-47h-119v-342h-47v342h-119v47h285zM676 1556h53v-389h-47v271l-88 -271h-66l-88 271v-271h-47v389h53l113 -335z" />
    <glyph glyph-name="oneeighth" unicode="&#x215b;" horiz-adv-x="1697" 
d="M176 -33l944 1622h152l-944 -1622h-152zM201 700v715h-170v141h311v-856h-141zM1251 -20q-93 0 -163.5 23.5t-109.5 63t-58 84t-19 93.5q0 77 43 133.5t119 79.5q-121 63 -121 178q0 97 77.5 167t231.5 70q80 0 141.5 -20t96.5 -54.5t52.5 -74.5t17.5 -84
q0 -56 -30.5 -103.5t-90.5 -78.5q75 -23 117 -79t42 -134q0 -49 -18 -93.5t-56 -84t-108 -63t-164 -23.5zM1249 514q81 0 122.5 34t41.5 85q0 54 -41.5 89.5t-122.5 35.5q-82 0 -124 -36t-42 -89q0 -51 42 -85t124 -34zM1249 102q103 0 152 42.5t49 99.5q0 61 -47.5 102
t-153.5 41q-105 0 -152.5 -40t-47.5 -103q0 -58 48.5 -100t151.5 -42z" />
    <glyph glyph-name="threeeighths" unicode="&#x215c;" horiz-adv-x="1865" 
d="M387 -33l944 1622h152l-944 -1622h-152zM408 682q-150 0 -247.5 62.5t-103.5 154.5h152q4 -43 64 -66.5t137 -23.5q106 0 154 43.5t48 112.5q0 159 -270 159h-78v121l262 170h-420v141h609v-151l-277 -174l8 -4q132 0 220 -69t88 -189q0 -53 -18.5 -101.5t-57 -91.5
t-108.5 -68.5t-162 -25.5zM1462 -20q-93 0 -163.5 23.5t-109.5 63t-58 84t-19 93.5q0 77 43 133.5t119 79.5q-121 63 -121 178q0 97 77.5 167t231.5 70q80 0 141.5 -20t96.5 -54.5t52 -74.5t17 -84q0 -119 -120 -182q75 -23 117 -79t42 -134q0 -49 -18 -93.5t-56 -84
t-108 -63t-164 -23.5zM1460 514q81 0 122.5 34t41.5 85q0 54 -41.5 89.5t-122.5 35.5q-82 0 -124 -36t-42 -89q0 -51 42 -85t124 -34zM1460 102q103 0 152 42.5t49 99.5q0 61 -47.5 102t-153.5 41q-105 0 -152.5 -40t-47.5 -103q0 -58 48.5 -100t151.5 -42z" />
    <glyph glyph-name="fiveeighths" unicode="&#x215d;" horiz-adv-x="2013" 
d="M535 -33l944 1622h151l-944 -1622h-151zM393 682q-139 0 -234 60.5t-102 156.5h148q4 -41 57.5 -67.5t126.5 -26.5q102 0 161.5 50t59.5 134q0 83 -57 135t-145 52q-65 0 -114 -32t-69 -81h-153l127 493h477v-131h-379l-51 -196q68 65 196 65q136 0 221 -85.5t85 -219.5
q0 -140 -95.5 -223.5t-259.5 -83.5zM1610 -20q-93 0 -163.5 23.5t-109.5 63t-58 84t-19 93.5q0 77 42.5 133.5t118.5 79.5q-121 63 -121 178q0 97 78 167t232 70q80 0 141.5 -20t96.5 -54.5t52 -74.5t17 -84q0 -56 -30.5 -103.5t-90.5 -78.5q75 -23 117.5 -79t42.5 -134
q0 -49 -18 -93.5t-56 -84t-108 -63t-164 -23.5zM1608 514q81 0 122.5 34t41.5 85q0 54 -41.5 89.5t-122.5 35.5q-82 0 -124 -36t-42 -89q0 -51 42 -85t124 -34zM1608 102q103 0 151.5 42t48.5 100q0 61 -47 102t-153 41q-105 0 -153 -40t-48 -103q0 -57 49 -99.5t152 -42.5z
" />
    <glyph glyph-name="seveneighths" unicode="&#x215e;" horiz-adv-x="1675" 
d="M197 -33l944 1622h151l-944 -1622h-151zM113 700l366 715h-422v141h576v-151l-363 -705h-157zM1272 -20q-93 0 -163.5 23.5t-109.5 63t-58 84t-19 93.5q0 77 42.5 133.5t118.5 79.5q-120 63 -120 178q0 97 77.5 167t231.5 70q80 0 141.5 -20t96.5 -54.5t52 -74.5t17 -84
q0 -56 -30.5 -103.5t-90.5 -78.5q75 -23 117.5 -79t42.5 -134q0 -49 -18 -93.5t-56 -84t-108 -63t-164 -23.5zM1270 514q81 0 122.5 34t41.5 85q0 54 -41.5 89.5t-122.5 35.5q-82 0 -124 -36t-42 -89q0 -51 42 -85t124 -34zM1270 102q103 0 151.5 42t48.5 100q0 61 -47 102
t-153 41q-105 0 -153 -40t-48 -103q0 -57 49 -99.5t152 -42.5z" />
    <glyph glyph-name="arrowleft" unicode="&#x2190;" horiz-adv-x="1867" 
d="M1712 659v-114h-1218l258 -283l-596 340l596 340l-258 -283h1218z" />
    <glyph glyph-name="arrowup" unicode="&#x2191;" horiz-adv-x="991" 
d="M438 0v1219l-282 -258l340 595l340 -595l-283 258v-1219h-115z" />
    <glyph glyph-name="arrowright" unicode="&#x2192;" horiz-adv-x="1867" 
d="M156 659h1218l-258 283l596 -340l-596 -340l258 283h-1218v114z" />
    <glyph glyph-name="arrowdown" unicode="&#x2193;" horiz-adv-x="991" 
d="M438 1556h115v-1218l283 258l-340 -596l-340 596l282 -258v1218z" />
    <glyph glyph-name="arrowboth" unicode="&#x2194;" horiz-adv-x="2437" 
d="M2281 602l-595 -340l258 283h-1450l258 -283l-596 340l596 340l-258 -283h1450l-258 283z" />
    <glyph glyph-name="arrowupdn" unicode="&#x2195;" horiz-adv-x="991" 
d="M496 0l-340 596l282 -258v881l-282 -258l340 595l340 -595l-283 258v-881l283 258z" />
    <glyph glyph-name="uni2196" unicode="&#x2196;" horiz-adv-x="1867" 
d="M1632 0l-1280 1276l-18 -379l-178 659l659 -180l-383 -16l1280 -1280z" />
    <glyph glyph-name="uni2197" unicode="&#x2197;" horiz-adv-x="1867" 
d="M236 0l-80 80l1280 1280l-383 16l659 180l-178 -659l-18 379z" />
    <glyph glyph-name="uni2198" unicode="&#x2198;" horiz-adv-x="1867" 
d="M236 1556l1280 -1275l18 378l178 -659l-659 180l383 17l-1280 1280z" />
    <glyph glyph-name="uni2199" unicode="&#x2199;" horiz-adv-x="1867" 
d="M1632 1556l80 -79l-1280 -1280l383 -17l-659 -180l178 659l18 -378z" />
    <glyph glyph-name="partialdiff" unicode="&#x2202;" horiz-adv-x="1339" 
d="M641 -33q-226 0 -357.5 132t-131.5 358q0 123 41.5 227.5t113.5 175.5t169.5 110.5t207.5 39.5q269 0 385 -230q15 627 -412 627q-70 0 -131.5 -17t-116.5 -53.5t-91 -103.5t-44 -158h-161q28 219 182 350t383 131q275 0 412 -197.5t137 -572.5q0 -173 -29.5 -311.5
t-81 -232.5t-126 -156.5t-161 -90.5t-188.5 -28zM649 115q89 0 159.5 33t115 89t67.5 127t23 150q0 153 -84.5 247.5t-243.5 94.5q-164 0 -264 -101t-100 -282q0 -165 86 -261.5t241 -96.5z" />
    <glyph glyph-name="emptyset" unicode="&#x2205;" horiz-adv-x="1460" 
d="M1087 1042q110 -78 171 -202.5t61 -282.5q0 -265 -162 -427.5t-426 -162.5q-137 0 -244 43l-153 -264h-152l191 326q-110 78 -171 202.5t-61 282.5q0 265 162.5 427.5t427.5 162.5q135 0 242 -43l153 264h152zM272 557q0 -119 44 -213.5t124 -155.5l465 799
q-85 29 -174 29q-205 0 -332 -127t-127 -332zM731 98q205 0 331 126.5t126 332.5q0 119 -44 213.5t-124 155.5l-465 -799q85 -29 176 -29z" />
    <glyph glyph-name="product" unicode="&#x220f;" horiz-adv-x="1552" 
d="M197 -238v1794h1159v-1794h-178v1616h-803v-1616h-178z" />
    <glyph glyph-name="summation" unicode="&#x2211;" horiz-adv-x="1552" 
d="M1335 1378h-960l456 -678l-456 -759h981v-179h-1159v199l436 739l-436 658v198h1138v-178z" />
    <glyph glyph-name="minus" unicode="&#x2212;" horiz-adv-x="1146" 
d="M1044 465h-942v137h942v-137z" />
    <glyph glyph-name="radical" unicode="&#x221a;" horiz-adv-x="1505" 
d="M1409 1556v-178h-319l-570 -1611h-190l-303 784h206l148 -434l43 -117h4l41 117l487 1439h453z" />
    <glyph glyph-name="infinity" unicode="&#x221e;" horiz-adv-x="1826" 
d="M481 172q-179 0 -297 115.5t-118 300.5q0 184 117.5 297.5t297.5 113.5q134 0 245.5 -65.5t186.5 -181.5q75 116 187 181.5t246 65.5q180 0 297.5 -113.5t117.5 -297.5q0 -185 -118 -300.5t-297 -115.5q-133 0 -245.5 66.5t-187.5 183.5q-75 -117 -187 -183.5t-245 -66.5
zM498 303q116 0 203.5 76t136.5 207q-52 135 -137.5 208.5t-198.5 73.5q-122 0 -206.5 -78t-84.5 -204q0 -125 82.5 -204t204.5 -79zM1331 303q121 0 203 79t82 204q0 126 -84.5 204t-206.5 78q-113 0 -198.5 -73.5t-137.5 -208.5q49 -131 137 -207t205 -76z" />
    <glyph glyph-name="integral" unicode="&#x222b;" horiz-adv-x="1179" 
d="M961 1589q31 0 62.5 -3t47.5 -6l16 -3l-30 -174q-23 6 -66 6q-86 0 -131 -33.5t-57 -103.5l-223 -1272q-30 -173 -116.5 -259.5t-244.5 -86.5q-31 0 -63 3t-48 6l-16 3l31 174q22 -6 65 -6q87 0 132 33.5t57 103.5l223 1272q30 173 116.5 259.5t244.5 86.5z" />
    <glyph glyph-name="approxequal" unicode="&#x2248;" horiz-adv-x="1386" 
d="M907 612q-56 0 -105.5 20t-85.5 49t-68.5 57.5t-68.5 48.5t-73 20q-50 0 -91.5 -35t-41.5 -117v-32h-137v30q0 118 72.5 199.5t193.5 81.5q57 0 107 -20t86 -49t69 -57.5t71 -48.5t76 -20q103 0 103 140v24h137v-20q0 -111 -62 -191t-182 -80zM907 223q-56 0 -105.5 20
t-85.5 48.5t-68.5 57.5t-68.5 49t-73 20q-50 0 -91.5 -35t-41.5 -117v-33h-137v31q0 118 72.5 199.5t193.5 81.5q57 0 107 -20t86 -48.5t69 -57.5t71 -49t76 -20q103 0 103 139v25h137v-20q0 -111 -62 -191t-182 -80z" />
    <glyph glyph-name="notequal" unicode="&#x2260;" horiz-adv-x="1261" 
d="M1102 711h-332l-98 -312h430v-137h-475l-82 -262h-168l82 262h-299v137h344l98 312h-442v137h485l72 227h168l-72 -227h289v-137z" />
    <glyph glyph-name="lessequal" unicode="&#x2264;" horiz-adv-x="1193" 
d="M940 137l-782 420v209l860 483v-145l-772 -442l813 -443v-219h-942v137h823z" />
    <glyph glyph-name="greaterequal" unicode="&#x2265;" horiz-adv-x="1191" 
d="M250 137h823v-137h-942v219l813 443l-772 442v145l860 -483v-209z" />
    <glyph glyph-name="lozenge" unicode="&#x25ca;" horiz-adv-x="995" 
d="M395 -33l-368 670l368 670h209l365 -670l-365 -670h-209zM500 55l307 582l-307 582l-307 -582z" />
    <glyph glyph-name="I.ss01" horiz-adv-x="1468" 
d="M156 0v197h477v1163h-477v196h1155l2 -196h-475v-1163h475l-2 -197h-1155z" />
    <glyph glyph-name="Iacute.ss01" horiz-adv-x="1468" 
d="M979 2038l-338 -359h-152l222 359h268zM156 0v197h477v1163h-477v196h1155l2 -196h-475v-1163h475l-2 -197h-1155z" />
    <glyph glyph-name="Icircumflex.ss01" horiz-adv-x="1468" 
d="M1090 1679h-152l-203 238l-205 -238h-151l242 359h227zM156 0v197h477v1163h-477v196h1155l2 -196h-475v-1163h475l-2 -197h-1155z" />
    <glyph glyph-name="Idieresis.ss01" horiz-adv-x="1468" 
d="M580 1831q-42 0 -73.5 30.5t-31.5 75.5q0 41 31.5 71t73.5 30q46 0 75 -29.5t29 -71.5q0 -45 -30.5 -75.5t-73.5 -30.5zM877 1831q-43 0 -74 30.5t-31 75.5q0 41 31 71t74 30q45 0 74.5 -29.5t29.5 -71.5q0 -45 -31 -75.5t-73 -30.5zM156 0v197h477v1163h-477v196h1155
l2 -196h-475v-1163h475l-2 -197h-1155z" />
    <glyph glyph-name="Idotaccent.ss01" horiz-adv-x="1468" 
d="M735 1792q-59 0 -100 40.5t-41 100.5q0 57 41.5 97.5t99.5 40.5q57 0 99.5 -40.5t42.5 -97.5q0 -59 -42 -100t-100 -41zM156 0v197h477v1163h-477v196h1155l2 -196h-475v-1163h475l-2 -197h-1155z" />
    <glyph glyph-name="Igrave.ss01" horiz-adv-x="1468" 
d="M489 2038h269l221 -359h-152zM156 0v197h477v1163h-477v196h1155l2 -196h-475v-1163h475l-2 -197h-1155z" />
    <glyph glyph-name="Imacron.ss01" horiz-adv-x="1468" 
d="M1063 1798h-655v158h655v-158zM156 0v197h477v1163h-477v196h1155l2 -196h-475v-1163h475l-2 -197h-1155z" />
    <glyph glyph-name="Iogonek.ss01" horiz-adv-x="1468" 
d="M838 1360v-1163h475l-2 -197h-527q-133 -112 -133 -199q0 -42 34.5 -65t100.5 -23q35 0 62 4v-125q-41 -6 -96 -6q-118 0 -177 55t-59 128q0 122 168 231h-528v197h477v1163h-477v196h1155l2 -196h-475z" />
    <glyph glyph-name="J.ss01" horiz-adv-x="1208" 
d="M571 -33q-244 0 -381.5 127t-154.5 369h207q19 -152 96 -226.5t219 -74.5q70 0 120 15.5t82 56t50.5 82.5t27.5 124t11 149.5t2 188.5v582h-694v196h897v-782q0 -115 -3 -192.5t-13.5 -169.5t-30.5 -152t-55.5 -120.5t-86 -95t-124.5 -56t-169 -21.5z" />
    <glyph glyph-name="K.ss01" horiz-adv-x="1406" 
d="M889 803l463 -803h-238l-346 592l-350 -592l-17 2v-2h-204v1556h204v-1202l682 1202h238z" />
    <glyph glyph-name="Kcommaaccent.ss01" horiz-adv-x="1406" 
d="M889 803l463 -803h-238l-346 592l-350 -592l-17 2v-2h-204v1556h204v-1202l682 1202h238zM571 -492l70 349h180l-129 -349h-121z" />
    <glyph glyph-name="M.ss01" horiz-adv-x="1773" 
d="M197 0v1556h231l459 -1042l459 1042h231v-1556h-203v1206l-377 -864h-221l-377 864v-1206h-202z" />
    <glyph glyph-name="Q.ss01" horiz-adv-x="1724" 
d="M864 -33q-54 0 -106 6l-94 -145h612v-178h-819v178l121 188q-217 82 -341 283t-124 479q0 180 54 331t151.5 256.5t237.5 164.5t308 59q223 0 393 -101t262.5 -285.5t92.5 -424.5t-92.5 -424.5t-262.5 -285.5t-393 -101zM328 778q0 -276 146 -446t388 -170t388.5 170
t146.5 446t-146.5 446.5t-388.5 170.5t-388 -170t-146 -447z" />
    <glyph glyph-name="R.ss01" horiz-adv-x="1380" 
d="M197 0v1556h544q249 0 385 -103.5t136 -311.5q0 -183 -124.5 -288.5t-369.5 -111.5l557 -741h-238l-569 741h-119v-741h-202zM399 918h367q57 0 108 13.5t92.5 40t66 70t24.5 99.5q0 108 -80 169.5t-242 61.5h-336v-454z" />
    <glyph glyph-name="Racute.ss01" horiz-adv-x="1359" 
d="M1006 2038l-338 -359h-152l221 359h269zM197 0v1556h544q249 0 385 -103.5t136 -311.5q0 -183 -124.5 -288.5t-369.5 -111.5l557 -741h-238l-569 741h-119v-741h-202zM399 918h367q57 0 108 13.5t92.5 40t66 70t24.5 99.5q0 108 -80 169.5t-242 61.5h-336v-454z" />
    <glyph glyph-name="Rcaron.ss01" horiz-adv-x="1359" 
d="M1116 2038l-242 -359h-227l-241 359h151l205 -238l203 238h151zM197 0v1556h544q249 0 385 -103.5t136 -311.5q0 -183 -124.5 -288.5t-369.5 -111.5l557 -741h-238l-569 741h-119v-741h-202zM399 918h367q57 0 108 13.5t92.5 40t66 70t24.5 99.5q0 108 -80 169.5
t-242 61.5h-336v-454z" />
    <glyph glyph-name="Rcommaaccent.ss01" horiz-adv-x="1359" 
d="M197 0v1556h544q249 0 385 -103.5t136 -311.5q0 -183 -124.5 -288.5t-369.5 -111.5l557 -741h-238l-569 741h-119v-741h-202zM399 918h367q57 0 108 13.5t92.5 40t66 70t24.5 99.5q0 108 -80 169.5t-242 61.5h-336v-454zM637 -492l70 349h180l-129 -349h-121z" />
    <glyph glyph-name="U.ss01" horiz-adv-x="1505" 
d="M770 -33q-86 0 -157.5 13t-126 35t-98 57.5t-73.5 74.5t-51.5 93.5t-34.5 106t-20 119t-9.5 127t-2.5 136.5v827h204v-817q0 -62 1.5 -108.5t6 -99.5t13 -91.5t22.5 -79t34 -69t48.5 -54.5t65 -41.5t84.5 -24.5t106 -9t106 9t84.5 24.5t65 41.5t48.5 54.5t34 69t22.5 79
t13 91.5t6 99.5t1.5 108.5v817h205v-1556h-205v150q-57 -100 -150 -141.5t-243 -41.5z" />
    <glyph glyph-name="Uacute.ss01" horiz-adv-x="1505" 
d="M1028 2038l-338 -359h-151l221 359h268zM770 -33q-86 0 -157.5 13t-126 35t-98 57.5t-73.5 74.5t-51.5 93.5t-34.5 106t-20 119t-9.5 127t-2.5 136.5v827h204v-817q0 -62 1.5 -108.5t6 -99.5t13 -91.5t22.5 -79t34 -69t48.5 -54.5t65 -41.5t84.5 -24.5t106 -9t106 9
t84.5 24.5t65 41.5t48.5 54.5t34 69t22.5 79t13 91.5t6 99.5t1.5 108.5v817h205v-1556h-205v150q-57 -100 -150 -141.5t-243 -41.5z" />
    <glyph glyph-name="Ucircumflex.ss01" horiz-adv-x="1507" 
d="M1139 1679h-152l-203 238l-204 -238h-152l242 359h227zM772 -33q-86 0 -157.5 13t-126 35t-98 57.5t-73.5 74.5t-51.5 93.5t-34.5 106t-20 119t-9.5 127t-2.5 136.5v827h204v-817q0 -62 1.5 -108.5t6 -99.5t13 -91.5t22.5 -79t34 -69t48.5 -54.5t65 -41.5t84.5 -24.5
t106 -9t106 9t84.5 24.5t65 41.5t48.5 54.5t34 69t22.5 79t13 91.5t6 99.5t1.5 108.5v817h205v-1556h-205v150q-57 -100 -150 -141.5t-243 -41.5z" />
    <glyph glyph-name="Udieresis.ss01" horiz-adv-x="1505" 
d="M539 1853v185h170v-185h-170zM862 1853v185h170v-185h-170zM770 -33q-86 0 -157.5 13t-126 35t-98 57.5t-73.5 74.5t-51.5 93.5t-34.5 106t-20 119t-9.5 127t-2.5 136.5v827h204v-817q0 -62 1.5 -108.5t6 -99.5t13 -91.5t22.5 -79t34 -69t48.5 -54.5t65 -41.5t84.5 -24.5
t106 -9t106 9t84.5 24.5t65 41.5t48.5 54.5t34 69t22.5 79t13 91.5t6 99.5t1.5 108.5v817h205v-1556h-205v150q-57 -100 -150 -141.5t-243 -41.5z" />
    <glyph glyph-name="Ugrave.ss01" horiz-adv-x="1505" 
d="M539 2038h268l221 -359h-151zM770 -33q-86 0 -157.5 13t-126 35t-98 57.5t-73.5 74.5t-51.5 93.5t-34.5 106t-20 119t-9.5 127t-2.5 136.5v827h204v-817q0 -62 1.5 -108.5t6 -99.5t13 -91.5t22.5 -79t34 -69t48.5 -54.5t65 -41.5t84.5 -24.5t106 -9t106 9t84.5 24.5
t65 41.5t48.5 54.5t34 69t22.5 79t13 91.5t6 99.5t1.5 108.5v817h205v-1556h-205v150q-57 -100 -150 -141.5t-243 -41.5z" />
    <glyph glyph-name="Uhungarumlaut.ss01" horiz-adv-x="1505" 
d="M805 2038l-338 -359h-152l222 359h268zM1247 2038l-338 -359h-151l221 359h268zM770 -33q-86 0 -157.5 13t-126 35t-98 57.5t-73.5 74.5t-51.5 93.5t-34.5 106t-20 119t-9.5 127t-2.5 136.5v827h204v-817q0 -62 1.5 -108.5t6 -99.5t13 -91.5t22.5 -79t34 -69t48.5 -54.5
t65 -41.5t84.5 -24.5t106 -9t106 9t84.5 24.5t65 41.5t48.5 54.5t34 69t22.5 79t13 91.5t6 99.5t1.5 108.5v817h205v-1556h-205v150q-57 -100 -150 -141.5t-243 -41.5z" />
    <glyph glyph-name="Umacron.ss01" horiz-adv-x="1505" 
d="M1110 1798h-655v158h655v-158zM770 -33q-86 0 -157.5 13t-126 35t-98 57.5t-73.5 74.5t-51.5 93.5t-34.5 106t-20 119t-9.5 127t-2.5 136.5v827h204v-817q0 -62 1.5 -108.5t6 -99.5t13 -91.5t22.5 -79t34 -69t48.5 -54.5t65 -41.5t84.5 -24.5t106 -9t106 9t84.5 24.5
t65 41.5t48.5 54.5t34 69t22.5 79t13 91.5t6 99.5t1.5 108.5v817h205v-1556h-205v150q-57 -100 -150 -141.5t-243 -41.5z" />
    <glyph glyph-name="Uogonek.ss01" horiz-adv-x="1505" 
d="M1163 1556h205v-1556h-205v150q-48 -86 -123 -128t-186 -51q-100 -92 -100 -170q0 -42 34.5 -65t100.5 -23q34 0 61 4v-125q-40 -6 -96 -6q-118 0 -177 55t-59 128q0 105 123 198q-104 3 -186.5 25.5t-139 58.5t-97.5 93.5t-64 116t-36 142t-17 156t-4 170.5v827h204
v-817q0 -62 1.5 -108.5t6 -99.5t13 -91.5t22.5 -79t34 -69t48.5 -54.5t65 -41.5t84.5 -24.5t106 -9t106 9t84.5 24.5t65 41.5t48.5 54.5t34 69t22.5 79t13 91.5t6 99.5t1.5 108.5v817z" />
    <glyph glyph-name="Uring.ss01" horiz-adv-x="1505" 
d="M782 1718q-80 0 -128 48t-48 128q0 77 48.5 123.5t127.5 46.5t127.5 -46.5t48.5 -123.5q0 -80 -48 -128t-128 -48zM782 1817q34 0 55 20.5t21 54.5t-21 54t-55 20t-54.5 -20t-20.5 -54t20.5 -54.5t54.5 -20.5zM770 -33q-86 0 -157.5 13t-126 35t-98 57.5t-73.5 74.5
t-51.5 93.5t-34.5 106t-20 119t-9.5 127t-2.5 136.5v827h204v-817q0 -62 1.5 -108.5t6 -99.5t13 -91.5t22.5 -79t34 -69t48.5 -54.5t65 -41.5t84.5 -24.5t106 -9t106 9t84.5 24.5t65 41.5t48.5 54.5t34 69t22.5 79t13 91.5t6 99.5t1.5 108.5v817h205v-1556h-205v150
q-57 -100 -150 -141.5t-243 -41.5z" />
    <glyph glyph-name="X.ss01" horiz-adv-x="1470" 
d="M55 0l516 784l-485 772h246l403 -667l404 667h245l-485 -772l516 -784h-246l-434 684l-434 -684h-246z" />
    <glyph glyph-name="i.loclTRK" horiz-adv-x="514" 
d="M258 1311q-59 0 -100 40.5t-41 100.5q0 57 41 97t100 40q57 0 99 -40t42 -97q0 -59 -41.5 -100t-99.5 -41zM158 0v1075h198v-1075h-198z" />
    <glyph glyph-name="a.ss01" horiz-adv-x="1245" 
d="M559 -33q-225 0 -353 161t-128 413q0 120 31 222.5t90 179.5t153.5 121t214.5 44q117 0 203.5 -46t149.5 -149v162h198v-1075h-198v156q-118 -189 -361 -189zM596 141q147 0 235.5 93.5t88.5 257.5v118q0 147 -91.5 235.5t-236.5 88.5q-157 0 -242.5 -105.5t-85.5 -285.5
q0 -184 87 -293t245 -109z" />
    <glyph glyph-name="aacute.ss01" horiz-adv-x="1245" 
d="M844 1554l-338 -358h-152l221 358h269zM559 -33q-225 0 -353 161t-128 413q0 120 31 222.5t90 179.5t153.5 121t214.5 44q117 0 203.5 -46t149.5 -149v162h198v-1075h-198v156q-118 -189 -361 -189zM596 141q147 0 235.5 93.5t88.5 257.5v118q0 147 -91.5 235.5
t-236.5 88.5q-157 0 -242.5 -105.5t-85.5 -285.5q0 -184 87 -293t245 -109z" />
    <glyph glyph-name="abreve.ss01" horiz-adv-x="1245" 
d="M807 1554h168q0 -161 -103 -259.5t-272 -98.5t-273 98.5t-104 259.5h168q0 -93 57.5 -149.5t151.5 -56.5t150.5 56t56.5 150zM559 -33q-225 0 -353 161t-128 413q0 120 31 222.5t90 179.5t153.5 121t214.5 44q117 0 203.5 -46t149.5 -149v162h198v-1075h-198v156
q-118 -189 -361 -189zM596 141q147 0 235.5 93.5t88.5 257.5v118q0 147 -91.5 235.5t-236.5 88.5q-157 0 -242.5 -105.5t-85.5 -285.5q0 -184 87 -293t245 -109z" />
    <glyph glyph-name="acircumflex.ss01" horiz-adv-x="1245" 
d="M954 1196h-151l-203 238l-205 -238h-151l241 358h228zM559 -33q-225 0 -353 161t-128 413q0 120 31 222.5t90 179.5t153.5 121t214.5 44q117 0 203.5 -46t149.5 -149v162h198v-1075h-198v156q-118 -189 -361 -189zM596 141q147 0 235.5 93.5t88.5 257.5v118
q0 147 -91.5 235.5t-236.5 88.5q-157 0 -242.5 -105.5t-85.5 -285.5q0 -184 87 -293t245 -109z" />
    <glyph glyph-name="adieresis.ss01" horiz-adv-x="1245" 
d="M461 1350q-42 0 -73.5 30.5t-31.5 75.5q0 41 31.5 70.5t73.5 29.5q46 0 75 -29t29 -71q0 -45 -30.5 -75.5t-73.5 -30.5zM758 1350q-43 0 -74 30.5t-31 75.5q0 41 31 70.5t74 29.5q45 0 74.5 -29t29.5 -71q0 -45 -31 -75.5t-73 -30.5zM559 -33q-225 0 -353 161t-128 413
q0 120 31 222.5t90 179.5t153.5 121t214.5 44q117 0 203.5 -46t149.5 -149v162h198v-1075h-198v156q-118 -189 -361 -189zM596 141q147 0 235.5 93.5t88.5 257.5v118q0 147 -91.5 235.5t-236.5 88.5q-157 0 -242.5 -105.5t-85.5 -285.5q0 -184 87 -293t245 -109z" />
    <glyph glyph-name="agrave.ss01" horiz-adv-x="1245" 
d="M354 1554h269l221 -358h-152zM559 -33q-225 0 -353 161t-128 413q0 120 31 222.5t90 179.5t153.5 121t214.5 44q117 0 203.5 -46t149.5 -149v162h198v-1075h-198v156q-118 -189 -361 -189zM596 141q147 0 235.5 93.5t88.5 257.5v118q0 147 -91.5 235.5t-236.5 88.5
q-157 0 -242.5 -105.5t-85.5 -285.5q0 -184 87 -293t245 -109z" />
    <glyph glyph-name="amacron.ss01" horiz-adv-x="1245" 
d="M926 1315h-656v158h656v-158zM559 -33q-225 0 -353 161t-128 413q0 120 31 222.5t90 179.5t153.5 121t214.5 44q117 0 203.5 -46t149.5 -149v162h198v-1075h-198v156q-118 -189 -361 -189zM596 141q147 0 235.5 93.5t88.5 257.5v118q0 147 -91.5 235.5t-236.5 88.5
q-157 0 -242.5 -105.5t-85.5 -285.5q0 -184 87 -293t245 -109z" />
    <glyph glyph-name="aogonek.ss01" horiz-adv-x="1245" 
d="M1020 0q-137 -111 -137 -201q0 -42 34.5 -65t100.5 -23q34 0 61 4v-125q-41 -6 -96 -6q-118 0 -176.5 54.5t-58.5 128.5q0 41 17.5 79.5t49.5 69.5t53.5 48.5t51.5 37.5v154q-118 -189 -361 -189q-225 0 -353 161t-128 413q0 120 31 222.5t90 179.5t153.5 121t214.5 44
q117 0 203.5 -46t149.5 -149v162h198v-1075h-98zM596 141q147 0 235.5 93.5t88.5 257.5v118q0 147 -91.5 235.5t-236.5 88.5q-157 0 -242.5 -105.5t-85.5 -285.5q0 -184 87 -293t245 -109z" />
    <glyph glyph-name="aring.ss01" horiz-adv-x="1245" 
d="M598 1235q-80 0 -128 48.5t-48 127.5q0 77 48.5 123.5t127.5 46.5t127.5 -46.5t48.5 -123.5q0 -79 -48 -127.5t-128 -48.5zM598 1333q34 0 55 21t21 55t-21 54t-55 20t-55 -20t-21 -54t21 -55t55 -21zM559 -33q-225 0 -353 161t-128 413q0 120 31 222.5t90 179.5
t153.5 121t214.5 44q117 0 203.5 -46t149.5 -149v162h198v-1075h-198v156q-118 -189 -361 -189zM596 141q147 0 235.5 93.5t88.5 257.5v118q0 147 -91.5 235.5t-236.5 88.5q-157 0 -242.5 -105.5t-85.5 -285.5q0 -184 87 -293t245 -109z" />
    <glyph glyph-name="atilde.ss01" horiz-adv-x="1245" 
d="M465 1513q41 0 79 -20t61.5 -43.5t52.5 -43.5t55 -20q34 0 56 32t22 85h141q0 -130 -55 -198t-144 -68q-38 0 -71 13.5t-56 32.5t-43 37.5t-41 32t-41 13.5q-34 0 -53.5 -32.5t-19.5 -86.5h-142q0 115 56.5 190.5t142.5 75.5zM559 -33q-225 0 -353 161t-128 413
q0 120 31 222.5t90 179.5t153.5 121t214.5 44q117 0 203.5 -46t149.5 -149v162h198v-1075h-198v156q-118 -189 -361 -189zM596 141q147 0 235.5 93.5t88.5 257.5v118q0 147 -91.5 235.5t-236.5 88.5q-157 0 -242.5 -105.5t-85.5 -285.5q0 -184 87 -293t245 -109z" />
    <glyph glyph-name="d.ss01" horiz-adv-x="1263" 
d="M547 -33q-217 0 -349 160.5t-132 421.5q0 252 135 405.5t356 153.5q101 0 198 -48t152 -126v622h199v-1556h-117l-82 135q-56 -75 -155 -121.5t-205 -46.5zM584 141q146 0 234.5 96.5t88.5 254.5v118q0 146 -89.5 235t-237.5 89q-141 0 -228.5 -107.5t-87.5 -283.5
q0 -182 87.5 -292t232.5 -110z" />
    <glyph glyph-name="i.ss01" horiz-adv-x="512" 
d="M256 1303q-53 0 -91 37t-38 92q0 52 38 88t91 36q56 0 92.5 -36t36.5 -88q0 -55 -38 -92t-91 -37zM158 0v1075h198v-1075h-198z" />
    <glyph glyph-name="idieresis.ss01" horiz-adv-x="514" 
d="M102 1350q-42 0 -73 30.5t-31 75.5q0 41 31 70.5t73 29.5q46 0 75.5 -29t29.5 -71q0 -45 -31 -75.5t-74 -30.5zM399 1350q-43 0 -73.5 30.5t-30.5 75.5q0 41 30.5 70.5t73.5 29.5q45 0 75 -29t30 -71q0 -45 -31.5 -75.5t-73.5 -30.5zM158 0v1075h198v-1075h-198z" />
    <glyph glyph-name="j.ss01" horiz-adv-x="512" 
d="M256 1303q-53 0 -91 37t-38 92q0 52 38 88t91 36t91 -36t38 -88q0 -55 -38 -92t-91 -37zM57 -492q-31 0 -63.5 3t-49.5 7l-16 3v174q23 -6 66 -6q86 0 125 33.5t39 103.5v1249h198v-1239q0 -160 -71 -244t-228 -84z" />
    <glyph glyph-name="k.ss01" horiz-adv-x="1081" 
d="M1055 0h-228l-243 389l-258 -389h-199v1556h199v-1232l485 751h223l-336 -510z" />
    <glyph glyph-name="kcommaaccent.ss01" horiz-adv-x="1081" 
d="M1055 0h-228l-243 389l-258 -389h-199v1556h199v-1232l485 751h223l-336 -510zM487 -492l70 349h180l-129 -349h-121z" />
    <glyph glyph-name="l.ss01" horiz-adv-x="452" 
d="M127 0v1556h137l62 -481v-1075h-199z" />
    <glyph glyph-name="lacute.ss01" horiz-adv-x="520" 
d="M657 1995l-338 -359h-151l221 359h268zM137 0v1556h137l62 -481v-1075h-199z" />
    <glyph glyph-name="lcaron.ss01" horiz-adv-x="514" 
d="M137 0v1556h137l62 -481v-1075h-199zM795 1556l-215 -358h-111l98 358h228z" />
    <glyph glyph-name="lcommaaccent.ss01" horiz-adv-x="514" 
d="M137 0v1556h137l62 -481v-1075h-199zM94 -492l70 349h180l-129 -349h-121z" />
    <glyph glyph-name="lslash.ss01" horiz-adv-x="452" 
d="M535 1075v-219l-226 -149v-707h-198v573l-185 -122v219l185 123v763h137l61 -481v-149z" />
    <glyph glyph-name="n.ss01" horiz-adv-x="1212" 
d="M127 0v1075h948v-1075h-198v877h-551v-877h-199z" />
    <glyph glyph-name="nacute.ss01" horiz-adv-x="1212" 
d="M877 1556l-338 -358h-152l221 358h269zM127 0v1075h948v-1075h-198v877h-551v-877h-199z" />
    <glyph glyph-name="ncaron.ss01" horiz-adv-x="1212" 
d="M987 1556l-242 -358h-227l-242 358h152l205 -237l203 237h151zM127 0v1075h948v-1075h-198v877h-551v-877h-199z" />
    <glyph glyph-name="ncommaaccent.ss01" horiz-adv-x="1212" 
d="M127 0v1075h948v-1075h-198v877h-551v-877h-199zM508 -492l70 349h180l-129 -349h-121z" />
    <glyph glyph-name="ntilde.ss01" horiz-adv-x="1212" 
d="M498 1516q41 0 78.5 -20t61 -43.5t52.5 -43.5t55 -20q34 0 56 31.5t22 84.5h142q0 -130 -55 -198t-144 -68q-38 0 -71 13.5t-56 32.5t-43 37.5t-41 32t-41 13.5q-34 0 -54 -32.5t-20 -86.5h-141q0 116 56.5 191.5t142.5 75.5zM127 0v1075h948v-1075h-198v877h-551v-877
h-199z" />
    <glyph glyph-name="q.ss01" horiz-adv-x="1263" 
d="M907 -492v627q-56 -75 -155 -121.5t-205 -46.5q-217 0 -349 158t-132 416q0 255 134.5 411t354.5 156q103 0 199.5 -48t152.5 -126l82 141h117v-1567h-199zM584 141q146 0 234.5 96.5t88.5 254.5v118q0 146 -89.5 235t-237.5 89q-141 0 -228.5 -107.5t-87.5 -283.5
q0 -182 87.5 -292t232.5 -110z" />
    <glyph glyph-name="r.ss01" horiz-adv-x="741" 
d="M127 0v1075h578v-198h-379v-877h-199z" />
    <glyph glyph-name="racute.ss01" horiz-adv-x="774" 
d="M692 1556l-338 -358h-151l221 358h268zM129 0v1075h578v-198h-379v-877h-199z" />
    <glyph glyph-name="rcaron.ss01" horiz-adv-x="772" 
d="M803 1556l-242 -358h-227l-242 358h152l205 -237l202 237h152zM129 0v1075h578v-198h-379v-877h-199z" />
    <glyph glyph-name="rcommaaccent.ss01" horiz-adv-x="772" 
d="M147 0v1075h578v-198h-379v-877h-199zM94 -492l70 349h180l-129 -349h-121z" />
    <glyph glyph-name="germandbls.ss01" horiz-adv-x="1521" 
d="M926 -33q-107 0 -197.5 34t-149.5 89t-92.5 123t-35.5 139h196q11 -89 85.5 -151t191.5 -62q152 0 234.5 107t82.5 266q0 154 -78.5 248t-216.5 94q-90 0 -151.5 -42t-108.5 -124l-39 -76h-196l389 746h-514v-1358h-199v1556h907v-198l-215 -377h15q83 45 165 45
q186 0 313.5 -145.5t127.5 -366.5q0 -86 -21 -166t-63.5 -149.5t-103 -121t-144.5 -81t-182 -29.5z" />
    <glyph glyph-name="t.ss01" horiz-adv-x="686" 
d="M184 0v907h-143v168h143v277h199v-277h240v-168h-240v-907h-199z" />
    <glyph glyph-name="tbar.ss01" horiz-adv-x="759" 
d="M688 907h-239v-291h239v-157h-239v-459h-199v459h-144v157h144v291h-144v168h144v277h199v-277h239v-168z" />
    <glyph glyph-name="tcaron.ss01" horiz-adv-x="950" 
d="M887 1556l-215 -358h-111l98 358h228zM184 0v907h-143v168h143v277h199v-277h240v-168h-240v-907h-199z" />
    <glyph glyph-name="uni0163.ss01" horiz-adv-x="684" 
d="M381 0h-62l-106 -104h29q73 0 118.5 -37t45.5 -97q0 -70 -53.5 -112.5t-141.5 -42.5h-117v96h105q42 0 67 15.5t25 41.5q0 23 -25.5 37.5t-66.5 14.5h-84v84l94 104h-27v907h-143v168h143v277h199v-277h240v-168h-240v-907z" />
    <glyph glyph-name="uni021B.ss01" horiz-adv-x="688" 
d="M186 0v907h-143v168h143v277h199v-277h240v-168h-240v-907h-199zM127 -492l70 349h180l-129 -349h-121z" />
    <glyph glyph-name="u.ss01" horiz-adv-x="1263" 
d="M158 0v1075h198v-876h551v876h199v-1075h-948z" />
    <glyph glyph-name="uacute.ss01" horiz-adv-x="1173" 
d="M819 1556l-338 -358h-151l221 358h268zM98 0v1075h199v-876h551v876h199v-1075h-949z" />
    <glyph glyph-name="ucircumflex.ss01" horiz-adv-x="1173" 
d="M930 1198h-152l-203 238l-204 -238h-152l242 358h227zM98 0v1075h199v-876h551v876h199v-1075h-949z" />
    <glyph glyph-name="udieresis.ss01" horiz-adv-x="1173" 
d="M336 1372v184h170v-184h-170zM659 1372v184h170v-184h-170zM98 0v1075h199v-876h551v876h199v-1075h-949z" />
    <glyph glyph-name="ugrave.ss01" horiz-adv-x="1173" 
d="M330 1556h268l221 -358h-151zM98 0v1075h199v-876h551v876h199v-1075h-949z" />
    <glyph glyph-name="uhungarumlaut.ss01" horiz-adv-x="1173" 
d="M598 1556l-338 -358h-151l221 358h268zM1040 1556l-338 -358h-151l221 358h268zM98 0v1075h199v-876h551v876h199v-1075h-949z" />
    <glyph glyph-name="umacron.ss01" horiz-adv-x="1173" 
d="M901 1317h-655v158h655v-158zM98 0v1075h199v-876h551v876h199v-1075h-949z" />
    <glyph glyph-name="uogonek.ss01" horiz-adv-x="1173" 
d="M676 0q-133 -112 -133 -199q0 -42 34.5 -65t100.5 -23q34 0 61 4v-125q-40 -6 -96 -6q-118 0 -176.5 54.5t-58.5 128.5q0 123 167 231h-477v1075h199v-876h551v876h199v-1075h-371z" />
    <glyph glyph-name="uring.ss01" horiz-adv-x="1173" 
d="M573 1237q-79 0 -127.5 48.5t-48.5 127.5q0 77 48.5 123.5t127.5 46.5q80 0 128.5 -47t48.5 -123q0 -79 -48.5 -127.5t-128.5 -48.5zM573 1335q34 0 55 21t21 55t-21 54t-55 20t-54.5 -20t-20.5 -54t20.5 -55t54.5 -21zM98 0v1075h199v-876h551v876h199v-1075h-949z" />
    <glyph glyph-name="y.ss01" horiz-adv-x="1067" 
d="M436 -492v492l-409 1075h219l250 -739l34 -98h7l36 98l248 739h219l-409 -1075v-492h-195z" />
    <glyph glyph-name="yacute.ss01" horiz-adv-x="1067" 
d="M778 1556l-338 -358h-151l221 358h268zM436 -492v492l-409 1075h219l250 -739l34 -98h7l36 98l248 739h219l-409 -1075v-492h-195z" />
    <glyph glyph-name="ycircumflex.ss01" horiz-adv-x="1067" 
d="M889 1198h-152l-202 238l-205 -238h-152l242 358h227zM436 -492v492l-409 1075h219l250 -739l34 -98h7l36 98l248 739h219l-409 -1075v-492h-195z" />
    <glyph glyph-name="ydieresis.ss01" horiz-adv-x="1067" 
d="M287 1372v184h170v-184h-170zM610 1372v184h170v-184h-170zM436 -492v492l-409 1075h219l250 -739l34 -98h7l36 98l248 739h219l-409 -1075v-492h-195z" />
    <glyph glyph-name="ygrave.ss01" horiz-adv-x="1067" 
d="M240 1556h268l221 -358h-151zM436 -492v492l-409 1075h219l250 -739l34 -98h7l36 98l248 739h219l-409 -1075v-492h-195z" />
    <glyph glyph-name="A.smcp" horiz-adv-x="1462" 
d="M68 0l555 1323h217l555 -1323h-224l-147 358h-586l-147 -358h-223zM510 551h442l-221 534z" />
    <glyph glyph-name="Aacute.smcp" horiz-adv-x="1462" 
d="M975 1804l-338 -358h-152l222 358h268zM68 0l555 1323h217l555 -1323h-224l-147 358h-586l-147 -358h-223zM510 551h442l-221 534z" />
    <glyph glyph-name="Abreve.smcp" horiz-adv-x="1462" 
d="M938 1804h168q0 -161 -103 -259.5t-272 -98.5t-273 98.5t-104 259.5h168q0 -94 57.5 -150.5t151.5 -56.5t150.5 56.5t56.5 150.5zM68 0l555 1323h217l555 -1323h-224l-147 358h-586l-147 -358h-223zM510 551h442l-221 534z" />
    <glyph glyph-name="Acircumflex.smcp" horiz-adv-x="1462" 
d="M1085 1446h-151l-203 237l-205 -237h-151l241 358h228zM68 0l555 1323h217l555 -1323h-224l-147 358h-586l-147 -358h-223zM510 551h442l-221 534z" />
    <glyph glyph-name="Adieresis.smcp" horiz-adv-x="1462" 
d="M485 1620v184h170v-184h-170zM809 1620v184h170v-184h-170zM68 0l555 1323h217l555 -1323h-224l-147 358h-586l-147 -358h-223zM510 551h442l-221 534z" />
    <glyph glyph-name="Agrave.smcp" horiz-adv-x="1462" 
d="M485 1804h269l221 -358h-152zM68 0l555 1323h217l555 -1323h-224l-147 358h-586l-147 -358h-223zM510 551h442l-221 534z" />
    <glyph glyph-name="Amacron.smcp" horiz-adv-x="1462" 
d="M1059 1565h-656v157h656v-157zM68 0l555 1323h217l555 -1323h-224l-147 358h-586l-147 -358h-223zM510 551h442l-221 534z" />
    <glyph glyph-name="Aogonek.smcp" horiz-adv-x="1462" 
d="M1122 -201q0 -42 34.5 -65t100.5 -23q35 0 62 4v-125q-41 -6 -96 -6q-118 0 -177 55t-59 128q0 34 14.5 68t30 55.5t47 49t43 36t40.5 27.5q5 4 7 5l-145 350h-586l-147 -358h-223l555 1323h217l555 -1323h-135q-138 -111 -138 -201zM510 551h442l-221 534z" />
    <glyph glyph-name="Aring.smcp" horiz-adv-x="1462" 
d="M731 1485q-79 0 -127.5 48.5t-48.5 127.5q0 77 48.5 123.5t127.5 46.5t127.5 -46.5t48.5 -123.5q0 -79 -48.5 -127.5t-127.5 -48.5zM731 1583q34 0 55 21t21 55t-21 54t-55 20t-55 -20t-21 -54t21 -55t55 -21zM68 0l555 1323h217l555 -1323h-224l-147 358h-586l-147 -358
h-223zM510 551h442l-221 534z" />
    <glyph glyph-name="Atilde.smcp" horiz-adv-x="1462" 
d="M596 1763q41 0 79 -20t61.5 -43.5t52.5 -43.5t55 -20q34 0 56 32t22 85h141q0 -130 -55 -198t-144 -68q-38 0 -71 13.5t-56 32.5t-43 37.5t-41 32t-41 13.5q-34 0 -53.5 -32.5t-19.5 -86.5h-142q0 115 56.5 190.5t142.5 75.5zM68 0l555 1323h217l555 -1323h-224l-147 358
h-586l-147 -358h-223zM510 551h442l-221 534z" />
    <glyph glyph-name="AE.smcp" horiz-adv-x="2183" 
d="M1219 207h774v-207h-981v352h-535l-182 -352h-227l680 1323h1214v-207h-743v-323h671v-205h-671v-381zM868 1116l-286 -557h430v557h-144z" />
    <glyph glyph-name="AEacute.smcp" horiz-adv-x="2183" 
d="M1348 1804l-338 -358h-152l221 358h269zM1219 207h774v-207h-981v352h-535l-182 -352h-227l680 1323h1214v-207h-743v-323h671v-205h-671v-381zM868 1116l-286 -557h430v557h-144z" />
    <glyph glyph-name="B.smcp" horiz-adv-x="1345" 
d="M190 0v1323h498q215 0 344 -88t129 -260q0 -94 -57 -167t-141 -95q111 -16 191.5 -108.5t80.5 -223.5q0 -178 -119 -279.5t-342 -101.5h-584zM393 782h258q146 0 225.5 43t79.5 129q0 89 -68.5 139t-205.5 50h-289v-361zM393 180h322q144 0 229.5 54.5t85.5 164.5
q0 102 -85.5 158.5t-244.5 56.5h-307v-434z" />
    <glyph glyph-name="C.smcp" horiz-adv-x="1536" 
d="M788 -29q-305 0 -487 190t-182 494q0 310 185 503.5t491 193.5q254 0 426.5 -144.5t205.5 -371.5h-213q-28 145 -146 236t-286 91q-205 0 -326.5 -138.5t-121.5 -362.5t122.5 -363t327.5 -139q168 0 285 92.5t145 236.5h213q-33 -228 -207.5 -373t-431.5 -145z" />
    <glyph glyph-name="Cacute.smcp" horiz-adv-x="1536" 
d="M1014 1804l-338 -358h-152l221 358h269zM788 -29q-305 0 -487 190t-182 494q0 310 185 503.5t491 193.5q254 0 426.5 -144.5t205.5 -371.5h-213q-28 145 -146 236t-286 91q-205 0 -326.5 -138.5t-121.5 -362.5t122.5 -363t327.5 -139q168 0 285 92.5t145 236.5h213
q-33 -228 -207.5 -373t-431.5 -145z" />
    <glyph glyph-name="Ccaron.smcp" horiz-adv-x="1536" 
d="M1124 1804l-241 -358h-228l-241 358h151l205 -237l203 237h151zM788 -29q-305 0 -487 190t-182 494q0 310 185 503.5t491 193.5q254 0 426.5 -144.5t205.5 -371.5h-213q-28 145 -146 236t-286 91q-205 0 -326.5 -138.5t-121.5 -362.5t122.5 -363t327.5 -139
q168 0 285 92.5t145 236.5h213q-33 -228 -207.5 -373t-431.5 -145z" />
    <glyph glyph-name="Ccedilla.smcp" horiz-adv-x="1536" 
d="M784 160q168 0 285 92.5t145 236.5h213q-33 -223 -200 -367t-416 -151l-78 -75h29q73 0 118.5 -37t45.5 -97q0 -70 -53.5 -112.5t-141.5 -42.5h-117v96h105q42 0 67 15.5t25 41.5q0 23 -25.5 37.5t-66.5 14.5h-84v84l72 79q-270 26 -429 211.5t-159 468.5
q0 310 185 503.5t491 193.5q254 0 426.5 -144.5t205.5 -371.5h-213q-28 145 -146 236t-286 91q-205 0 -326.5 -138.5t-121.5 -362.5t122.5 -363t327.5 -139z" />
    <glyph glyph-name="Cdotaccent.smcp" horiz-adv-x="1536" 
d="M770 1559q-59 0 -100 40.5t-41 100.5q0 57 41 97t100 40q57 0 99 -40t42 -97q0 -59 -41.5 -100t-99.5 -41zM788 -29q-305 0 -487 190t-182 494q0 310 185 503.5t491 193.5q254 0 426.5 -144.5t205.5 -371.5h-213q-28 145 -146 236t-286 91q-205 0 -326.5 -138.5
t-121.5 -362.5t122.5 -363t327.5 -139q168 0 285 92.5t145 236.5h213q-33 -228 -207.5 -373t-431.5 -145z" />
    <glyph glyph-name="D.smcp" horiz-adv-x="1464" 
d="M743 -2l-553 2l3 1323h524q303 0 470 -163.5t167 -502.5q0 -323 -152.5 -491.5t-458.5 -167.5zM395 188h310q434 0 434 476q0 471 -434 471h-310v-947z" />
    <glyph glyph-name="Eth.smcp" horiz-adv-x="1464" 
d="M717 1323q303 0 470 -163.5t167 -502.5q0 -323 -152.5 -491.5t-458.5 -167.5l-553 2v582h-145v157h148v584h524zM705 188q434 0 434 476q0 471 -434 471h-310v-396h305v-157h-305v-394h310z" />
    <glyph glyph-name="Dcaron.smcp" horiz-adv-x="1464" 
d="M1081 1804l-241 -358h-228l-241 358h151l205 -237l203 237h151zM743 -2l-553 2l3 1323h524q303 0 470 -163.5t167 -502.5q0 -323 -152.5 -491.5t-458.5 -167.5zM395 188h310q434 0 434 476q0 471 -434 471h-310v-947z" />
    <glyph glyph-name="Dcroat.smcp" horiz-adv-x="1464" 
d="M717 1323q303 0 470 -163.5t167 -502.5q0 -323 -152.5 -491.5t-458.5 -167.5l-553 2v582h-145v157h148v584h524zM705 188q434 0 434 476q0 471 -434 471h-310v-396h305v-157h-305v-394h310z" />
    <glyph glyph-name="E.smcp" horiz-adv-x="1361" 
d="M391 197h780v-197h-981v1323h951v-197h-750v-340h678v-192h-678v-397z" />
    <glyph glyph-name="Eacute.smcp" horiz-adv-x="1361" 
d="M926 1804l-338 -358h-152l221 358h269zM391 197h780v-197h-981v1323h951v-197h-750v-340h678v-192h-678v-397z" />
    <glyph glyph-name="Ecaron.smcp" horiz-adv-x="1361" 
d="M1036 1804l-241 -358h-228l-241 358h151l205 -237l203 237h151zM391 197h780v-197h-981v1323h951v-197h-750v-340h678v-192h-678v-397z" />
    <glyph glyph-name="Ecircumflex.smcp" horiz-adv-x="1361" 
d="M1036 1446h-151l-203 237l-205 -237h-151l241 358h228zM391 197h780v-197h-981v1323h951v-197h-750v-340h678v-192h-678v-397z" />
    <glyph glyph-name="Edieresis.smcp" horiz-adv-x="1361" 
d="M440 1620v184h170v-184h-170zM764 1620v184h170v-184h-170zM391 197h780v-197h-981v1323h951v-197h-750v-340h678v-192h-678v-397z" />
    <glyph glyph-name="Edotaccent.smcp" horiz-adv-x="1361" 
d="M682 1559q-59 0 -100 40.5t-41 100.5q0 57 41 97t100 40q57 0 99 -40t42 -97q0 -59 -41.5 -100t-99.5 -41zM391 197h780v-197h-981v1323h951v-197h-750v-340h678v-192h-678v-397z" />
    <glyph glyph-name="Egrave.smcp" horiz-adv-x="1361" 
d="M436 1804h269l221 -358h-152zM391 197h780v-197h-981v1323h951v-197h-750v-340h678v-192h-678v-397z" />
    <glyph glyph-name="Emacron.smcp" horiz-adv-x="1361" 
d="M1010 1565h-656v157h656v-157zM391 197h780v-197h-981v1323h951v-197h-750v-340h678v-192h-678v-397z" />
    <glyph glyph-name="Eogonek.smcp" horiz-adv-x="1361" 
d="M1137 -289q34 0 61 4v-125q-40 -6 -96 -6q-118 0 -177 55t-59 128q0 41 17 79t49 69t53 48t51 37h-846v1323h951v-197h-750v-340h678v-192h-678v-397h780v-197h-32q-138 -111 -138 -201q0 -42 34.5 -65t101.5 -23z" />
    <glyph glyph-name="F.smcp" horiz-adv-x="1177" 
d="M1122 1126h-729v-340h643v-192h-643v-594h-203v1323h932v-197z" />
    <glyph glyph-name="G.smcp" horiz-adv-x="1568" 
d="M844 -29q-329 0 -527 190t-198 503q0 312 185 500t487 188q251 0 426 -130.5t210 -340.5h-213q-33 127 -149.5 204.5t-280.5 77.5q-204 0 -327 -136.5t-123 -364.5t139.5 -365t374.5 -137q114 0 219.5 39.5t161.5 105.5v197h-481v188h679v-457q-83 -118 -243 -190
t-340 -72z" />
    <glyph glyph-name="Gbreve.smcp" horiz-adv-x="1568" 
d="M1012 1804h168q0 -161 -103 -259.5t-272 -98.5t-273 98.5t-104 259.5h168q0 -94 57.5 -150.5t151.5 -56.5t150.5 56.5t56.5 150.5zM844 -29q-329 0 -527 190t-198 503q0 312 185 500t487 188q251 0 426 -130.5t210 -340.5h-213q-33 127 -149.5 204.5t-280.5 77.5
q-204 0 -327 -136.5t-123 -364.5t139.5 -365t374.5 -137q114 0 219.5 39.5t161.5 105.5v197h-481v188h679v-457q-83 -118 -243 -190t-340 -72z" />
    <glyph glyph-name="Gcommaaccent.smcp" horiz-adv-x="1568" 
d="M844 -29q-329 0 -527 190t-198 503q0 312 185 500t487 188q251 0 426 -130.5t210 -340.5h-213q-33 127 -149.5 204.5t-280.5 77.5q-204 0 -327 -136.5t-123 -364.5t139.5 -365t374.5 -137q114 0 219.5 39.5t161.5 105.5v197h-481v188h679v-457q-83 -118 -243 -190
t-340 -72zM680 -492l70 349h180l-129 -349h-121z" />
    <glyph glyph-name="Gdotaccent.smcp" horiz-adv-x="1568" 
d="M805 1559q-59 0 -100 40.5t-41 100.5q0 57 41 97t100 40q57 0 99 -40t42 -97q0 -59 -41.5 -100t-99.5 -41zM844 -29q-329 0 -527 190t-198 503q0 312 185 500t487 188q251 0 426 -130.5t210 -340.5h-213q-33 127 -149.5 204.5t-280.5 77.5q-204 0 -327 -136.5
t-123 -364.5t139.5 -365t374.5 -137q114 0 219.5 39.5t161.5 105.5v197h-481v188h679v-457q-83 -118 -243 -190t-340 -72z" />
    <glyph glyph-name="H.smcp" horiz-adv-x="1454" 
d="M1061 1323h203v-1323h-203v590h-668v-590h-203v1323h203v-537h668v537z" />
    <glyph glyph-name="Hbar.smcp" horiz-adv-x="1454" 
d="M1380 1083v-157h-116v-926h-203v590h-668v-590h-203v926h-116v157h116v240h203v-240h668v240h203v-240h116zM1061 786v140h-668v-140h668z" />
    <glyph glyph-name="I.smcp" horiz-adv-x="518" 
d="M158 0v1323h202v-1323h-202z" />
    <glyph glyph-name="Iacute.smcp" horiz-adv-x="518" 
d="M502 1804l-338 -358h-152l221 358h269zM158 0v1323h202v-1323h-202z" />
    <glyph glyph-name="Icircumflex.smcp" horiz-adv-x="518" 
d="M612 1446h-151l-203 237l-205 -237h-151l241 358h228zM158 0v1323h202v-1323h-202z" />
    <glyph glyph-name="Idieresis.smcp" horiz-adv-x="518" 
d="M8 1620v184h170v-184h-170zM332 1620v184h170v-184h-170zM154 0v1323h202v-1323h-202z" />
    <glyph glyph-name="Idotaccent.smcp" horiz-adv-x="518" 
d="M258 1559q-59 0 -100 40.5t-41 100.5q0 57 41 97t100 40q57 0 99 -40t42 -97q0 -59 -41.5 -100t-99.5 -41zM158 0v1323h202v-1323h-202z" />
    <glyph glyph-name="Igrave.smcp" horiz-adv-x="518" 
d="M12 1804h269l221 -358h-152zM158 0v1323h202v-1323h-202z" />
    <glyph glyph-name="Imacron.smcp" horiz-adv-x="518" 
d="M586 1565h-656v157h656v-157zM158 0v1323h202v-1323h-202z" />
    <glyph glyph-name="Iogonek.smcp" horiz-adv-x="518" 
d="M340 -289q34 0 61 4v-125q-41 -6 -96 -6q-118 0 -176.5 54.5t-58.5 128.5q0 41 17 79t49 69t53 48t51 37h-82v1323h202v-1323h-18q-137 -111 -137 -201q0 -42 34.5 -65t100.5 -23z" />
    <glyph glyph-name="J.smcp" horiz-adv-x="1150" 
d="M543 -29q-226 0 -352.5 111.5t-141.5 325.5h207q17 -126 83.5 -187t192.5 -61q46 0 81.5 7t62 25.5t45 38.5t30.5 57.5t19.5 69t10.5 87.5t4 99.5t1 117.5v661h207v-694q0 -71 -2 -125t-8 -113.5t-16 -104.5t-27.5 -90.5t-41 -78t-57.5 -61.5t-76.5 -47t-98.5 -28
t-123 -10z" />
    <glyph glyph-name="K.smcp" horiz-adv-x="1282" 
d="M1214 0h-253l-568 602v-602h-203v1323h203v-588l539 588h254l-600 -649z" />
    <glyph glyph-name="Kcommaaccent.smcp" horiz-adv-x="1282" 
d="M586 674l628 -674h-253l-568 602v-602h-203v1323h203v-588l539 588h254zM496 -492l69 349h180l-129 -349h-120z" />
    <glyph glyph-name="L.smcp" horiz-adv-x="1171" 
d="M391 197h731v-197h-932v1323h201v-1126z" />
    <glyph glyph-name="Lacute.smcp" horiz-adv-x="1171" 
d="M825 1804l-338 -358h-151l221 358h268zM391 197h731v-197h-932v1323h201v-1126z" />
    <glyph glyph-name="Lcaron.smcp" horiz-adv-x="1210" 
d="M412 197h731v-197h-932v1323h201v-1126zM1161 1323l-194 -305h-123l88 305h229z" />
    <glyph glyph-name="Lcommaaccent.smcp" horiz-adv-x="1171" 
d="M391 197h731v-197h-932v1323h201v-1126zM457 -492l69 349h181l-129 -349h-121z" />
    <glyph glyph-name="Lslash.smcp" horiz-adv-x="1171" 
d="M391 197h731v-197h-932v633l-192 -129v219l192 129v471h201v-338l215 143v-219l-215 -143v-569z" />
    <glyph glyph-name="M.smcp" horiz-adv-x="1665" 
d="M195 0v1323h223l416 -1092l415 1092h226v-1323h-203v893l-330 -893h-215l-330 893v-893h-202z" />
    <glyph glyph-name="N.smcp" horiz-adv-x="1458" 
d="M190 0v1323h201l670 -1001v1001h203v-1323h-211l-660 961v-961h-203z" />
    <glyph glyph-name="Nacute.smcp" horiz-adv-x="1458" 
d="M967 1804l-338 -358h-152l221 358h269zM190 0v1323h201l670 -1001v1001h203v-1323h-211l-660 961v-961h-203z" />
    <glyph glyph-name="Ncaron.smcp" horiz-adv-x="1458" 
d="M1077 1804l-241 -358h-228l-241 358h151l205 -237l203 237h151zM190 0v1323h201l670 -1001v1001h203v-1323h-211l-660 961v-961h-203z" />
    <glyph glyph-name="Ncommaaccent.smcp" horiz-adv-x="1458" 
d="M190 0v1323h201l670 -1001v1001h203v-1323h-211l-660 961v-961h-203zM598 -492l70 349h180l-129 -349h-121z" />
    <glyph glyph-name="Eng.smcp" horiz-adv-x="1458" 
d="M901 -418q-90 0 -160 23t-110.5 56.5t-67 80t-36 86.5t-11.5 82h211q0 -15 2 -30.5t11.5 -40t26 -42t49.5 -30.5t77 -13t74.5 13.5t47.5 32.5t27 53t13 62.5t4 72.5l-662 973v-961h-207v1323h205l662 -1001v1001h207v-1323q0 -48 -2.5 -85t-11.5 -82.5t-24 -79.5
t-42.5 -67.5t-65 -55t-93 -35t-124.5 -13.5z" />
    <glyph glyph-name="Ntilde.smcp" horiz-adv-x="1458" 
d="M588 1763q41 0 79 -20t61.5 -43.5t52.5 -43.5t55 -20q34 0 55.5 32t21.5 85h142q0 -130 -55 -198t-144 -68q-38 0 -71 13.5t-56 32.5t-43 37.5t-41 32t-41 13.5q-34 0 -54 -32.5t-20 -86.5h-141q0 115 56.5 190.5t142.5 75.5zM190 0v1323h201l670 -1001v1001h203v-1323
h-211l-660 961v-961h-203z" />
    <glyph glyph-name="O.smcp" horiz-adv-x="1599" 
d="M801 -29q-309 0 -495.5 192t-186.5 499t186.5 498.5t495.5 191.5t494.5 -191.5t185.5 -498.5q0 -202 -82.5 -358.5t-237.5 -244.5t-360 -88zM801 160q211 0 338 141t127 361t-127 360.5t-338 140.5q-212 0 -339.5 -140.5t-127.5 -360.5t127.5 -361t339.5 -141z" />
    <glyph glyph-name="Oacute.smcp" horiz-adv-x="1599" 
d="M1044 1804l-337 -358h-152l221 358h268zM801 -29q-309 0 -495.5 192t-186.5 499t186.5 498.5t495.5 191.5t494.5 -191.5t185.5 -498.5q0 -202 -82.5 -358.5t-237.5 -244.5t-360 -88zM801 160q211 0 338 141t127 361t-127 360.5t-338 140.5q-212 0 -339.5 -140.5
t-127.5 -360.5t127.5 -361t339.5 -141z" />
    <glyph glyph-name="Ocircumflex.smcp" horiz-adv-x="1599" 
d="M1155 1446h-151l-203 237l-205 -237h-152l242 358h227zM801 -29q-309 0 -495.5 192t-186.5 499t186.5 498.5t495.5 191.5t494.5 -191.5t185.5 -498.5q0 -202 -82.5 -358.5t-237.5 -244.5t-360 -88zM801 160q211 0 338 141t127 361t-127 360.5t-338 140.5
q-212 0 -339.5 -140.5t-127.5 -360.5t127.5 -361t339.5 -141z" />
    <glyph glyph-name="Odieresis.smcp" horiz-adv-x="1599" 
d="M553 1620v184h170v-184h-170zM877 1620v184h170v-184h-170zM801 -29q-309 0 -495.5 192t-186.5 499t186.5 498.5t495.5 191.5t494.5 -191.5t185.5 -498.5q0 -202 -82.5 -358.5t-237.5 -244.5t-360 -88zM801 160q211 0 338 141t127 361t-127 360.5t-338 140.5
q-212 0 -339.5 -140.5t-127.5 -360.5t127.5 -361t339.5 -141z" />
    <glyph glyph-name="Ograve.smcp" horiz-adv-x="1599" 
d="M555 1804h268l221 -358h-151zM801 -29q-309 0 -495.5 192t-186.5 499t186.5 498.5t495.5 191.5t494.5 -191.5t185.5 -498.5q0 -202 -82.5 -358.5t-237.5 -244.5t-360 -88zM801 160q211 0 338 141t127 361t-127 360.5t-338 140.5q-212 0 -339.5 -140.5t-127.5 -360.5
t127.5 -361t339.5 -141z" />
    <glyph glyph-name="Ohungarumlaut.smcp" horiz-adv-x="1599" 
d="M823 1804l-338 -358h-151l221 358h268zM1266 1804l-338 -358h-152l221 358h269zM801 -29q-309 0 -495.5 192t-186.5 499t186.5 498.5t495.5 191.5t494.5 -191.5t185.5 -498.5q0 -202 -82.5 -358.5t-237.5 -244.5t-360 -88zM801 160q211 0 338 141t127 361t-127 360.5
t-338 140.5q-212 0 -339.5 -140.5t-127.5 -360.5t127.5 -361t339.5 -141z" />
    <glyph glyph-name="Omacron.smcp" horiz-adv-x="1599" 
d="M1128 1565h-655v157h655v-157zM801 -29q-309 0 -495.5 192t-186.5 499t186.5 498.5t495.5 191.5t494.5 -191.5t185.5 -498.5q0 -202 -82.5 -358.5t-237.5 -244.5t-360 -88zM801 160q211 0 338 141t127 361t-127 360.5t-338 140.5q-212 0 -339.5 -140.5t-127.5 -360.5
t127.5 -361t339.5 -141z" />
    <glyph glyph-name="Oslash.smcp" horiz-adv-x="1599" 
d="M1239 1210q116 -91 179 -232.5t63 -315.5q0 -202 -82.5 -358.5t-237.5 -244.5t-360 -88q-169 0 -309 64l-173 -271h-178l221 349q-117 91 -180 233t-63 316q0 307 186.5 498.5t495.5 191.5q169 0 309 -64l172 271h178zM334 662q0 -113 36 -210t103 -165l531 833
q-87 43 -203 43q-212 0 -339.5 -140.5t-127.5 -360.5zM801 160q211 0 338 141t127 361q0 232 -140 372l-528 -833q90 -41 203 -41z" />
    <glyph glyph-name="Otilde.smcp" horiz-adv-x="1599" 
d="M666 1763q41 0 78.5 -20t61 -43.5t52.5 -43.5t55 -20q34 0 56 32t22 85h142q0 -130 -55 -198t-144 -68q-38 0 -71 13.5t-56 32.5t-43 37.5t-41 32t-41 13.5q-34 0 -54 -32.5t-20 -86.5h-141q0 115 56.5 190.5t142.5 75.5zM801 -29q-309 0 -495.5 192t-186.5 499
t186.5 498.5t495.5 191.5t494.5 -191.5t185.5 -498.5q0 -202 -82.5 -358.5t-237.5 -244.5t-360 -88zM801 160q211 0 338 141t127 361t-127 360.5t-338 140.5q-212 0 -339.5 -140.5t-127.5 -360.5t127.5 -361t339.5 -141z" />
    <glyph glyph-name="OE.smcp" horiz-adv-x="2441" 
d="M801 -29q-206 0 -361.5 88t-238 244.5t-82.5 358.5t82.5 358.5t238 244t361.5 87.5q289 0 469 -174v147h948v-197h-743v-335h671v-199h-671v-393h776v-199h-981v145q-179 -176 -469 -176zM799 160q211 0 338 141t127 361t-127 360.5t-338 140.5t-339 -140.5t-128 -360.5
t128 -361t339 -141z" />
    <glyph glyph-name="P.smcp" horiz-adv-x="1271" 
d="M190 0v1323h529q204 0 323 -97t119 -284q0 -177 -115.5 -277t-330.5 -100h-322v-565h-203zM393 745h283q132 0 206 48.5t74 148.5q0 95 -70.5 148t-209.5 53h-283v-398z" />
    <glyph glyph-name="Thorn.smcp" horiz-adv-x="1271" 
d="M674 1059q80 0 144.5 -8.5t130.5 -33.5t111 -65.5t73 -110.5t28 -163t-28 -162.5t-72 -109.5t-109.5 -64.5t-128.5 -32.5t-141 -8h-285v-301h-207v1323h207v-264h277zM662 496q36 0 59 1t55 4.5t53 10.5t44.5 20.5t37 32.5t22.5 47.5t9 65.5t-9 65.5t-23.5 48t-38 33
t-45 20.5t-53 11t-55 5t-56.5 1h-265v-366h265z" />
    <glyph glyph-name="Q.smcp" horiz-adv-x="1599" 
d="M1481 662q0 -179 -65.5 -323t-186.5 -235l252 -219h-258l-152 133q-124 -47 -270 -47q-309 0 -495.5 192t-186.5 499t186.5 498.5t495.5 191.5t494.5 -191.5t185.5 -498.5zM801 160q55 0 96 8l-229 199h258l145 -125q93 65 144 174.5t51 245.5q0 220 -127 360.5
t-338 140.5q-212 0 -339.5 -140.5t-127.5 -360.5t127.5 -361t339.5 -141z" />
    <glyph glyph-name="R.smcp" horiz-adv-x="1273" 
d="M190 0v1323h498q225 0 349 -92t124 -273q0 -148 -115.5 -243t-312.5 -105q-31 -2 -96 -2l586 -608h-252l-578 602v-602h-203zM393 774h307q106 0 180 46.5t74 135.5q0 88 -70 137.5t-208 49.5h-283v-369z" />
    <glyph glyph-name="Racute.smcp" horiz-adv-x="1273" 
d="M877 1804l-338 -358h-152l221 358h269zM190 0v1323h498q225 0 349 -92t124 -273q0 -148 -115.5 -243t-312.5 -105q-31 -2 -96 -2l586 -608h-252l-578 602v-602h-203zM393 774h307q106 0 180 46.5t74 135.5q0 88 -70 137.5t-208 49.5h-283v-369z" />
    <glyph glyph-name="Rcaron.smcp" horiz-adv-x="1273" 
d="M987 1804l-242 -358h-227l-242 358h152l205 -237l203 237h151zM190 0v1323h498q225 0 349 -92t124 -273q0 -148 -115.5 -243t-312.5 -105q-31 -2 -96 -2l586 -608h-252l-578 602v-602h-203zM393 774h307q106 0 180 46.5t74 135.5q0 88 -70 137.5t-208 49.5h-283v-369z
" />
    <glyph glyph-name="Rcommaaccent.smcp" horiz-adv-x="1273" 
d="M190 0v1323h498q225 0 349 -92t124 -273q0 -148 -115.5 -243t-312.5 -105q-31 -2 -96 -2l586 -608h-252l-578 602v-602h-203zM393 774h307q106 0 180 46.5t74 135.5q0 88 -70 137.5t-208 49.5h-283v-369zM508 -492l70 349h180l-129 -349h-121z" />
    <glyph glyph-name="S.smcp" horiz-adv-x="1327" 
d="M709 -41q-150 0 -266.5 37.5t-189 103t-112.5 148t-49 180.5h207q39 -159 149 -224t285 -65q137 0 213 49t76 150q0 33 -11 60.5t-35 49t-47 36.5t-63 29.5t-66.5 22.5t-72.5 21q-217 59 -268 77q-178 63 -242 159q-45 69 -47 165q-2 83 27.5 150.5t79 111t116.5 73.5
t136.5 42.5t142.5 12.5q238 0 371 -120.5t139 -318.5h-205q-7 75 -39 128.5t-81 80t-98.5 38t-105.5 11.5q-32 0 -63.5 -3.5t-72 -15.5t-70.5 -31t-51 -55t-21 -83q0 -38 13.5 -67.5t37 -50.5t67 -39.5t89.5 -32t120 -31.5q173 -42 201 -51q196 -60 267 -172q47 -75 47 -181
q0 -203 -127 -299t-381 -96z" />
    <glyph glyph-name="Sacute.smcp" horiz-adv-x="1327" 
d="M893 1788l-338 -358h-152l222 358h268zM709 -41q-150 0 -266.5 37.5t-189 103t-112.5 148t-49 180.5h207q39 -159 149 -224t285 -65q137 0 213 49t76 150q0 33 -11 60.5t-35 49t-47 36.5t-63 29.5t-66.5 22.5t-72.5 21q-217 59 -268 77q-178 63 -242 159q-45 69 -47 165
q-2 83 27.5 150.5t79 111t116.5 73.5t136.5 42.5t142.5 12.5q238 0 371 -120.5t139 -318.5h-205q-7 75 -39 128.5t-81 80t-98.5 38t-105.5 11.5q-32 0 -63.5 -3.5t-72 -15.5t-70.5 -31t-51 -55t-21 -83q0 -38 13.5 -67.5t37 -50.5t67 -39.5t89.5 -32t120 -31.5
q173 -42 201 -51q196 -60 267 -172q47 -75 47 -181q0 -203 -127 -299t-381 -96z" />
    <glyph glyph-name="Scaron.smcp" horiz-adv-x="1327" 
d="M1004 1788l-242 -358h-227l-242 358h151l205 -238l203 238h152zM709 -41q-150 0 -266.5 37.5t-189 103t-112.5 148t-49 180.5h207q39 -159 149 -224t285 -65q137 0 213 49t76 150q0 33 -11 60.5t-35 49t-47 36.5t-63 29.5t-66.5 22.5t-72.5 21q-217 59 -268 77
q-178 63 -242 159q-45 69 -47 165q-2 83 27.5 150.5t79 111t116.5 73.5t136.5 42.5t142.5 12.5q238 0 371 -120.5t139 -318.5h-205q-7 75 -39 128.5t-81 80t-98.5 38t-105.5 11.5q-32 0 -63.5 -3.5t-72 -15.5t-70.5 -31t-51 -55t-21 -83q0 -38 13.5 -67.5t37 -50.5t67 -39.5
t89.5 -32t120 -31.5q173 -42 201 -51q196 -60 267 -172q47 -75 47 -181q0 -203 -127 -299t-381 -96z" />
    <glyph glyph-name="Scedilla.smcp" horiz-adv-x="1327" 
d="M709 -41h-31l-66 -63h29q73 0 118.5 -37t45.5 -97q0 -70 -53.5 -112.5t-141.5 -42.5h-116v96h104q42 0 67 15.5t25 41.5q0 23 -25.5 37.5t-66.5 14.5h-84v84l66 71q-117 15 -208.5 57.5t-149.5 105t-90 137.5t-40 161h207q39 -159 149 -224t285 -65q137 0 213 49t76 150
q0 33 -11 60.5t-35 49t-47 36.5t-63 29.5t-66.5 22.5t-72.5 21q-217 59 -268 77q-178 63 -242 159q-45 69 -47 165q-2 83 27.5 150.5t79 111t116.5 73.5t136.5 42.5t142.5 12.5q238 0 371 -120.5t139 -318.5h-205q-7 75 -39 128.5t-81 80t-98.5 38t-105.5 11.5
q-32 0 -63.5 -3.5t-72 -15.5t-70.5 -31t-51 -55t-21 -83q0 -38 13.5 -67.5t37 -50.5t67 -39.5t89.5 -32t120 -31.5q173 -42 201 -51q196 -60 267 -172q47 -75 47 -181q0 -203 -127 -299t-381 -96z" />
    <glyph glyph-name="Scommaaccent.smcp" horiz-adv-x="1327" 
d="M709 -41q-150 0 -266.5 37.5t-189 103t-112.5 148t-49 180.5h207q39 -159 149 -224t285 -65q137 0 213 49t76 150q0 33 -11 60.5t-35 49t-47 36.5t-63 29.5t-66.5 22.5t-72.5 21q-217 59 -268 77q-178 63 -242 159q-45 69 -47 165q-2 83 27.5 150.5t79 111t116.5 73.5
t136.5 42.5t142.5 12.5q238 0 371 -120.5t139 -318.5h-205q-7 75 -39 128.5t-81 80t-98.5 38t-105.5 11.5q-32 0 -63.5 -3.5t-72 -15.5t-70.5 -31t-51 -55t-21 -83q0 -38 13.5 -67.5t37 -50.5t67 -39.5t89.5 -32t120 -31.5q173 -42 201 -51q196 -60 267 -172q47 -75 47 -181
q0 -203 -127 -299t-381 -96zM524 -492l70 349h180l-129 -349h-121z" />
    <glyph glyph-name="T.smcp" horiz-adv-x="1193" 
d="M1126 1126h-426v-1126h-204v1126h-428v197h1056z" />
    <glyph glyph-name="Tbar.smcp" horiz-adv-x="1193" 
d="M700 1126v-387h226v-157h-226v-582h-204v582h-226v157h226v387h-428v197h1056l2 -197h-426z" />
    <glyph glyph-name="Tcaron.smcp" horiz-adv-x="1193" 
d="M952 1804l-241 -358h-228l-241 358h151l205 -237l203 237h151zM1126 1126h-426v-1126h-204v1126h-428v197h1056z" />
    <glyph glyph-name="uni0162.smcp" horiz-adv-x="1193" 
d="M590 -104q73 0 118.5 -37t45.5 -97q0 -70 -53.5 -112.5t-141.5 -42.5h-117v96h105q42 0 67 15.5t25 41.5q0 23 -25.5 37.5t-66.5 14.5h-84v84l94 104h-61v1126h-428v197h1056l2 -197h-426v-1077h19l-19 -18v-31h-32l-107 -104h29z" />
    <glyph glyph-name="uni021A.smcp" horiz-adv-x="1193" 
d="M1126 1126h-426v-1126h-204v1126h-428v197h1056zM473 -492l70 349h180l-129 -349h-121z" />
    <glyph glyph-name="U.smcp" horiz-adv-x="1404" 
d="M727 -29q-100 0 -179.5 17.5t-135 47.5t-96 77t-64.5 97.5t-38.5 119t-19 131.5t-4.5 143v719h203v-682q0 -67 2 -114t10 -101t22 -90t39 -72t60 -57t85.5 -34t115.5 -13t115.5 13t85.5 34t60 57t39 72t22 90t10 101t2 114v682h203v-719q0 -81 -4.5 -144.5t-19 -132
t-38.5 -118.5t-64.5 -97t-96 -76.5t-135 -47t-179.5 -17.5z" />
    <glyph glyph-name="Uacute.smcp" horiz-adv-x="1404" 
d="M967 1804l-338 -358h-152l221 358h269zM727 -29q-100 0 -179.5 17.5t-135 47.5t-96 77t-64.5 97.5t-38.5 119t-19 131.5t-4.5 143v719h203v-682q0 -67 2 -114t10 -101t22 -90t39 -72t60 -57t85.5 -34t115.5 -13t115.5 13t85.5 34t60 57t39 72t22 90t10 101t2 114v682h203
v-719q0 -81 -4.5 -144.5t-19 -132t-38.5 -118.5t-64.5 -97t-96 -76.5t-135 -47t-179.5 -17.5z" />
    <glyph glyph-name="Ucircumflex.smcp" horiz-adv-x="1404" 
d="M1077 1446h-151l-203 237l-205 -237h-151l241 358h228zM727 -29q-100 0 -179.5 17.5t-135 47.5t-96 77t-64.5 97.5t-38.5 119t-19 131.5t-4.5 143v719h203v-682q0 -67 2 -114t10 -101t22 -90t39 -72t60 -57t85.5 -34t115.5 -13t115.5 13t85.5 34t60 57t39 72t22 90
t10 101t2 114v682h203v-719q0 -81 -4.5 -144.5t-19 -132t-38.5 -118.5t-64.5 -97t-96 -76.5t-135 -47t-179.5 -17.5z" />
    <glyph glyph-name="Udieresis.smcp" horiz-adv-x="1404" 
d="M481 1620v184h170v-184h-170zM805 1620v184h170v-184h-170zM727 -29q-100 0 -179.5 17.5t-135 47.5t-96 77t-64.5 97.5t-38.5 119t-19 131.5t-4.5 143v719h203v-682q0 -67 2 -114t10 -101t22 -90t39 -72t60 -57t85.5 -34t115.5 -13t115.5 13t85.5 34t60 57t39 72t22 90
t10 101t2 114v682h203v-719q0 -81 -4.5 -144.5t-19 -132t-38.5 -118.5t-64.5 -97t-96 -76.5t-135 -47t-179.5 -17.5z" />
    <glyph glyph-name="Ugrave.smcp" horiz-adv-x="1404" 
d="M477 1804h268l222 -358h-152zM727 -29q-100 0 -179.5 17.5t-135 47.5t-96 77t-64.5 97.5t-38.5 119t-19 131.5t-4.5 143v719h203v-682q0 -67 2 -114t10 -101t22 -90t39 -72t60 -57t85.5 -34t115.5 -13t115.5 13t85.5 34t60 57t39 72t22 90t10 101t2 114v682h203v-719
q0 -81 -4.5 -144.5t-19 -132t-38.5 -118.5t-64.5 -97t-96 -76.5t-135 -47t-179.5 -17.5z" />
    <glyph glyph-name="Uhungarumlaut.smcp" horiz-adv-x="1404" 
d="M745 1804l-337 -358h-152l221 358h268zM1188 1804l-338 -358h-152l222 358h268zM727 -29q-100 0 -179.5 17.5t-135 47.5t-96 77t-64.5 97.5t-38.5 119t-19 131.5t-4.5 143v719h203v-682q0 -67 2 -114t10 -101t22 -90t39 -72t60 -57t85.5 -34t115.5 -13t115.5 13t85.5 34
t60 57t39 72t22 90t10 101t2 114v682h203v-719q0 -81 -4.5 -144.5t-19 -132t-38.5 -118.5t-64.5 -97t-96 -76.5t-135 -47t-179.5 -17.5z" />
    <glyph glyph-name="Umacron.smcp" horiz-adv-x="1404" 
d="M1051 1565h-656v157h656v-157zM727 -29q-100 0 -179.5 17.5t-135 47.5t-96 77t-64.5 97.5t-38.5 119t-19 131.5t-4.5 143v719h203v-682q0 -67 2 -114t10 -101t22 -90t39 -72t60 -57t85.5 -34t115.5 -13t115.5 13t85.5 34t60 57t39 72t22 90t10 101t2 114v682h203v-719
q0 -81 -4.5 -144.5t-19 -132t-38.5 -118.5t-64.5 -97t-96 -76.5t-135 -47t-179.5 -17.5z" />
    <glyph glyph-name="Uogonek.smcp" horiz-adv-x="1404" 
d="M1061 1323h203v-719q0 -79 -4.5 -141.5t-18 -129t-36 -116.5t-60.5 -97t-90 -77t-126 -49.5t-167 -22.5q-105 -94 -105 -172q0 -42 34.5 -65t101.5 -23q34 0 61 4v-125q-41 -6 -96 -6q-118 0 -177 55t-59 128q0 106 133 206q-86 6 -154.5 27.5t-117 53t-83.5 78.5
t-56 96.5t-33.5 114.5t-16.5 125t-4 136v719h203v-682q0 -67 2 -114t10 -101t22 -90t39 -72t60 -57t85.5 -34t115.5 -13t115.5 13t85.5 34t60 57t39 72t22 90t10 101t2 114v682z" />
    <glyph glyph-name="Uring.smcp" horiz-adv-x="1404" 
d="M723 1485q-79 0 -127.5 48.5t-48.5 127.5q0 77 48.5 123.5t127.5 46.5t127.5 -46.5t48.5 -123.5q0 -79 -48.5 -127.5t-127.5 -48.5zM723 1583q34 0 55 21t21 55t-21 54t-55 20t-55 -20t-21 -54t21 -55t55 -21zM727 -29q-100 0 -179.5 17.5t-135 47.5t-96 77t-64.5 97.5
t-38.5 119t-19 131.5t-4.5 143v719h203v-682q0 -67 2 -114t10 -101t22 -90t39 -72t60 -57t85.5 -34t115.5 -13t115.5 13t85.5 34t60 57t39 72t22 90t10 101t2 114v682h203v-719q0 -81 -4.5 -144.5t-19 -132t-38.5 -118.5t-64.5 -97t-96 -76.5t-135 -47t-179.5 -17.5z" />
    <glyph glyph-name="V.smcp" horiz-adv-x="1425" 
d="M604 0l-555 1323h227l437 -1085l436 1085h227l-555 -1323h-217z" />
    <glyph glyph-name="W.smcp" horiz-adv-x="2058" 
d="M436 0l-387 1323h227l275 -1085l350 1085h258l350 -1085l273 1085h227l-385 -1323h-223l-371 1112l-371 -1112h-223z" />
    <glyph glyph-name="Wacute.smcp" horiz-adv-x="2058" 
d="M1274 1804l-338 -358h-152l222 358h268zM436 0l-387 1323h227l275 -1085l350 1085h258l350 -1085l273 1085h227l-385 -1323h-223l-371 1112l-371 -1112h-223z" />
    <glyph glyph-name="Wcircumflex.smcp" horiz-adv-x="2058" 
d="M1384 1446h-151l-203 237l-205 -237h-151l241 358h228zM436 0l-387 1323h227l275 -1085l350 1085h258l350 -1085l273 1085h227l-385 -1323h-223l-371 1112l-371 -1112h-223z" />
    <glyph glyph-name="Wdieresis.smcp" horiz-adv-x="2058" 
d="M788 1620v184h170v-184h-170zM1112 1620v184h170v-184h-170zM436 0l-387 1323h227l275 -1085l350 1085h258l350 -1085l273 1085h227l-385 -1323h-223l-371 1112l-371 -1112h-223z" />
    <glyph glyph-name="Wgrave.smcp" horiz-adv-x="2058" 
d="M784 1804h269l221 -358h-152zM436 0l-387 1323h227l275 -1085l350 1085h258l350 -1085l273 1085h227l-385 -1323h-223l-371 1112l-371 -1112h-223z" />
    <glyph glyph-name="X.smcp" horiz-adv-x="1314" 
d="M1247 0h-243l-347 510l-348 -510h-241l467 668l-439 655h242l319 -492l318 492h244l-439 -655z" />
    <glyph glyph-name="Y.smcp" horiz-adv-x="1308" 
d="M551 0v459l-488 864h232l360 -678l359 678h231l-489 -864v-459h-205z" />
    <glyph glyph-name="Yacute.smcp" horiz-adv-x="1308" 
d="M899 1804l-338 -358h-151l221 358h268zM551 0v459l-488 864h232l360 -678l359 678h231l-489 -864v-459h-205z" />
    <glyph glyph-name="Ycircumflex.smcp" horiz-adv-x="1308" 
d="M1010 1446h-152l-203 237l-204 -237h-152l242 358h227zM551 0v459l-488 864h232l360 -678l359 678h231l-489 -864v-459h-205z" />
    <glyph glyph-name="Ydieresis.smcp" horiz-adv-x="1308" 
d="M408 1620v184h170v-184h-170zM731 1620v184h170v-184h-170zM551 0v459l-488 864h232l360 -678l359 678h231l-489 -864v-459h-205z" />
    <glyph glyph-name="Ygrave.smcp" horiz-adv-x="1308" 
d="M410 1804h268l221 -358h-151zM551 0v459l-488 864h232l360 -678l359 678h231l-489 -864v-459h-205z" />
    <glyph glyph-name="Z.smcp" horiz-adv-x="1263" 
d="M346 197h828v-197h-1072v197l754 929h-735v197h979l2 -197z" />
    <glyph glyph-name="Zacute.smcp" horiz-adv-x="1263" 
d="M881 1804l-338 -358h-152l221 358h269zM346 197h828v-197h-1072v197l754 929h-735v197h979l2 -197z" />
    <glyph glyph-name="Zcaron.smcp" horiz-adv-x="1263" 
d="M991 1804l-241 -358h-228l-241 358h151l205 -237l203 237h151zM346 197h828v-197h-1072v197l754 929h-735v197h979l2 -197z" />
    <glyph glyph-name="Zdotaccent.smcp" horiz-adv-x="1263" 
d="M637 1559q-59 0 -100 40.5t-41 100.5q0 57 41 97t100 40q57 0 99 -40t42 -97q0 -59 -41.5 -100t-99.5 -41zM346 197h828v-197h-1072v197l754 929h-735v197h979l2 -197z" />
    <glyph glyph-name="a.dnom" horiz-adv-x="935" 
d="M348 -633q-77 0 -135.5 22.5t-91 60t-48.5 81t-16 92.5q0 123 97 195q58 43 158 64.5t274 21.5h47v47q0 164 -174 164q-95 0 -139 -38.5t-46 -90.5h-174q1 40 11.5 76t36 73t65 64t103 44t145.5 17q84 0 146 -18t110 -59t72 -113.5t24 -175.5v-300v-100v-119h-166v129h-2
q-43 -61 -122 -99t-175 -38zM397 -496q109 0 173.5 54t64.5 108v119h-55q-76 0 -133 -6.5t-107.5 -23t-77 -49t-26.5 -79.5q0 -59 41 -91t120 -32z" />
    <glyph glyph-name="b.dnom" horiz-adv-x="993" 
d="M547 260q171 0 276 -122.5t105 -323.5q0 -204 -104 -329.5t-273 -125.5q-82 0 -161 36.5t-122 94.5v-104h-172v1228h178v-491q50 63 122.5 100t150.5 37zM516 -489q106 0 171 81.5t65 214.5q0 137 -65.5 220.5t-172.5 83.5q-108 0 -174 -72.5t-66 -192.5v-88
q0 -110 66.5 -178.5t175.5 -68.5z" />
    <glyph glyph-name="c.dnom" horiz-adv-x="919" 
d="M473 -641q-192 0 -299.5 127t-107.5 326q0 202 107.5 325t297.5 123q165 0 270.5 -91t116.5 -241h-176q-29 183 -209 183q-111 0 -171 -80t-60 -219q0 -140 59.5 -222t171.5 -82q83 0 138 47t71 119h176q-13 -129 -115 -222t-270 -93z" />
    <glyph glyph-name="d.dnom" horiz-adv-x="991" 
d="M723 614h178v-1228h-172v104q-42 -58 -121 -94.5t-159 -36.5q-170 0 -274.5 125.5t-104.5 329.5q0 201 105.5 323.5t277.5 122.5q78 0 150.5 -37t119.5 -100v491zM723 -223v86q0 112 -65.5 180t-174.5 68q-107 0 -172 -81.5t-65 -215.5q0 -137 66 -220t175 -83
q106 0 171 73t65 193z" />
    <glyph glyph-name="e.dnom" horiz-adv-x="919" 
d="M473 -641q-192 0 -299.5 126.5t-107.5 326.5q0 201 107.5 324.5t293.5 123.5q171 0 281 -104.5t110 -276.5v-125l-612 -2q11 -113 70 -178.5t159 -65.5q78 0 134 40.5t73 91.5h176q-6 -48 -34 -96t-74.5 -90t-119 -68.5t-157.5 -26.5zM248 -117h434q0 112 -60 170
t-155 58t-157 -58.5t-62 -169.5z" />
    <glyph glyph-name="f.dnom" horiz-adv-x="524" 
d="M147 -614v694h-110v156h110v122q0 138 58 210.5t192 72.5q69 0 109 -10v-146q-28 7 -51 7q-68 0 -98.5 -28.5t-30.5 -88.5v-139h172v-156h-172v-694h-179z" />
    <glyph glyph-name="g.dnom" horiz-adv-x="976" 
d="M725 236h178v-781q0 -132 -27 -223t-80.5 -142t-122 -72.5t-161.5 -21.5q-349 0 -408 293h177q18 -72 77 -107.5t146 -35.5q122 0 171.5 71.5t49.5 233.5v53q-93 -145 -274 -145q-176 0 -277.5 127.5t-101.5 331.5q0 126 38.5 223.5t123 158t206.5 60.5q192 0 285 -149
v125zM725 -223v86q0 113 -68 180.5t-174 67.5q-116 0 -179.5 -79.5t-63.5 -217.5q0 -140 64.5 -221.5t180.5 -81.5q108 0 174 70.5t66 195.5z" />
    <glyph glyph-name="h.dnom" horiz-adv-x="956" 
d="M96 -614v1228h178v-508q49 81 124.5 117.5t158.5 36.5q145 0 227 -93t82 -249v-532h-178v475q0 121 -47.5 185.5t-136.5 64.5q-97 0 -163.5 -74t-66.5 -199v-452h-178z" />
    <glyph glyph-name="i.dnom" horiz-adv-x="385" 
d="M96 432v182h193v-182h-193zM104 -614v850h179v-850h-179z" />
    <glyph glyph-name="j.dnom" horiz-adv-x="434" 
d="M115 432v182h192v-182h-192zM53 -1004q-29 0 -57 3t-42 5l-13 3v147q18 -4 51 -4q129 0 129 115v971h178v-975q0 -265 -246 -265z" />
    <glyph glyph-name="k.dnom" horiz-adv-x="790" 
d="M772 -614h-197l-301 362v-362h-178v1228h178v-751l273 373h196l-313 -424z" />
    <glyph glyph-name="l.dnom" horiz-adv-x="370" 
d="M96 -614v1228h178v-1228h-178z" />
    <glyph glyph-name="m.dnom" horiz-adv-x="1574" 
d="M1165 260q147 0 225 -89.5t78 -268.5v-516h-178v489q0 236 -174 236q-106 0 -172.5 -73t-66.5 -200v-452h-179v489q0 236 -176 236q-105 0 -171 -73t-66 -200v-452h-179v850h179v-130q93 154 288 154q206 0 273 -170q115 170 319 170z" />
    <glyph glyph-name="n.dnom" horiz-adv-x="983" 
d="M106 -614v850h179v-130q49 81 124 117.5t158 36.5q144 0 227 -94t83 -250v-530h-179v475q0 121 -47.5 185.5t-136.5 64.5q-97 0 -163 -74t-66 -199v-452h-179z" />
    <glyph glyph-name="o.dnom" horiz-adv-x="962" 
d="M483 -641q-186 0 -301.5 129t-115.5 324q0 198 114.5 323t302.5 125q187 0 300.5 -125t113.5 -323q0 -196 -114 -324.5t-300 -128.5zM481 -492q113 0 176.5 82t63.5 222q0 138 -63.5 218.5t-176.5 80.5t-176 -80.5t-63 -218.5q0 -140 63 -222t176 -82z" />
    <glyph glyph-name="p.dnom" horiz-adv-x="1003" 
d="M557 260q171 0 276 -122.5t105 -323.5q0 -204 -104 -329.5t-273 -125.5q-81 0 -157 36t-119 95v-494h-179v1240h175v-113q47 63 122.5 100t153.5 37zM526 -489q106 0 171 81.5t65 214.5q0 137 -65.5 220.5t-172.5 83.5t-173 -72.5t-66 -192.5v-88q0 -111 66.5 -179
t174.5 -68z" />
    <glyph glyph-name="q.dnom" horiz-adv-x="1019" 
d="M725 236h172v-1240h-178v494q-43 -58 -119 -94.5t-156 -36.5q-170 0 -274 125.5t-104 329.5q0 201 105.5 323.5t277.5 122.5q77 0 152 -37t124 -100v113zM719 -223v86q0 112 -66.5 180t-175.5 68q-106 0 -170.5 -81.5t-64.5 -215.5q0 -137 65 -220t172 -83
q109 0 174.5 73t65.5 193z" />
    <glyph glyph-name="r.dnom" horiz-adv-x="591" 
d="M104 -614v850h170v-154q53 102 150 147q63 27 158 27v-184h-31q-119 0 -193.5 -78.5t-74.5 -208.5v-399h-179z" />
    <glyph glyph-name="s.dnom" horiz-adv-x="823" 
d="M436 -641q-177 0 -274.5 84.5t-108.5 220.5h172q36 -162 217 -162q69 0 107.5 27.5t38.5 83.5q0 22 -10.5 40t-22.5 29t-40 23.5t-42 17t-49 15.5q-47 13 -75 22t-67 23.5t-62 28t-49.5 34t-40.5 43t-24 53t-10 66.5q-1 66 26 116.5t73.5 79t101.5 42.5t117 14
q153 0 237.5 -77t89.5 -208h-172q-6 54 -33 88t-60 45t-73 11q-31 0 -60 -7t-55 -31.5t-26 -64.5q0 -19 5.5 -33.5t20.5 -27.5t28 -21.5t43 -19t49.5 -16.5t62.5 -19q119 -35 155 -52q120 -57 132 -173q2 -15 2 -31q0 -264 -324 -264z" />
    <glyph glyph-name="t.dnom" horiz-adv-x="571" 
d="M412 -631q-145 0 -206 61.5t-61 190.5v459h-110v137q69 0 94 32t25 109v95h170v-217h184v-156h-184v-418q0 -78 31.5 -106.5t109.5 -28.5h53v-152q-56 -6 -106 -6z" />
    <glyph glyph-name="u.dnom" horiz-adv-x="970" 
d="M381 -641q-145 0 -224 90t-79 270v517h178v-490q0 -238 176 -238q105 0 171.5 74t66.5 201v453h178v-850h-178v141q-91 -168 -289 -168z" />
    <glyph glyph-name="v.dnom" horiz-adv-x="856" 
d="M342 -614l-324 850h193l184 -553l33 -91h2l31 91l184 553h193l-324 -850h-172z" />
    <glyph glyph-name="w.dnom" horiz-adv-x="1431" 
d="M342 -614l-324 850h193l217 -644h2l195 644h184l195 -644h2l215 644h192l-321 -850h-174l-199 657h-4l-201 -657h-172z" />
    <glyph glyph-name="x.dnom" horiz-adv-x="784" 
d="M766 236l-266 -424l266 -426h-195l-178 303l-182 -303h-193l265 426l-265 424h193l176 -310l184 310h195z" />
    <glyph glyph-name="y.dnom" horiz-adv-x="856" 
d="M205 -1004l137 390l-324 850h193l188 -568l29 -80h2l29 80l186 568h193l-299 -779l-158 -461h-176z" />
    <glyph glyph-name="z.dnom" horiz-adv-x="886" 
d="M260 -465h580v-149h-785v149l547 551h-539v150h742l2 -150z" />
    <glyph glyph-name="a.numr" horiz-adv-x="935" 
d="M348 688q-77 0 -135.5 22.5t-91 60t-48.5 81t-16 92.5q0 123 97 195q58 43 158 64.5t274 21.5h47v47q0 164 -174 164q-95 0 -139 -38.5t-46 -90.5h-174q1 40 11.5 76t36 73t65 64t103 44t145.5 17q172 0 262 -83t90 -284v-299v-100v-119h-166v129h-2q-43 -61 -122 -99
t-175 -38zM397 825q109 0 173.5 54t64.5 108v119h-55q-76 0 -133 -6.5t-107.5 -23t-77 -49t-26.5 -79.5q0 -59 41 -91t120 -32z" />
    <glyph glyph-name="b.numr" horiz-adv-x="993" 
d="M547 1581q171 0 276 -122.5t105 -323.5q0 -204 -104 -329.5t-273 -125.5q-82 0 -161 36.5t-122 94.5v-104h-172v1228h178v-491q50 63 122.5 100t150.5 37zM516 831q106 0 171 82t65 215q0 137 -65.5 220.5t-172.5 83.5q-108 0 -174 -72.5t-66 -192.5v-88
q0 -111 67 -179.5t175 -68.5z" />
    <glyph glyph-name="c.numr" horiz-adv-x="919" 
d="M473 680q-192 0 -299.5 127t-107.5 326q0 202 107.5 325t297.5 123q165 0 270.5 -91t116.5 -241h-176q-29 183 -209 183q-111 0 -171 -80t-60 -219q0 -140 59.5 -222t171.5 -82q83 0 138 47t71 119h176q-13 -129 -115 -222t-270 -93z" />
    <glyph glyph-name="d.numr" horiz-adv-x="991" 
d="M723 1935h178v-1228h-172v104q-42 -58 -121 -94.5t-159 -36.5q-170 0 -274.5 125.5t-104.5 329.5q0 201 105.5 323.5t277.5 122.5q78 0 150.5 -37t119.5 -100v491zM723 1098v86q0 112 -65.5 180t-174.5 68q-107 0 -172 -81.5t-65 -215.5q0 -137 66 -220.5t175 -83.5
q106 0 171 73.5t65 193.5z" />
    <glyph glyph-name="e.numr" horiz-adv-x="919" 
d="M473 680q-192 0 -299.5 126.5t-107.5 326.5q0 201 107.5 324.5t293.5 123.5q171 0 281 -104.5t110 -276.5v-125l-612 -2q11 -113 70 -178.5t159 -65.5q78 0 134 40.5t73 91.5h176q-6 -48 -34 -96t-74.5 -90t-119 -68.5t-157.5 -26.5zM248 1204h434q0 112 -60 170t-155 58
t-157 -58.5t-62 -169.5z" />
    <glyph glyph-name="f.numr" horiz-adv-x="524" 
d="M147 707v694h-110v155h110v123q0 138 58 210.5t192 72.5q69 0 109 -10v-146q-24 6 -51 6q-68 0 -98.5 -28.5t-30.5 -87.5v-140h172v-155h-172v-694h-179z" />
    <glyph glyph-name="g.numr" horiz-adv-x="976" 
d="M725 1556h178v-780q0 -132 -27 -223t-80.5 -142t-122 -72.5t-161.5 -21.5q-349 0 -408 293h177q18 -72 77 -107.5t146 -35.5q122 0 171.5 71.5t49.5 233.5v53q-93 -145 -274 -145q-176 0 -277.5 127.5t-101.5 331.5q0 126 38.5 223.5t123 158t206.5 60.5q192 0 285 -149
v124zM725 1098v86q0 113 -68 180.5t-174 67.5q-116 0 -179.5 -79.5t-63.5 -217.5q0 -140 64.5 -222t180.5 -82q108 0 174 71t66 196z" />
    <glyph glyph-name="h.numr" horiz-adv-x="956" 
d="M96 707v1228h178v-508q49 81 124.5 117.5t158.5 36.5q145 0 227 -93t82 -249v-532h-178v475q0 121 -47.5 185.5t-136.5 64.5q-97 0 -163.5 -74t-66.5 -199v-452h-178z" />
    <glyph glyph-name="i.numr" horiz-adv-x="385" 
d="M96 1753v182h193v-182h-193zM104 707v849h179v-849h-179z" />
    <glyph glyph-name="j.numr" horiz-adv-x="403" 
d="M115 1753v182h192v-182h-192zM53 317q-29 0 -57 2.5t-42 5.5l-13 3v147q18 -4 51 -4q129 0 129 115v970h178v-974q0 -265 -246 -265z" />
    <glyph glyph-name="k.numr" horiz-adv-x="790" 
d="M772 707h-197l-301 362v-362h-178v1228h178v-751l273 372h196l-313 -423z" />
    <glyph glyph-name="l.numr" horiz-adv-x="370" 
d="M96 707v1228h178v-1228h-178z" />
    <glyph glyph-name="m.numr" horiz-adv-x="1574" 
d="M1165 1581q147 0 225 -89.5t78 -268.5v-516h-178v489q0 236 -174 236q-106 0 -172.5 -73t-66.5 -200v-452h-179v489q0 236 -176 236q-105 0 -171 -73t-66 -200v-452h-179v849h179v-129q93 154 288 154q206 0 273 -170q115 170 319 170z" />
    <glyph glyph-name="n.numr" horiz-adv-x="983" 
d="M106 707v849h179v-129q49 81 124 117.5t158 36.5q144 0 227 -94t83 -250v-530h-179v475q0 121 -47.5 185.5t-136.5 64.5q-97 0 -163 -74t-66 -199v-452h-179z" />
    <glyph glyph-name="o.numr" horiz-adv-x="962" 
d="M483 680q-186 0 -301.5 129t-115.5 324q0 198 114.5 323t302.5 125q187 0 300.5 -125t113.5 -323q0 -196 -114 -324.5t-300 -128.5zM481 829q113 0 176.5 82t63.5 222q0 138 -63.5 218.5t-176.5 80.5t-176 -80.5t-63 -218.5q0 -140 63 -222t176 -82z" />
    <glyph glyph-name="p.numr" horiz-adv-x="1003" 
d="M557 1581q171 0 276 -122.5t105 -323.5q0 -204 -104 -329.5t-273 -125.5q-81 0 -157 36t-119 95v-494h-179v1239h175v-112q47 63 122.5 100t153.5 37zM526 831q106 0 171 82t65 215q0 137 -65.5 220.5t-172.5 83.5t-173 -72.5t-66 -192.5v-88q0 -111 66.5 -179.5
t174.5 -68.5z" />
    <glyph glyph-name="q.numr" horiz-adv-x="1019" 
d="M725 1556h172v-1239h-178v494q-43 -58 -119 -94.5t-156 -36.5q-170 0 -274 125.5t-104 329.5q0 201 105.5 323.5t277.5 122.5q77 0 152 -37t124 -100v112zM719 1098v86q0 112 -66.5 180t-175.5 68q-106 0 -170.5 -81.5t-64.5 -215.5q0 -137 65 -220.5t172 -83.5
q109 0 174.5 73.5t65.5 193.5z" />
    <glyph glyph-name="r.numr" horiz-adv-x="591" 
d="M104 707v849h170v-153q53 102 150 147q63 27 158 27v-184h-31q-119 0 -193.5 -78.5t-74.5 -208.5v-399h-179z" />
    <glyph glyph-name="s.numr" horiz-adv-x="823" 
d="M436 680q-177 0 -274.5 84.5t-108.5 220.5h172q36 -162 217 -162q69 0 107.5 27.5t38.5 83.5q0 22 -10.5 40t-22.5 29t-40 23.5t-42 17t-49 15.5q-47 13 -75 22t-67 23.5t-62 28t-49.5 34t-40.5 43t-24 53t-10 66.5q-1 66 26 116.5t73.5 79t101.5 42.5t117 14
q153 0 237.5 -77t89.5 -208h-172q-6 54 -33 88t-60 45t-73 11q-31 0 -60 -7t-55 -31.5t-26 -64.5q0 -19 5.5 -33.5t20.5 -27.5t28 -21.5t43 -19t49.5 -16.5t62.5 -19q9 -3 26 -8q123 -35 172 -69q90 -62 91 -179q0 -264 -324 -264z" />
    <glyph glyph-name="t.numr" horiz-adv-x="571" 
d="M412 690q-145 0 -206 61.5t-61 190.5v459h-110v137q69 0 94 32t25 109v95h170v-218h184v-155h-184v-418q0 -78 31.5 -106.5t109.5 -28.5h53v-152q-56 -6 -106 -6z" />
    <glyph glyph-name="u.numr" horiz-adv-x="970" 
d="M381 680q-145 0 -224 90t-79 270v516h178v-489q0 -238 176 -238q105 0 171.5 74t66.5 201v452h178v-849h-178v141q-91 -168 -289 -168z" />
    <glyph glyph-name="v.numr" horiz-adv-x="856" 
d="M342 707l-324 849h193l184 -552l33 -91h2l31 91l184 552h193l-324 -849h-172z" />
    <glyph glyph-name="w.numr" horiz-adv-x="1431" 
d="M342 707l-324 849h193l217 -643h2l195 643h184l195 -643h2l215 643h192l-321 -849h-174l-199 657h-4l-201 -657h-172z" />
    <glyph glyph-name="x.numr" horiz-adv-x="784" 
d="M766 1556l-266 -423l266 -426h-195l-178 303l-182 -303h-193l265 426l-265 423h193l176 -309l184 309h195z" />
    <glyph glyph-name="y.numr" horiz-adv-x="856" 
d="M205 317l137 390l-324 849h193l188 -567l29 -80h2l29 80l186 567h193l-299 -778l-158 -461h-176z" />
    <glyph glyph-name="z.numr" horiz-adv-x="886" 
d="M260 856h580v-149h-785v149l547 551h-539v149h742l2 -149z" />
    <glyph glyph-name="a.subs" horiz-adv-x="935" 
d="M348 -633q-77 0 -135.5 22.5t-91 60t-48.5 81t-16 92.5q0 123 97 195q58 43 158 64.5t274 21.5h47v47q0 164 -174 164q-95 0 -139 -38.5t-46 -90.5h-174q1 40 11.5 76t36 73t65 64t103 44t145.5 17q84 0 146 -18t110 -59t72 -113.5t24 -175.5v-300v-100v-119h-166v129h-2
q-43 -61 -122 -99t-175 -38zM397 -496q109 0 173.5 54t64.5 108v119h-55q-76 0 -133 -6.5t-107.5 -23t-77 -49t-26.5 -79.5q0 -59 41 -91t120 -32z" />
    <glyph glyph-name="b.subs" horiz-adv-x="993" 
d="M547 260q171 0 276 -122.5t105 -323.5q0 -204 -104 -329.5t-273 -125.5q-82 0 -161 36.5t-122 94.5v-104h-172v1228h178v-491q50 63 122.5 100t150.5 37zM516 -489q106 0 171 81.5t65 214.5q0 137 -65.5 220.5t-172.5 83.5q-108 0 -174 -72.5t-66 -192.5v-88
q0 -110 66.5 -178.5t175.5 -68.5z" />
    <glyph glyph-name="c.subs" horiz-adv-x="919" 
d="M473 -641q-192 0 -299.5 127t-107.5 326q0 202 107.5 325t297.5 123q165 0 270.5 -91t116.5 -241h-176q-29 183 -209 183q-111 0 -171 -80t-60 -219q0 -140 59.5 -222t171.5 -82q83 0 138 47t71 119h176q-13 -129 -115 -222t-270 -93z" />
    <glyph glyph-name="d.subs" horiz-adv-x="991" 
d="M723 614h178v-1228h-172v104q-42 -58 -121 -94.5t-159 -36.5q-170 0 -274.5 125.5t-104.5 329.5q0 201 105.5 323.5t277.5 122.5q78 0 150.5 -37t119.5 -100v491zM723 -223v86q0 112 -65.5 180t-174.5 68q-107 0 -172 -81.5t-65 -215.5q0 -137 66 -220t175 -83
q106 0 171 73t65 193z" />
    <glyph glyph-name="e.subs" horiz-adv-x="919" 
d="M473 -641q-192 0 -299.5 126.5t-107.5 326.5q0 201 107.5 324.5t293.5 123.5q171 0 281 -104.5t110 -276.5v-125l-612 -2q11 -113 70 -178.5t159 -65.5q78 0 134 40.5t73 91.5h176q-6 -48 -34 -96t-74.5 -90t-119 -68.5t-157.5 -26.5zM248 -117h434q0 112 -60 170
t-155 58t-157 -58.5t-62 -169.5z" />
    <glyph glyph-name="f.subs" horiz-adv-x="524" 
d="M147 -614v694h-110v156h110v122q0 138 58 210.5t192 72.5q69 0 109 -10v-146q-28 7 -51 7q-68 0 -98.5 -28.5t-30.5 -88.5v-139h172v-156h-172v-694h-179z" />
    <glyph glyph-name="g.subs" horiz-adv-x="976" 
d="M725 236h178v-781q0 -132 -27 -223t-80.5 -142t-122 -72.5t-161.5 -21.5q-349 0 -408 293h177q18 -72 77 -107.5t146 -35.5q122 0 171.5 71.5t49.5 233.5v53q-93 -145 -274 -145q-176 0 -277.5 127.5t-101.5 331.5q0 126 38.5 223.5t123 158t206.5 60.5q192 0 285 -149
v125zM725 -223v86q0 113 -68 180.5t-174 67.5q-116 0 -179.5 -79.5t-63.5 -217.5q0 -140 64.5 -221.5t180.5 -81.5q108 0 174 70.5t66 195.5z" />
    <glyph glyph-name="h.subs" horiz-adv-x="956" 
d="M96 -614v1228h178v-508q49 81 124.5 117.5t158.5 36.5q145 0 227 -93t82 -249v-532h-178v475q0 121 -47.5 185.5t-136.5 64.5q-97 0 -163.5 -74t-66.5 -199v-452h-178z" />
    <glyph glyph-name="i.subs" horiz-adv-x="385" 
d="M96 432v182h193v-182h-193zM104 -614v850h179v-850h-179z" />
    <glyph glyph-name="j.subs" horiz-adv-x="403" 
d="M115 432v182h192v-182h-192zM53 -1004q-29 0 -57 3t-42 5l-13 3v147q18 -4 51 -4q129 0 129 115v971h178v-975q0 -265 -246 -265z" />
    <glyph glyph-name="k.subs" horiz-adv-x="790" 
d="M772 -614h-197l-301 362v-362h-178v1228h178v-751l273 373h196l-313 -424z" />
    <glyph glyph-name="l.subs" horiz-adv-x="370" 
d="M96 -614v1228h178v-1228h-178z" />
    <glyph glyph-name="m.subs" horiz-adv-x="1574" 
d="M1165 260q147 0 225 -89.5t78 -268.5v-516h-178v489q0 236 -174 236q-106 0 -172.5 -73t-66.5 -200v-452h-179v489q0 236 -176 236q-105 0 -171 -73t-66 -200v-452h-179v850h179v-130q93 154 288 154q206 0 273 -170q115 170 319 170z" />
    <glyph glyph-name="n.subs" horiz-adv-x="983" 
d="M106 -614v850h179v-130q49 81 124 117.5t158 36.5q144 0 227 -94t83 -250v-530h-179v475q0 121 -47.5 185.5t-136.5 64.5q-97 0 -163 -74t-66 -199v-452h-179z" />
    <glyph glyph-name="o.subs" horiz-adv-x="962" 
d="M483 -641q-186 0 -301.5 129t-115.5 324q0 198 114.5 323t302.5 125q187 0 300.5 -125t113.5 -323q0 -196 -114 -324.5t-300 -128.5zM481 -492q113 0 176.5 82t63.5 222q0 138 -63.5 218.5t-176.5 80.5t-176 -80.5t-63 -218.5q0 -140 63 -222t176 -82z" />
    <glyph glyph-name="p.subs" horiz-adv-x="1003" 
d="M557 260q171 0 276 -122.5t105 -323.5q0 -204 -104 -329.5t-273 -125.5q-81 0 -157 36t-119 95v-494h-179v1240h175v-113q47 63 122.5 100t153.5 37zM526 -489q106 0 171 81.5t65 214.5q0 137 -65.5 220.5t-172.5 83.5t-173 -72.5t-66 -192.5v-88q0 -111 66.5 -179
t174.5 -68z" />
    <glyph glyph-name="q.subs" horiz-adv-x="1019" 
d="M725 236h172v-1240h-178v494q-43 -58 -119 -94.5t-156 -36.5q-170 0 -274 125.5t-104 329.5q0 201 105.5 323.5t277.5 122.5q77 0 152 -37t124 -100v113zM719 -223v86q0 112 -66.5 180t-175.5 68q-106 0 -170.5 -81.5t-64.5 -215.5q0 -137 65 -220t172 -83
q109 0 174.5 73t65.5 193z" />
    <glyph glyph-name="r.subs" horiz-adv-x="591" 
d="M104 -614v850h170v-154q53 102 150 147q63 27 158 27v-184h-31q-119 0 -193.5 -78.5t-74.5 -208.5v-399h-179z" />
    <glyph glyph-name="s.subs" horiz-adv-x="823" 
d="M436 -641q-177 0 -274.5 84.5t-108.5 220.5h172q36 -162 217 -162q69 0 107.5 27.5t38.5 83.5q0 22 -10.5 40t-22.5 29t-40 23.5t-42 17t-49 15.5q-47 13 -75 22t-67 23.5t-62 28t-49.5 34t-40.5 43t-24 53t-10 66.5q-1 66 26 116.5t73.5 79t101.5 42.5t117 14
q153 0 237.5 -77t89.5 -208h-172q-6 54 -33 88t-60 45t-73 11q-31 0 -60 -7t-55 -31.5t-26 -64.5q0 -19 5.5 -33.5t20.5 -27.5t28 -21.5t43 -19t49.5 -16.5t62.5 -19q119 -35 155 -52q120 -57 132 -173q2 -15 2 -31q0 -264 -324 -264z" />
    <glyph glyph-name="t.subs" horiz-adv-x="571" 
d="M412 -631q-145 0 -206 61.5t-61 190.5v459h-110v137q69 0 94 32t25 109v95h170v-217h184v-156h-184v-418q0 -78 31.5 -106.5t109.5 -28.5h53v-152q-56 -6 -106 -6z" />
    <glyph glyph-name="u.subs" horiz-adv-x="970" 
d="M381 -641q-145 0 -224 90t-79 270v517h178v-490q0 -238 176 -238q105 0 171.5 74t66.5 201v453h178v-850h-178v141q-91 -168 -289 -168z" />
    <glyph glyph-name="v.subs" horiz-adv-x="856" 
d="M342 -614l-324 850h193l184 -553l33 -91h2l31 91l184 553h193l-324 -850h-172z" />
    <glyph glyph-name="w.subs" horiz-adv-x="1431" 
d="M342 -614l-324 850h193l217 -644h2l195 644h184l195 -644h2l215 644h192l-321 -850h-174l-199 657h-4l-201 -657h-172z" />
    <glyph glyph-name="x.subs" horiz-adv-x="784" 
d="M766 236l-266 -424l266 -426h-195l-178 303l-182 -303h-193l265 426l-265 424h193l176 -310l184 310h195z" />
    <glyph glyph-name="y.subs" horiz-adv-x="856" 
d="M205 -1004l137 390l-324 850h193l188 -568l29 -80h2l29 80l186 568h193l-299 -779l-158 -461h-176z" />
    <glyph glyph-name="z.subs" horiz-adv-x="886" 
d="M260 -465h580v-149h-785v149l547 551h-539v150h742l2 -150z" />
    <glyph glyph-name="a.sups" horiz-adv-x="935" 
d="M348 688q-77 0 -135.5 22.5t-91 60t-48.5 81t-16 92.5q0 123 97 195q58 43 158 64.5t274 21.5h47v47q0 164 -174 164q-95 0 -139 -38.5t-46 -90.5h-174q1 40 11.5 76t36 73t65 64t103 44t145.5 17q172 0 262 -83t90 -284v-299v-100v-119h-166v129h-2q-43 -61 -122 -99
t-175 -38zM397 825q109 0 173.5 54t64.5 108v119h-55q-76 0 -133 -6.5t-107.5 -23t-77 -49t-26.5 -79.5q0 -59 41 -91t120 -32z" />
    <glyph glyph-name="b.sups" horiz-adv-x="993" 
d="M547 1581q171 0 276 -122.5t105 -323.5q0 -204 -104 -329.5t-273 -125.5q-82 0 -161 36.5t-122 94.5v-104h-172v1228h178v-491q50 63 122.5 100t150.5 37zM516 831q106 0 171 82t65 215q0 137 -65.5 220.5t-172.5 83.5q-108 0 -174 -72.5t-66 -192.5v-88
q0 -111 67 -179.5t175 -68.5z" />
    <glyph glyph-name="c.sups" horiz-adv-x="919" 
d="M473 680q-192 0 -299.5 127t-107.5 326q0 202 107.5 325t297.5 123q165 0 270.5 -91t116.5 -241h-176q-29 183 -209 183q-111 0 -171 -80t-60 -219q0 -140 59.5 -222t171.5 -82q83 0 138 47t71 119h176q-13 -129 -115 -222t-270 -93z" />
    <glyph glyph-name="d.sups" horiz-adv-x="991" 
d="M723 1935h178v-1228h-172v104q-42 -58 -121 -94.5t-159 -36.5q-170 0 -274.5 125.5t-104.5 329.5q0 201 105.5 323.5t277.5 122.5q78 0 150.5 -37t119.5 -100v491zM723 1098v86q0 112 -65.5 180t-174.5 68q-107 0 -172 -81.5t-65 -215.5q0 -137 66 -220.5t175 -83.5
q106 0 171 73.5t65 193.5z" />
    <glyph glyph-name="e.sups" horiz-adv-x="919" 
d="M473 680q-192 0 -299.5 126.5t-107.5 326.5q0 201 107.5 324.5t293.5 123.5q171 0 281 -104.5t110 -276.5v-125l-612 -2q11 -113 70 -178.5t159 -65.5q78 0 134 40.5t73 91.5h176q-6 -48 -34 -96t-74.5 -90t-119 -68.5t-157.5 -26.5zM248 1204h434q0 112 -60 170t-155 58
t-157 -58.5t-62 -169.5z" />
    <glyph glyph-name="f.sups" horiz-adv-x="524" 
d="M147 707v694h-110v155h110v123q0 138 58 210.5t192 72.5q69 0 109 -10v-146q-24 6 -51 6q-68 0 -98.5 -28.5t-30.5 -87.5v-140h172v-155h-172v-694h-179z" />
    <glyph glyph-name="g.sups" horiz-adv-x="976" 
d="M725 1556h178v-780q0 -132 -27 -223t-80.5 -142t-122 -72.5t-161.5 -21.5q-349 0 -408 293h177q18 -72 77 -107.5t146 -35.5q122 0 171.5 71.5t49.5 233.5v53q-93 -145 -274 -145q-176 0 -277.5 127.5t-101.5 331.5q0 126 38.5 223.5t123 158t206.5 60.5q192 0 285 -149
v124zM725 1098v86q0 113 -68 180.5t-174 67.5q-116 0 -179.5 -79.5t-63.5 -217.5q0 -140 64.5 -222t180.5 -82q108 0 174 71t66 196z" />
    <glyph glyph-name="h.sups" horiz-adv-x="956" 
d="M96 707v1228h178v-508q49 81 124.5 117.5t158.5 36.5q145 0 227 -93t82 -249v-532h-178v475q0 121 -47.5 185.5t-136.5 64.5q-97 0 -163.5 -74t-66.5 -199v-452h-178z" />
    <glyph glyph-name="i.sups" horiz-adv-x="385" 
d="M96 1753v182h193v-182h-193zM104 707v849h179v-849h-179z" />
    <glyph glyph-name="j.sups" horiz-adv-x="403" 
d="M115 1753v182h192v-182h-192zM53 317q-29 0 -57 2.5t-42 5.5l-13 3v147q18 -4 51 -4q129 0 129 115v970h178v-974q0 -265 -246 -265z" />
    <glyph glyph-name="k.sups" horiz-adv-x="790" 
d="M772 707h-197l-301 362v-362h-178v1228h178v-751l273 372h196l-313 -423z" />
    <glyph glyph-name="l.sups" horiz-adv-x="370" 
d="M96 707v1228h178v-1228h-178z" />
    <glyph glyph-name="m.sups" horiz-adv-x="1574" 
d="M1165 1581q147 0 225 -89.5t78 -268.5v-516h-178v489q0 236 -174 236q-106 0 -172.5 -73t-66.5 -200v-452h-179v489q0 236 -176 236q-105 0 -171 -73t-66 -200v-452h-179v849h179v-129q93 154 288 154q206 0 273 -170q115 170 319 170z" />
    <glyph glyph-name="n.sups" horiz-adv-x="983" 
d="M106 707v849h179v-129q49 81 124 117.5t158 36.5q144 0 227 -94t83 -250v-530h-179v475q0 121 -47.5 185.5t-136.5 64.5q-97 0 -163 -74t-66 -199v-452h-179z" />
    <glyph glyph-name="o.sups" horiz-adv-x="962" 
d="M483 680q-186 0 -301.5 129t-115.5 324q0 198 114.5 323t302.5 125q187 0 300.5 -125t113.5 -323q0 -196 -114 -324.5t-300 -128.5zM481 829q113 0 176.5 82t63.5 222q0 138 -63.5 218.5t-176.5 80.5t-176 -80.5t-63 -218.5q0 -140 63 -222t176 -82z" />
    <glyph glyph-name="p.sups" horiz-adv-x="1003" 
d="M557 1581q171 0 276 -122.5t105 -323.5q0 -204 -104 -329.5t-273 -125.5q-81 0 -157 36t-119 95v-494h-179v1239h175v-112q47 63 122.5 100t153.5 37zM526 831q106 0 171 82t65 215q0 137 -65.5 220.5t-172.5 83.5t-173 -72.5t-66 -192.5v-88q0 -111 66.5 -179.5
t174.5 -68.5z" />
    <glyph glyph-name="q.sups" horiz-adv-x="1019" 
d="M725 1556h172v-1239h-178v494q-43 -58 -119 -94.5t-156 -36.5q-170 0 -274 125.5t-104 329.5q0 201 105.5 323.5t277.5 122.5q77 0 152 -37t124 -100v112zM719 1098v86q0 112 -66.5 180t-175.5 68q-106 0 -170.5 -81.5t-64.5 -215.5q0 -137 65 -220.5t172 -83.5
q109 0 174.5 73.5t65.5 193.5z" />
    <glyph glyph-name="r.sups" horiz-adv-x="591" 
d="M104 707v849h170v-153q53 102 150 147q63 27 158 27v-184h-31q-119 0 -193.5 -78.5t-74.5 -208.5v-399h-179z" />
    <glyph glyph-name="s.sups" horiz-adv-x="823" 
d="M436 680q-177 0 -274.5 84.5t-108.5 220.5h172q36 -162 217 -162q69 0 107.5 27.5t38.5 83.5q0 22 -10.5 40t-22.5 29t-40 23.5t-42 17t-49 15.5q-47 13 -75 22t-67 23.5t-62 28t-49.5 34t-40.5 43t-24 53t-10 66.5q-1 66 26 116.5t73.5 79t101.5 42.5t117 14
q153 0 237.5 -77t89.5 -208h-172q-6 54 -33 88t-60 45t-73 11q-31 0 -60 -7t-55 -31.5t-26 -64.5q0 -19 5.5 -33.5t20.5 -27.5t28 -21.5t43 -19t49.5 -16.5t62.5 -19q9 -3 26 -8q123 -35 172 -69q90 -62 91 -179q0 -264 -324 -264z" />
    <glyph glyph-name="t.sups" horiz-adv-x="571" 
d="M412 690q-145 0 -206 61.5t-61 190.5v459h-110v137q69 0 94 32t25 109v95h170v-218h184v-155h-184v-418q0 -78 31.5 -106.5t109.5 -28.5h53v-152q-56 -6 -106 -6z" />
    <glyph glyph-name="u.sups" horiz-adv-x="970" 
d="M381 680q-145 0 -224 90t-79 270v516h178v-489q0 -238 176 -238q105 0 171.5 74t66.5 201v452h178v-849h-178v141q-91 -168 -289 -168z" />
    <glyph glyph-name="v.sups" horiz-adv-x="856" 
d="M342 707l-324 849h193l184 -552l33 -91h2l31 91l184 552h193l-324 -849h-172z" />
    <glyph glyph-name="w.sups" horiz-adv-x="1431" 
d="M342 707l-324 849h193l217 -643h2l195 643h184l195 -643h2l215 643h192l-321 -849h-174l-199 657h-4l-201 -657h-172z" />
    <glyph glyph-name="x.sups" horiz-adv-x="784" 
d="M766 1556l-266 -423l266 -426h-195l-178 303l-182 -303h-193l265 426l-265 423h193l176 -309l184 309h195z" />
    <glyph glyph-name="y.sups" horiz-adv-x="856" 
d="M205 317l137 390l-324 849h193l188 -567l29 -80h2l29 80l186 567h193l-299 -778l-158 -461h-176z" />
    <glyph glyph-name="z.sups" horiz-adv-x="886" 
d="M260 856h580v-149h-785v149l547 551h-539v149h742l2 -149z" />
    <glyph glyph-name="zero.lf" horiz-adv-x="1511" 
d="M758 -33q-133 0 -242 43.5t-183 118t-124 178.5t-73 221.5t-23 249.5t23 249.5t73 221.5t124 178.5t183 118t242 43.5t241.5 -43.5t182 -118t123 -178.5t72 -221.5t22.5 -249.5t-22.5 -249.5t-72 -221.5t-123 -178.5t-182 -118t-241.5 -43.5zM756 156q111 0 197 49
t138 135t78.5 197t26.5 241q0 104 -16 195.5t-51 170.5t-86 136t-124.5 89t-162.5 32q-111 0 -197 -49t-138.5 -135.5t-79 -197.5t-26.5 -241t26.5 -241t79 -197t138.5 -135t197 -49z" />
    <glyph glyph-name="one.lf" horiz-adv-x="1511" 
d="M856 199h543v-199h-1286v199h544v1159h-483v198h682v-1357z" />
    <glyph glyph-name="two.lf" horiz-adv-x="1511" 
d="M195 -2v199q254 158 386.5 248.5t239.5 177.5q80 65 129 110t97.5 104.5t71 121.5t22.5 133q0 139 -102.5 226t-293.5 87q-112 0 -197 -32.5t-135.5 -90t-75 -130t-24.5 -159.5q0 -89 21 -168h-201q-20 78 -20 176q0 126 35 230t108 185.5t197.5 127t291.5 45.5
q296 0 446 -136t150 -366q0 -72 -16 -136.5t-57 -140t-120.5 -159t-197.5 -174.5q-164 -127 -418 -280h867v-199h-1204z" />
    <glyph glyph-name="three.lf" horiz-adv-x="1529" 
d="M674 -33q-253 0 -414 96t-205 279h209q68 -190 410 -190q128 0 221.5 25t146.5 70.5t77 100.5t24 123q0 167 -145.5 248.5t-450.5 81.5h-139v178l583 379h-805v198h1074v-219l-596 -379h14q309 0 486 -126.5t177 -348.5q0 -76 -21 -147t-70.5 -139t-124 -118.5
t-190.5 -81t-261 -30.5z" />
    <glyph glyph-name="four.lf" horiz-adv-x="1529" 
d="M1341 541v-199h-340v-342h-198v342h-748v219l619 995h219l-619 -1015h529v393h198v-393h340z" />
    <glyph glyph-name="five.lf" horiz-adv-x="1529" 
d="M666 -33q-271 0 -432 99t-179 260h215q7 -54 61.5 -94t139.5 -60t188 -20q104 0 187.5 22.5t137.5 59.5t90 88t51.5 106t15.5 115q0 78 -26.5 146t-78.5 122t-136.5 85.5t-192.5 31.5q-155 0 -259.5 -61t-156.5 -158h-230l238 847h848v-198h-717l-113 -406
q120 160 400 160q160 0 282.5 -45t195.5 -124.5t109.5 -180.5t36.5 -221q0 -95 -22 -177.5t-72.5 -156t-127 -126.5t-192.5 -83.5t-261 -30.5z" />
    <glyph glyph-name="six.lf" horiz-adv-x="1529" 
d="M713 -33q-304 0 -481 195t-177 573q0 183 44 337.5t127.5 270.5t214.5 181t296 65q215 0 359 -102.5t164 -269.5h-216q-12 88 -97.5 141t-213.5 53q-104 0 -186 -38t-136.5 -107.5t-88 -161.5t-46.5 -207q75 98 204 156.5t282 58.5q254 0 416.5 -157t162.5 -410
q0 -260 -172 -419t-456 -159zM713 152q191 0 309.5 108.5t118.5 282.5q0 173 -118 279t-310 106q-191 0 -306.5 -105t-115.5 -280t116 -283t306 -108z" />
    <glyph glyph-name="seven.lf" horiz-adv-x="1529" 
d="M375 0l731 1358h-1051v198h1286v-198l-741 -1358h-225z" />
    <glyph glyph-name="eight.lf" horiz-adv-x="1529" 
d="M700 -33q-140 0 -252.5 28.5t-184.5 74.5t-120 109t-68 128t-20 135q0 131 71.5 234.5t213.5 157.5q-211 110 -211 329q0 85 32 159t97.5 135t179 96.5t262.5 35.5q121 0 218.5 -23.5t162 -63.5t108 -95.5t62.5 -116t19 -127.5q0 -221 -211 -329q139 -55 210.5 -156
t71.5 -234q0 -71 -19.5 -137t-67.5 -129t-119.5 -109t-183 -74t-251.5 -28zM698 915q98 0 171 21t113.5 57.5t59.5 78.5t19 91t-19 91t-59.5 78.5t-113.5 57.5t-171 21t-170.5 -21t-113 -57.5t-59.5 -78.5t-19 -91t19 -91t59.5 -78.5t113 -57.5t170.5 -21zM698 145
q122 0 211.5 27.5t136.5 73t68 95t21 103.5q0 42 -12 80t-43.5 75.5t-79.5 64t-125.5 43t-176.5 16.5q-123 0 -211.5 -24t-135.5 -66t-68 -88.5t-21 -100.5t21 -103.5t67.5 -95t136 -73t211.5 -27.5z" />
    <glyph glyph-name="nine.lf" horiz-adv-x="1529" 
d="M637 -33q-231 0 -385 100t-176 263h215q13 -82 117 -133.5t239 -51.5q222 0 348.5 142.5t134.5 382.5q-72 -97 -207.5 -156t-291.5 -59q-255 0 -415.5 156t-160.5 407q0 258 170 414.5t449 156.5q307 0 487 -198.5t180 -567.5q0 -255 -87.5 -449.5t-247.5 -300.5
t-369 -106zM678 639q194 0 316 106t122 277t-122 277t-316 106q-192 0 -307 -105t-115 -278t115 -278t307 -105z" />
    <glyph glyph-name="zero.osf" horiz-adv-x="1343" 
d="M676 -33q-255 0 -410 166t-155 440q0 292 154.5 470t406.5 178t406.5 -178t154.5 -470q0 -273 -153 -439.5t-404 -166.5zM670 137q164 0 264 119.5t100 316.5q0 215 -99.5 347.5t-262.5 132.5t-263 -132.5t-100 -347.5q0 -197 99 -316.5t262 -119.5z" />
    <glyph glyph-name="one.osf" horiz-adv-x="921" 
d="M571 199h285v-199h-754v199h279v790l-248 -151v217l248 164h190v-1020z" />
    <glyph glyph-name="two.osf" horiz-adv-x="1241" 
d="M174 0v199q68 41 194.5 113t210.5 124t146 99q91 70 135.5 136t44.5 144q0 44 -14.5 82.5t-45.5 72.5t-89.5 54t-137.5 20q-313 0 -313 -317h-192q0 220 129.5 357t373.5 137q227 0 353.5 -115.5t126.5 -284.5q0 -114 -59 -207.5t-171 -181.5q-113 -89 -374 -233h645
v-199h-963z" />
    <glyph glyph-name="three.osf" horiz-adv-x="1144" 
d="M117 -367v174h153q292 0 435 80.5t143 259.5q0 155 -118 227t-368 72h-114v158l497 438h-686v179h926v-179l-496 -434v-4q167 0 290.5 -50t195.5 -156t72 -259q0 -86 -22.5 -159t-75.5 -138t-135 -110.5t-208 -72t-287 -26.5h-202z" />
    <glyph glyph-name="four.osf" horiz-adv-x="1204" 
d="M1133 201v-201h-154v-362h-199v362h-708v201l688 1020h219v-1020h154zM281 201h499v739z" />
    <glyph glyph-name="five.osf" horiz-adv-x="1308" 
d="M631 -369q-226 0 -384 100.5t-173 258.5h215q10 -79 114.5 -126.5t225.5 -47.5q92 0 166.5 31.5t121 85t71 121t24.5 141.5q0 157 -100.5 260.5t-260.5 103.5q-112 0 -195.5 -56t-125.5 -163h-230l228 881h751v-199h-604l-108 -397q55 53 142 85.5t191 32.5
q153 0 270.5 -73t179.5 -197.5t62 -279.5q0 -111 -34 -209t-101.5 -178.5t-182 -127.5t-263.5 -47z" />
    <glyph glyph-name="six.osf" horiz-adv-x="1417" 
d="M739 -33q-300 0 -454 203t-154 563q0 139 22.5 262.5t72.5 233.5t123.5 189t181.5 125t241 46q82 0 154 -22.5t124 -60t91.5 -86t61.5 -100t28 -103.5h-215q-15 91 -87 142.5t-175 51.5q-89 0 -162 -40.5t-125 -114.5t-85.5 -174.5t-49.5 -225.5q50 78 132.5 128.5
t161.5 68.5t162 18q163 0 284 -75t181 -196t60 -270q0 -88 -21.5 -169t-67.5 -153t-112 -125.5t-162 -84.5t-211 -31zM739 152q89 0 162 34t118 89.5t69 121t24 133.5t-23.5 130.5t-68.5 113.5t-118 82t-163 31q-118 0 -204.5 -52.5t-127 -131.5t-40.5 -171q0 -69 24 -135
t68.5 -121.5t117.5 -89.5t162 -34z" />
    <glyph glyph-name="seven.osf" horiz-adv-x="1077" 
d="M164 -334l624 1358h-725v199h938v-199l-618 -1358h-219z" />
    <glyph glyph-name="eight.osf" horiz-adv-x="1441" 
d="M668 -37q-131 0 -237.5 29t-176 76t-116.5 110t-67 129t-20 135q0 134 71.5 235.5t217.5 153.5q-215 121 -215 320q0 80 32.5 155t96 138t171 101t243.5 38q140 0 247.5 -37.5t169.5 -99.5t92.5 -134.5t30.5 -150.5q0 -208 -215 -330q145 -53 216 -153t71 -236
q0 -69 -19 -134.5t-65 -129t-114.5 -110.5t-175 -76t-238.5 -29zM666 913q170 0 249.5 68.5t79.5 173.5q0 106 -80 178t-249 72q-87 0 -154 -21t-105.5 -57t-57.5 -79t-19 -93q0 -104 83 -173t253 -69zM666 145q90 0 161.5 18t116.5 47t75 67.5t42 77.5t12 79
q0 55 -20 103.5t-64.5 91.5t-127 68.5t-195.5 25.5q-112 0 -194 -23t-127.5 -64t-67 -91t-21.5 -111q0 -40 12 -79t42.5 -77.5t75.5 -67.5t117.5 -47t162.5 -18z" />
    <glyph glyph-name="nine.osf" horiz-adv-x="1400" 
d="M655 -369q-123 0 -222.5 34t-160 89.5t-95 118t-42.5 127.5h215q13 -84 108 -137t218 -53q174 0 273 122t106 369q-166 -215 -432 -215q-119 0 -216.5 46t-160.5 124t-97 179.5t-34 215.5q0 92 22 175.5t68 156t112.5 125.5t161 83t207.5 30q580 0 580 -783
q0 -88 -7.5 -167.5t-26 -162.5t-48.5 -151.5t-78 -130t-110 -104t-149 -67t-192 -24.5zM674 270q86 0 157 32.5t116 87t69 122.5t24 141t-24 141t-69 122.5t-116 87t-157 32.5t-156 -32.5t-113.5 -87t-66.5 -122t-23 -141.5t23 -141.5t66.5 -122t113.5 -87t156 -32.5z" />
    <glyph glyph-name="zero.ss01" horiz-adv-x="1511" 
d="M758 -33q-133 0 -242 43.5t-183 118t-124 178.5t-73 221.5t-23 249.5t23 249.5t73 221.5t124 178.5t183 118t242 43.5t241.5 -43.5t182 -118t123 -178.5t72 -221.5t22.5 -249.5t-22.5 -249.5t-72 -221.5t-123 -178.5t-182 -118t-241.5 -43.5zM756 166q90 0 164.5 32
t125.5 88t86.5 134t51.5 167.5t16 190.5q0 127 -26.5 235.5t-79 194t-139.5 134.5t-199 49t-199 -49t-140 -134.5t-79.5 -194t-26.5 -235.5q0 -101 16.5 -190.5t51.5 -167.5t86.5 -134t126 -88t164.5 -32z" />
    <glyph glyph-name="one.ss01" horiz-adv-x="763" 
d="M453 0v1323l-340 -293v240l340 286h198v-1556h-198z" />
    <glyph glyph-name="two.ss01" horiz-adv-x="1472" 
d="M137 -2v199l408 254q-243 46 -366.5 198t-123.5 371q0 92 21.5 174.5t69.5 155.5t118.5 125.5t173.5 83t230 30.5q158 0 278.5 -46t193 -126.5t108.5 -182.5t36 -222q0 -165 -80.5 -297t-283.5 -250l-465 -268h829v-199h-1147zM674 627q102 0 182.5 32t129 87t73 123
t24.5 145t-24.5 145.5t-73 124.5t-130 88.5t-185.5 32.5q-84 0 -153.5 -22t-117 -59t-80.5 -86.5t-48 -104.5t-15 -113t15 -113.5t48 -106.5t81 -89.5t118.5 -61t155.5 -22.5z" />
    <glyph glyph-name="three.ss01" horiz-adv-x="1454" 
d="M725 -33q-157 0 -276 44.5t-191.5 126t-108.5 188.5t-36 239q0 185 81 320t283 237l465 236h-829v198h1147v-198l-408 -242q119 0 214 -45.5t154 -124t90 -179t31 -216.5q0 -123 -35.5 -226.5t-107.5 -184.5t-193 -127t-280 -46zM727 152q105 0 186 32.5t130 89.5
t73.5 129t24.5 156t-24.5 155.5t-73.5 127.5t-130 87.5t-186 31.5t-186 -31.5t-130 -87.5t-73.5 -127.5t-24.5 -155.5t24.5 -156t73.5 -129t130 -89.5t186 -32.5z" />
    <glyph glyph-name="four.ss01" horiz-adv-x="1388" 
d="M1276 541v-199h-154v-342h-198v342h-811v219l790 995h219v-1015h154zM332 541h592v745z" />
    <glyph glyph-name="five.ss01" horiz-adv-x="1454" 
d="M729 -33q-158 0 -278.5 46t-193 127t-108.5 183.5t-36 223.5q0 97 26 227q28 130 82.5 391t81.5 391h844v-198h-686l-80 -373q131 129 371 129q150 0 265.5 -45t185 -125t104 -181t34.5 -220t-35.5 -220.5t-107 -182.5t-191.5 -127t-278 -46zM727 152q104 0 185.5 32.5
t130.5 88.5t73.5 124.5t24.5 145.5t-24.5 145t-73.5 123t-130 87t-186 32t-186 -32t-130 -87t-73.5 -123t-24.5 -145t24.5 -145.5t73.5 -124.5t130.5 -88.5t185.5 -32.5z" />
    <glyph glyph-name="six.ss01" horiz-adv-x="1454" 
d="M733 -33q-292 0 -456 157t-164 421q0 116 44.5 231t154 283t337.5 473l19 24h241l-385 -509q116 63 267 63q112 0 210.5 -35.5t175 -103.5t120.5 -176t44 -244q0 -121 -36 -224.5t-108 -185t-191 -128t-273 -46.5zM723 152q105 0 187 33t131 88.5t74.5 124t25.5 145.5
q0 76 -25.5 144.5t-75 123.5t-130.5 87t-183 32q-189 0 -301.5 -105.5t-112.5 -279.5q0 -78 24 -146.5t72 -125t129 -89t185 -32.5z" />
    <glyph glyph-name="seven.ss01" horiz-adv-x="1204" 
d="M274 0q23 164 77.5 336t138.5 347t173.5 331.5t208.5 343.5h-759v198h979v-219q-119 -184 -208.5 -338t-173.5 -326.5t-138.5 -342t-77.5 -330.5h-220z" />
    <glyph glyph-name="nine.ss01" horiz-adv-x="1454" 
d="M215 0v199h778l80 372q-75 -74 -157.5 -101.5t-190.5 -27.5q-158 0 -278 45.5t-191.5 125.5t-107 181t-35.5 220t35.5 220.5t107 182t191.5 126.5t278 46t278.5 -46t193 -127t108.5 -183t36 -223q0 -98 -26 -228l-164 -782h-936zM727 627q105 0 186 32t130 87t73.5 123
t24.5 145t-24.5 145.5t-73.5 124.5t-130.5 88.5t-185.5 32.5t-185.5 -32.5t-130.5 -88.5t-73.5 -124.5t-24.5 -145.5t24.5 -145t73.5 -123t130 -87t186 -32z" />
    <glyph glyph-name="zero.tf" horiz-adv-x="1511" 
d="M758 -33q-133 0 -242 43.5t-183 118t-124 178.5t-73 221.5t-23 249.5t23 249.5t73 221.5t124 178.5t183 118t242 43.5t241.5 -43.5t182 -118t123 -178.5t72 -221.5t22.5 -249.5t-22.5 -249.5t-72 -221.5t-123 -178.5t-182 -118t-241.5 -43.5zM756 156q111 0 197 49
t138 135t78.5 197t26.5 241q0 104 -16 195.5t-51 170.5t-86 136t-124.5 89t-162.5 32q-111 0 -197 -49t-138.5 -135.5t-79 -197.5t-26.5 -241t26.5 -241t79 -197t138.5 -135t197 -49z" />
    <glyph glyph-name="one.tf" horiz-adv-x="1511" 
d="M856 199h543v-199h-1286v199h544v1159h-483v198h682v-1357z" />
    <glyph glyph-name="two.tf" horiz-adv-x="1511" 
d="M195 -2v199q254 158 386.5 248.5t239.5 177.5q80 65 129 110t97.5 104.5t71 121.5t22.5 133q0 139 -102.5 226t-293.5 87q-112 0 -197 -32.5t-135.5 -90t-75 -130t-24.5 -159.5q0 -89 21 -168h-201q-20 78 -20 176q0 126 35 230t108 185.5t197.5 127t291.5 45.5
q296 0 446 -136t150 -366q0 -72 -16 -136.5t-57 -140t-120.5 -159t-197.5 -174.5q-164 -127 -418 -280h867v-199h-1204z" />
    <glyph glyph-name="three.tf" horiz-adv-x="1511" 
d="M731 -33q-253 0 -413.5 96t-204.5 279h209q68 -190 409 -190q128 0 221.5 25t146.5 70.5t77 100.5t24 123q0 167 -145.5 248.5t-450.5 81.5h-139v178l584 379h-805v198h1073v-219l-596 -379h14q310 0 487 -126.5t177 -348.5q0 -76 -21 -147t-71 -139t-124.5 -118.5
t-190.5 -81t-261 -30.5z" />
    <glyph glyph-name="four.tf" horiz-adv-x="1511" 
d="M1399 541v-199h-340v-342h-199v342h-747v219l618 995h219l-618 -1015h528v393h199v-393h340z" />
    </font>
</defs>
</svg>
